<svg xmlns="http://www.w3.org/2000/svg" xmlns:xlink="http://www.w3.org/1999/xlink" xmlns:lucid="lucid" width="1595.1" height="134.54"><g transform="translate(1913.5174560824787 1246.6354868799806)" lucid:page-tab-id="FaJwCfidt7cE"><path d="M-888.4-1238.8a6 6 0 0 1 6-6h511.15l49.07 60.93a7.45 7.45 0 0 1 0 9.35l-49.07 60.92H-882.4a6 6 0 0 1-6-6z" stroke="#000" stroke-opacity="0" stroke-width="3" fill="#6f7681"/><use xlink:href="#a" transform="matrix(1,2.4492935982947064e-16,-2.4492935982947064e-16,1,-859.9136897976455,-1238.2380738211189) translate(44.36800000000048 74.0127499999999)"/><use xlink:href="#b" transform="matrix(1,2.4492935982947064e-16,-2.4492935982947064e-16,1,-859.9136897976455,-1238.2380738211189) translate(167.16644444444464 74.0127499999999)"/><use xlink:href="#c" transform="matrix(1,2.4492935982947064e-16,-2.4492935982947064e-16,1,-859.9136897976455,-1238.2380738211189) translate(209.2791111111112 74.0127499999999)"/><use xlink:href="#d" transform="matrix(1,2.4492935982947064e-16,-2.4492935982947064e-16,1,-859.9136897976455,-1238.2380738211189) translate(345.8737777777776 74.0127499999999)"/><path d="M-1398.93-1238.8a6 6 0 0 1 6-6l502.17.85 48.6 60.54a7.45 7.45 0 0 1-.03 9.34l-48.78 60.38-502.16-.84a6 6 0 0 1-6-6z" stroke="#fff" stroke-width="3" fill="#006be5"/><use xlink:href="#e" transform="matrix(0.9999986214853944,0.001660429857231486,-0.001660429857231486,0.9999986214853944,-1370.900464615147,-1238.2380742219889) translate(47.75999999999999 73.02000000000001)"/><use xlink:href="#f" transform="matrix(0.9999986214853944,0.001660429857231486,-0.001660429857231486,0.9999986214853944,-1370.900464615147,-1238.2380742219889) translate(169.88 73.02000000000001)"/><use xlink:href="#g" transform="matrix(0.9999986214853944,0.001660429857231486,-0.001660429857231486,0.9999986214853944,-1370.900464615147,-1238.2380742219889) translate(211.76000000000002 73.02000000000001)"/><use xlink:href="#h" transform="matrix(0.9999986214853944,0.001660429857231486,-0.001660429857231486,0.9999986214853944,-1370.900464615147,-1238.2380742219889) translate(323.96000000000004 73.02000000000001)"/><g><path d="M-1912-1238.8a6 6 0 0 1 5.98-6l513.52-.3 48.73 60.43a7.45 7.45 0 0 1 0 9.35l-48.65 60.5-513.52.3a6 6 0 0 1-6-6z" stroke="#fff" stroke-width="3" fill="#6f7681"/></g><g><use xlink:href="#e" transform="matrix(0.9999998261734819,-0.0005896210697569839,0.0005896210697569839,0.9999998261734819,-1883.4138230529188,-1238.301550511384) translate(61.27999999999997 50.894999999999996)"/><use xlink:href="#i" transform="matrix(0.9999998261734819,-0.0005896210697569839,0.0005896210697569839,0.9999998261734819,-1883.4138230529188,-1238.301550511384) translate(183.39999999999998 50.894999999999996)"/><use xlink:href="#j" transform="matrix(0.9999998261734819,-0.0005896210697569839,0.0005896210697569839,0.9999998261734819,-1883.4138230529188,-1238.301550511384) translate(225.28 50.894999999999996)"/><use xlink:href="#k" transform="matrix(0.9999998261734819,-0.0005896210697569839,0.0005896210697569839,0.9999998261734819,-1883.4138230529188,-1238.301550511384) translate(165.66000000000003 100.815)"/></g><defs><path fill="#fff" d="M588-461c0 148-94 233-256 229H213V0H68v-690h264c163-3 256 78 256 229zm-147-2c0-117-112-113-228-109v222c118 3 228 10 228-113" id="l"/><path fill="#fff" d="M301-403c-52 0-101 34-101 90V0H60v-715h140v250c29-37 78-64 145-63 112 1 178 68 178 188V0H383v-315c0-59-27-88-82-88" id="m"/><path fill="#fff" d="M284-528c137-2 216 76 216 210V0H382l-9-56c-30 39-83 68-156 66C113 12 39-44 39-143c-2-153 146-155 279-173 29-6 42-6 44-33-3-43-31-72-85-69-49 0-88 23-92 68H55c9-118 99-177 229-178zM256-96c52 0 110-24 107-79v-53c-55 10-129 8-168 34-13 9-19 23-19 40 0 41 36 58 80 58" id="n"/><path fill="#fff" d="M482-158C479-46 384 10 256 10 127 10 39-45 26-153h135c9 40 49 55 93 56 43 0 87-14 87-55-1-54-70-47-121-55-100-15-182-45-182-158 1-107 98-163 215-163 123 0 207 59 218 164H338c-3-73-159-78-163-7-2 49 64 45 113 52 103 15 194 44 194 161" id="o"/><path fill="#fff" d="M295-99c50 0 87-21 100-58h135C509-51 422 10 291 10 123 9 37-90 37-255c0-167 87-273 255-273 176 0 259 127 238 309H180c9 69 39 120 115 120zm98-239c-1-47-42-89-97-86-62 0-100 36-113 108h184c19 0 25-4 26-22" id="p"/><g id="a"><use transform="matrix(0.04022222222222213,0,0,0.04022222222222213,0,0)" xlink:href="#l"/><use transform="matrix(0.04022222222222213,0,0,0.04022222222222213,25.058444444444387,0)" xlink:href="#m"/><use transform="matrix(0.04022222222222213,0,0,0.04022222222222213,48.30688888888878,0)" xlink:href="#n"/><use transform="matrix(0.04022222222222213,0,0,0.04022222222222213,70.63022222222206,0)" xlink:href="#o"/><use transform="matrix(0.04022222222222213,0,0,0.04022222222222213,91.22399999999979,0)" xlink:href="#p"/></g><path fill="#fff" d="M552-191C552-52 439 7 293 10 143 9 50-64 38-200h134c11 61 51 90 120 91 67 0 115-27 115-91 2-97-102-100-204-95v-106c95 5 190 3 188-87 0-53-42-84-98-83-63 0-99 29-108 86H54c13-129 97-205 244-205 136 1 228 60 235 187 0 76-43 125-96 150 68 19 115 79 115 162" id="q"/><path fill="#fff" d="M43 0v-142h147V0H43zm0-375v-142h147v142H43" id="r"/><g id="b"><use transform="matrix(0.04022222222222213,0,0,0.04022222222222213,0,0)" xlink:href="#q"/><use transform="matrix(0.04022222222222213,0,0,0.04022222222222213,24.13333333333328,0)" xlink:href="#r"/></g><path fill="#fff" d="M588-205C588-53 472 11 318 14 156 16 45-67 35-214h149c16 71 60 107 133 107 64-1 119-22 120-87 0-82-90-81-164-95-148-27-222-93-222-204 4-146 111-211 259-211 153 0 257 72 268 218H429c-6-58-56-93-118-97-74-4-144 65-91 129 15 24 93 35 138 42 138 24 230 71 230 207" id="s"/><path fill="#fff" d="M292-112c58-1 94-32 103-84h135C513-73 434 10 292 10 124 9 37-90 37-256c0-167 88-270 257-272 141 1 217 81 233 206H392c-12-56-45-84-99-84-80 1-114 64-113 150 0 82 34 144 112 144" id="t"/><path fill="#fff" d="M60 0v-715h140V0H60" id="u"/><path fill="#fff" d="M37-257c0-154 70-268 224-271 62 0 110 21 143 63v-250h140V0H423l-11-66c-28 45-85 76-157 76C105 6 37-106 37-257zm258 145c62-2 108-34 109-98v-102c4-62-52-93-108-94-80 0-116 64-116 147 0 82 35 148 115 147" id="v"/><g id="c"><use transform="matrix(0.04022222222222213,0,0,0.04022222222222213,0,0)" xlink:href="#s"/><use transform="matrix(0.04022222222222213,0,0,0.04022222222222213,25.29977777777772,0)" xlink:href="#t"/><use transform="matrix(0.04022222222222213,0,0,0.04022222222222213,47.944888888888784,0)" xlink:href="#n"/><use transform="matrix(0.04022222222222213,0,0,0.04022222222222213,70.26822222222206,0)" xlink:href="#u"/><use transform="matrix(0.04022222222222213,0,0,0.04022222222222213,80.72599999999981,0)" xlink:href="#p"/><use transform="matrix(0.04022222222222213,0,0,0.04022222222222213,103.69288888888866,0)" xlink:href="#v"/></g><path fill="#fff" d="M374-393c-106-5-174 17-174 120V0H60v-518h121l11 73c28-53 99-93 182-73v125" id="w"/><path fill="#fff" d="M555-260C555-93 466 9 296 10 126 9 37-90 37-258s90-268 259-270c171 1 259 100 259 268zm-375 2c0 85 35 146 116 146s117-62 116-148c0-85-35-146-116-146-82 1-116 61-116 148" id="x"/><path fill="#fff" d="M231 10C119 9 55-58 55-178v-340h140v315c0 59 27 89 80 89 51 0 99-35 99-91v-313h140V0H393l-10-65c-28 43-79 76-152 75" id="y"/><path fill="#fff" d="M256 10C143 10 92-38 92-149v-256H8v-109c40-4 86 15 92-35l15-119h116v150h117v113H232v232c1 51 17 65 70 66h56V2c-27 4-69 8-102 8" id="z"/><g id="d"><use transform="matrix(0.04022222222222213,0,0,0.04022222222222213,0,0)" xlink:href="#w"/><use transform="matrix(0.04022222222222213,0,0,0.04022222222222213,15.244222222222188,0)" xlink:href="#x"/><use transform="matrix(0.04022222222222213,0,0,0.04022222222222213,39.05577777777769,0)" xlink:href="#u"/><use transform="matrix(0.04022222222222213,0,0,0.04022222222222213,49.51355555555544,0)" xlink:href="#u"/><use transform="matrix(0.04022222222222213,0,0,0.04022222222222213,59.97133333333319,0)" xlink:href="#x"/><use transform="matrix(0.04022222222222213,0,0,0.04022222222222213,83.7828888888887,0)" xlink:href="#y"/><use transform="matrix(0.04022222222222213,0,0,0.04022222222222213,106.87044444444419,0)" xlink:href="#z"/></g><g id="e"><use transform="matrix(0.04,0,0,0.04,0,0)" xlink:href="#l"/><use transform="matrix(0.04,0,0,0.04,24.92,0)" xlink:href="#m"/><use transform="matrix(0.04,0,0,0.04,48.04000000000001,0)" xlink:href="#n"/><use transform="matrix(0.04,0,0,0.04,70.24000000000001,0)" xlink:href="#o"/><use transform="matrix(0.04,0,0,0.04,90.72000000000001,0)" xlink:href="#p"/></g><path fill="#fff" d="M309-690c132-2 229 73 228 200-1 177-182 205-287 293-23 20-39 46-46 77h335V0H57c-20-207 87-283 216-352 65-35 120-51 120-132 0-52-36-88-92-86-60 0-96 38-103 92H64c15-133 96-211 245-212" id="A"/><g id="f"><use transform="matrix(0.04,0,0,0.04,0,0)" xlink:href="#A"/><use transform="matrix(0.04,0,0,0.04,24,0)" xlink:href="#r"/></g><path fill="#fff" d="M68 0v-690h147V0H68" id="B"/><path fill="#fff" d="M301-403c-52 0-101 34-101 90V0H60v-518h121l10 65c28-44 80-76 154-75 113 1 178 68 178 188V0H383v-315c0-59-27-88-82-88" id="C"/><path fill="#fff" d="M56-585v-130h148v130H56zM60 0v-518h140V0H60" id="D"/><g id="g"><use transform="matrix(0.04,0,0,0.04,0,0)" xlink:href="#B"/><use transform="matrix(0.04,0,0,0.04,11.32,0)" xlink:href="#C"/><use transform="matrix(0.04,0,0,0.04,34.44,0)" xlink:href="#D"/><use transform="matrix(0.04,0,0,0.04,44.83999999999999,0)" xlink:href="#z"/><use transform="matrix(0.04,0,0,0.04,60.64,0)" xlink:href="#D"/><use transform="matrix(0.04,0,0,0.04,71.04,0)" xlink:href="#n"/><use transform="matrix(0.04,0,0,0.04,93.24,0)" xlink:href="#u"/></g><g id="h"><use transform="matrix(0.04,0,0,0.04,0,0)" xlink:href="#w"/><use transform="matrix(0.04,0,0,0.04,15.16,0)" xlink:href="#x"/><use transform="matrix(0.04,0,0,0.04,38.84,0)" xlink:href="#u"/><use transform="matrix(0.04,0,0,0.04,49.24,0)" xlink:href="#u"/><use transform="matrix(0.04,0,0,0.04,59.64,0)" xlink:href="#x"/><use transform="matrix(0.04,0,0,0.04,83.32000000000001,0)" xlink:href="#y"/><use transform="matrix(0.04,0,0,0.04,106.28,0)" xlink:href="#z"/></g><path fill="#fff" d="M272 0v-473H105v-120c68-10 175 30 175-52l6-35h126V0H272" id="E"/><g id="i"><use transform="matrix(0.04,0,0,0.04,0,0)" xlink:href="#E"/><use transform="matrix(0.04,0,0,0.04,24,0)" xlink:href="#r"/></g><path fill="#fff" d="M684-347c0 218-101 361-320 361C147 14 44-127 44-343c0-218 101-361 320-361 218 0 320 140 320 357zm-490 2c0 134 46 229 170 229s170-95 170-229-46-229-170-229-170 95-170 229" id="F"/><path fill="#fff" d="M337 10c-70 0-117-29-146-71L181 0H60v-715h140v255c31-41 78-68 148-68 150 4 219 114 219 265 0 157-74 269-230 273zm-29-416c-62 3-107 33-108 98v102c-4 62 52 93 107 94 81 1 117-64 117-147 0-82-35-148-116-147" id="G"/><path fill="#fff" d="M341-125c110-2 181 51 181 153 0 131-111 173-263 172-87 0-149-14-187-40s-56-58-56-97c-3-59 44-86 85-99-29-17-54-43-53-90 1-51 33-83 74-98-46-25-72-69-74-133 3-112 89-174 216-171 51 0 93 10 127 26h144v93l-66-3c11 17 19 37 19 65-5 132-143 170-289 150-18 7-29 19-31 38 0 23 15 34 44 34h129zm-72-298c-51-1-83 21-85 65 2 44 35 64 85 63 51 1 84-18 86-63-2-45-35-66-86-65zM383 30c0-69-105-48-173-48-26 0-59 20-56 51 6 46 50 64 112 63 66 1 117-15 117-66" id="H"/><g id="j"><use transform="matrix(0.04,0,0,0.04,0,0)" xlink:href="#F"/><use transform="matrix(0.04,0,0,0.04,29.12,0)" xlink:href="#C"/><use transform="matrix(0.04,0,0,0.04,52.24,0)" xlink:href="#G"/><use transform="matrix(0.04,0,0,0.04,76.4,0)" xlink:href="#x"/><use transform="matrix(0.04,0,0,0.04,99.92000000000002,0)" xlink:href="#n"/><use transform="matrix(0.04,0,0,0.04,122.12000000000002,0)" xlink:href="#w"/><use transform="matrix(0.04,0,0,0.04,137.28000000000003,0)" xlink:href="#v"/><use transform="matrix(0.04,0,0,0.04,161.44000000000003,0)" xlink:href="#D"/><use transform="matrix(0.04,0,0,0.04,171.84000000000003,0)" xlink:href="#C"/><use transform="matrix(0.04,0,0,0.04,194.96000000000004,0)" xlink:href="#H"/></g><g id="k"><use transform="matrix(0.04,0,0,0.04,0,0)" xlink:href="#w"/><use transform="matrix(0.04,0,0,0.04,15.16,0)" xlink:href="#p"/><use transform="matrix(0.04,0,0,0.04,38.04,0)" xlink:href="#n"/><use transform="matrix(0.04,0,0,0.04,60.239999999999995,0)" xlink:href="#v"/><use transform="matrix(0.04,0,0,0.04,84.39999999999998,0)" xlink:href="#D"/><use transform="matrix(0.04,0,0,0.04,94.8,0)" xlink:href="#C"/><use transform="matrix(0.04,0,0,0.04,117.92,0)" xlink:href="#p"/><use transform="matrix(0.04,0,0,0.04,140.76,0)" xlink:href="#o"/><use transform="matrix(0.04,0,0,0.04,161.39999999999998,0)" xlink:href="#o"/></g></defs></g></svg>