<svg xmlns="http://www.w3.org/2000/svg" xmlns:xlink="http://www.w3.org/1999/xlink" xmlns:lucid="lucid" width="1635.1" height="174.54"><g transform="translate(1933.5174560824787 1266.6354868799806)" lucid:page-tab-id="0_0"><path d="M-888.4-1238.8a6 6 0 0 1 6-6h511.15l49.07 60.93a7.45 7.45 0 0 1 0 9.35l-49.07 60.92H-882.4a6 6 0 0 1-6-6z" stroke="#000" stroke-opacity="0" stroke-width="3" fill="#ffab0f"/><use xlink:href="#a" transform="matrix(1,2.4492935982947064e-16,-2.4492935982947064e-16,1,-859.9136897976455,-1238.2380738211189) translate(35.668827160494374 69.3652777777777)"/><use xlink:href="#b" transform="matrix(1,2.4492935982947064e-16,-2.4492935982947064e-16,1,-859.9136897976455,-1238.2380738211189) translate(165.1620370370373 69.3652777777777)"/><use xlink:href="#c" transform="matrix(1,2.4492935982947064e-16,-2.4492935982947064e-16,1,-859.9136897976455,-1238.2380738211189) translate(211.97623456790137 69.3652777777777)"/><use xlink:href="#d" transform="matrix(1,2.4492935982947064e-16,-2.4492935982947064e-16,1,-859.9136897976455,-1238.2380738211189) translate(352.64228395061707 69.3652777777777)"/><path d="M-1398.93-1238.8a6 6 0 0 1 6-6l502.17.85 48.6 60.54a7.45 7.45 0 0 1-.03 9.34l-48.78 60.38-502.16-.84a6 6 0 0 1-6-6z" stroke="#000" stroke-opacity="0" stroke-width="3" fill="#ff712b" fill-opacity=".51"/><use xlink:href="#e" transform="matrix(0.9999986214853944,0.001660429857231486,-0.001660429857231486,0.9999986214853944,-1370.900464615147,-1238.2380742219889) translate(39.566666666666634 68.3875)"/><use xlink:href="#f" transform="matrix(0.9999986214853944,0.001660429857231486,-0.001660429857231486,0.9999986214853944,-1370.900464615147,-1238.2380742219889) translate(168.34444444444443 68.3875)"/><use xlink:href="#g" transform="matrix(0.9999986214853944,0.001660429857231486,-0.001660429857231486,0.9999986214853944,-1370.900464615147,-1238.2380742219889) translate(214.9 68.3875)"/><use xlink:href="#h" transform="matrix(0.9999986214853944,0.001660429857231486,-0.001660429857231486,0.9999986214853944,-1370.900464615147,-1238.2380742219889) translate(330.23333333333335 68.3875)"/><g><path d="M-1912-1238.8a6 6 0 0 1 5.98-6l513.52-.3 48.73 60.43a7.45 7.45 0 0 1 0 9.35l-48.65 60.5-513.52.3a6 6 0 0 1-6-6z" stroke="#000" stroke-opacity="0" stroke-width="3" fill="#ff0f7b" fill-opacity=".49"/></g><g><use xlink:href="#e" transform="matrix(0.9999998261734819,-0.0005896210697569839,0.0005896210697569839,0.9999998261734819,-1883.4138230529188,-1238.301550511384) translate(51.23333333333332 42.575)"/><use xlink:href="#i" transform="matrix(0.9999998261734819,-0.0005896210697569839,0.0005896210697569839,0.9999998261734819,-1883.4138230529188,-1238.301550511384) translate(180.01111111111112 42.575)"/><use xlink:href="#j" transform="matrix(0.9999998261734819,-0.0005896210697569839,0.0005896210697569839,0.9999998261734819,-1883.4138230529188,-1238.301550511384) translate(226.5666666666667 42.575)"/><use xlink:href="#k" transform="matrix(0.9999998261734819,-0.0005896210697569839,0.0005896210697569839,0.9999998261734819,-1883.4138230529188,-1238.301550511384) translate(164.27777777777777 90.575)"/></g><defs><path fill="#fff" d="M24-248c93 1 206-16 204 79-1 75-69 88-152 82V0H24v-248zm52 121c47 0 100 7 100-41 0-47-54-39-100-39v80" id="l"/><path fill="#fff" d="M114-157C55-157 80-60 75 0H25v-261h50l-1 109c12-26 28-41 61-42 86-1 58 113 63 194h-50c-7-57 23-157-34-157" id="m"/><path fill="#fff" d="M133-34C117-15 103 5 69 4 32 3 11-16 11-54c-1-60 55-63 116-61 1-26-3-47-28-47-18 1-26 9-28 27l-52-2c7-38 36-58 82-57s74 22 75 68l1 82c-1 14 12 18 25 15v27c-30 8-71 5-69-32zm-48 3c29 0 43-24 42-57-32 0-66-3-65 30 0 17 8 27 23 27" id="n"/><path fill="#fff" d="M137-138c1-29-70-34-71-4 15 46 118 7 119 86 1 83-164 76-172 9l43-7c4 19 20 25 44 25 33 8 57-30 24-41C81-84 22-81 20-136c-2-80 154-74 161-7" id="o"/><path fill="#fff" d="M185-48c-13 30-37 53-82 52C43 2 14-33 14-96s30-98 90-98c62 0 83 45 84 108H66c0 31 8 55 39 56 18 0 30-7 34-22zm-45-69c5-46-57-63-70-21-2 6-4 13-4 21h74" id="p"/><g id="a"><use transform="matrix(0.11172839506172813,0,0,0.11172839506172813,0,0)" xlink:href="#l"/><use transform="matrix(0.11172839506172813,0,0,0.11172839506172813,26.814814814814753,0)" xlink:href="#m"/><use transform="matrix(0.11172839506172813,0,0,0.11172839506172813,51.28333333333322,0)" xlink:href="#n"/><use transform="matrix(0.11172839506172813,0,0,0.11172839506172813,73.62901234567885,0)" xlink:href="#o"/><use transform="matrix(0.11172839506172813,0,0,0.11172839506172813,95.97469135802447,0)" xlink:href="#p"/></g><path fill="#fff" d="M128-127c34 4 56 21 59 58 7 91-148 94-172 28-4-9-6-17-7-26l51-5c1 24 16 35 40 36 23 0 39-12 38-36-1-31-31-36-65-34v-40c32 2 59-3 59-33 0-20-13-33-34-33s-33 13-35 32l-50-3c6-44 37-68 86-68 50 0 83 20 83 66 0 35-22 52-53 58" id="q"/><path fill="#fff" d="M35-132v-50h50v50H35zM35 0v-49h50V0H35" id="r"/><g id="b"><use transform="matrix(0.11172839506172813,0,0,0.11172839506172813,0,0)" xlink:href="#q"/><use transform="matrix(0.11172839506172813,0,0,0.11172839506172813,22.345679012345627,0)" xlink:href="#r"/></g><path fill="#fff" d="M169-182c-1-43-94-46-97-3 18 66 151 10 154 114 3 95-165 93-204 36-6-8-10-19-12-30l50-8c3 46 112 56 116 5-17-69-150-10-154-114-4-87 153-88 188-35 5 8 8 18 10 28" id="s"/><path fill="#fff" d="M190-63c-7 42-38 67-86 67-59 0-84-38-90-98-12-110 154-137 174-36l-49 2c-2-19-15-32-35-32-30 0-35 28-38 64-6 74 65 87 74 30" id="t"/><path fill="#fff" d="M25 0v-261h50V0H25" id="u"/><path fill="#fff" d="M88-194c31-1 46 15 58 34l-1-101h50l1 261h-48c-2-10 0-23-3-31C134-8 116 4 84 4 32 4 16-41 15-95c0-56 19-97 73-99zm17 164c33 0 40-30 41-66 1-37-9-64-41-64s-38 30-39 65c0 43 13 65 39 65" id="v"/><g id="c"><use transform="matrix(0.11172839506172813,0,0,0.11172839506172813,0,0)" xlink:href="#s"/><use transform="matrix(0.11172839506172813,0,0,0.11172839506172813,26.814814814814753,0)" xlink:href="#t"/><use transform="matrix(0.11172839506172813,0,0,0.11172839506172813,49.16049382716038,0)" xlink:href="#n"/><use transform="matrix(0.11172839506172813,0,0,0.11172839506172813,71.50617283950601,0)" xlink:href="#u"/><use transform="matrix(0.11172839506172813,0,0,0.11172839506172813,82.67901234567881,0)" xlink:href="#p"/><use transform="matrix(0.11172839506172813,0,0,0.11172839506172813,105.02469135802444,0)" xlink:href="#v"/></g><path fill="#fff" d="M135-150c-39-12-60 13-60 57V0H25l-1-190h47c2 13-1 29 3 40 6-28 27-53 61-41v41" id="w"/><path fill="#fff" d="M110-194c64 0 96 36 96 99 0 64-35 99-97 99-61 0-95-36-95-99 0-62 34-99 96-99zm-1 164c35 0 45-28 45-65 0-40-10-65-43-65-34 0-45 26-45 65 0 36 10 65 43 65" id="x"/><path fill="#fff" d="M85 4C-2 5 27-109 22-190h50c7 57-23 150 33 157 60-5 35-97 40-157h50l1 190h-47c-2-12 1-28-3-38-12 25-28 42-61 42" id="y"/><path fill="#fff" d="M115-3C79 11 28 4 28-45v-112H4v-33h27l15-45h31v45h36v33H77v99c-1 23 16 31 38 25v30" id="z"/><g id="d"><use transform="matrix(0.11172839506172813,0,0,0.11172839506172813,0,0)" xlink:href="#w"/><use transform="matrix(0.11172839506172813,0,0,0.11172839506172813,15.641975308641939,0)" xlink:href="#x"/><use transform="matrix(0.11172839506172813,0,0,0.11172839506172813,40.1104938271604,0)" xlink:href="#u"/><use transform="matrix(0.11172839506172813,0,0,0.11172839506172813,51.28333333333321,0)" xlink:href="#u"/><use transform="matrix(0.11172839506172813,0,0,0.11172839506172813,62.456172839506024,0)" xlink:href="#x"/><use transform="matrix(0.11172839506172813,0,0,0.11172839506172813,86.92469135802449,0)" xlink:href="#y"/><use transform="matrix(0.11172839506172813,0,0,0.11172839506172813,111.39320987654295,0)" xlink:href="#z"/></g><g id="e"><use transform="matrix(0.1111111111111111,0,0,0.1111111111111111,0,0)" xlink:href="#l"/><use transform="matrix(0.1111111111111111,0,0,0.1111111111111111,26.666666666666664,0)" xlink:href="#m"/><use transform="matrix(0.1111111111111111,0,0,0.1111111111111111,51,0)" xlink:href="#n"/><use transform="matrix(0.1111111111111111,0,0,0.1111111111111111,73.22222222222223,0)" xlink:href="#o"/><use transform="matrix(0.1111111111111111,0,0,0.1111111111111111,95.44444444444446,0)" xlink:href="#p"/></g><path fill="#fff" d="M182-182c0 78-84 86-111 141h115V0H12c-6-101 99-100 120-180 1-22-12-31-33-32-23 0-32 14-35 34l-49-3c5-45 32-70 84-70 51 0 83 22 83 69" id="A"/><g id="f"><use transform="matrix(0.1111111111111111,0,0,0.1111111111111111,0,0)" xlink:href="#A"/><use transform="matrix(0.1111111111111111,0,0,0.1111111111111111,22.22222222222222,0)" xlink:href="#r"/></g><path fill="#fff" d="M24 0v-248h52V0H24" id="B"/><path fill="#fff" d="M135-194c87-1 58 113 63 194h-50c-7-57 23-157-34-157-59 0-34 97-39 157H25l-1-190h47c2 12-1 28 3 38 12-26 28-41 61-42" id="C"/><path fill="#fff" d="M25-224v-37h50v37H25zM25 0v-190h50V0H25" id="D"/><g id="g"><use transform="matrix(0.1111111111111111,0,0,0.1111111111111111,0,0)" xlink:href="#B"/><use transform="matrix(0.1111111111111111,0,0,0.1111111111111111,11.11111111111111,0)" xlink:href="#C"/><use transform="matrix(0.1111111111111111,0,0,0.1111111111111111,35.44444444444444,0)" xlink:href="#D"/><use transform="matrix(0.1111111111111111,0,0,0.1111111111111111,46.55555555555556,0)" xlink:href="#z"/><use transform="matrix(0.1111111111111111,0,0,0.1111111111111111,59.77777777777777,0)" xlink:href="#D"/><use transform="matrix(0.1111111111111111,0,0,0.1111111111111111,70.88888888888889,0)" xlink:href="#n"/><use transform="matrix(0.1111111111111111,0,0,0.1111111111111111,93.11111111111111,0)" xlink:href="#u"/></g><g id="h"><use transform="matrix(0.1111111111111111,0,0,0.1111111111111111,0,0)" xlink:href="#w"/><use transform="matrix(0.1111111111111111,0,0,0.1111111111111111,15.555555555555555,0)" xlink:href="#x"/><use transform="matrix(0.1111111111111111,0,0,0.1111111111111111,39.888888888888886,0)" xlink:href="#u"/><use transform="matrix(0.1111111111111111,0,0,0.1111111111111111,51,0)" xlink:href="#u"/><use transform="matrix(0.1111111111111111,0,0,0.1111111111111111,62.11111111111112,0)" xlink:href="#x"/><use transform="matrix(0.1111111111111111,0,0,0.1111111111111111,86.44444444444444,0)" xlink:href="#y"/><use transform="matrix(0.1111111111111111,0,0,0.1111111111111111,110.77777777777777,0)" xlink:href="#z"/></g><path fill="#fff" d="M23 0v-37h61v-169l-59 37v-38l62-41h46v211h57V0H23" id="E"/><g id="i"><use transform="matrix(0.1111111111111111,0,0,0.1111111111111111,0,0)" xlink:href="#E"/><use transform="matrix(0.1111111111111111,0,0,0.1111111111111111,22.22222222222222,0)" xlink:href="#r"/></g><path fill="#fff" d="M140-251c80 0 125 45 125 126S219 4 139 4C58 4 15-44 15-125s44-126 125-126zm-1 214c52 0 73-35 73-88 0-50-21-86-72-86-52 0-73 35-73 86s22 88 72 88" id="F"/><path fill="#fff" d="M135-194c52 0 70 43 70 98 0 56-19 99-73 100-30 1-46-15-58-35L72 0H24l1-261h50v104c11-23 29-37 60-37zM114-30c31 0 40-27 40-66 0-37-7-63-39-63s-41 28-41 65c0 36 8 64 40 64" id="G"/><path fill="#fff" d="M195-6C206 82 75 100 31 46c-4-6-6-13-8-21l49-6c3 16 16 24 34 25 40 0 42-37 40-79-11 22-30 35-61 35-53 0-70-43-70-97 0-56 18-96 73-97 30 0 46 14 59 34l2-30h47zm-90-29c32 0 41-27 41-63 0-35-9-62-40-62-32 0-39 29-40 63 0 36 9 62 39 62" id="H"/><g id="j"><use transform="matrix(0.1111111111111111,0,0,0.1111111111111111,0,0)" xlink:href="#F"/><use transform="matrix(0.1111111111111111,0,0,0.1111111111111111,31.11111111111111,0)" xlink:href="#C"/><use transform="matrix(0.1111111111111111,0,0,0.1111111111111111,55.44444444444444,0)" xlink:href="#G"/><use transform="matrix(0.1111111111111111,0,0,0.1111111111111111,79.77777777777777,0)" xlink:href="#x"/><use transform="matrix(0.1111111111111111,0,0,0.1111111111111111,104.1111111111111,0)" xlink:href="#n"/><use transform="matrix(0.1111111111111111,0,0,0.1111111111111111,126.33333333333333,0)" xlink:href="#w"/><use transform="matrix(0.1111111111111111,0,0,0.1111111111111111,141.88888888888886,0)" xlink:href="#v"/><use transform="matrix(0.1111111111111111,0,0,0.1111111111111111,166.2222222222222,0)" xlink:href="#D"/><use transform="matrix(0.1111111111111111,0,0,0.1111111111111111,177.33333333333331,0)" xlink:href="#C"/><use transform="matrix(0.1111111111111111,0,0,0.1111111111111111,201.66666666666666,0)" xlink:href="#H"/></g><g id="k"><use transform="matrix(0.1111111111111111,0,0,0.1111111111111111,0,0)" xlink:href="#w"/><use transform="matrix(0.1111111111111111,0,0,0.1111111111111111,15.555555555555555,0)" xlink:href="#p"/><use transform="matrix(0.1111111111111111,0,0,0.1111111111111111,37.77777777777778,0)" xlink:href="#n"/><use transform="matrix(0.1111111111111111,0,0,0.1111111111111111,60,0)" xlink:href="#v"/><use transform="matrix(0.1111111111111111,0,0,0.1111111111111111,84.33333333333333,0)" xlink:href="#D"/><use transform="matrix(0.1111111111111111,0,0,0.1111111111111111,95.44444444444444,0)" xlink:href="#C"/><use transform="matrix(0.1111111111111111,0,0,0.1111111111111111,119.77777777777777,0)" xlink:href="#p"/><use transform="matrix(0.1111111111111111,0,0,0.1111111111111111,142,0)" xlink:href="#o"/><use transform="matrix(0.1111111111111111,0,0,0.1111111111111111,164.22222222222223,0)" xlink:href="#o"/></g></defs></g></svg>