<svg xmlns="http://www.w3.org/2000/svg" xmlns:xlink="http://www.w3.org/1999/xlink" xmlns:lucid="lucid" width="1723" height="600.92"><g transform="translate(341.5 -140.58349999999973)" lucid:page-tab-id="0_0"><path d="M-1696 0h3456v1360h-3456z" fill="#fff"/><path d="M-320 205.97v-37.9a6 6 0 0 1 6-6h554v43.9zM240 162.08h560v43.9H240zM800 162.08h554a6 6 0 0 1 6 6v37.9H800z" stroke="#000" stroke-width="3" fill="#fff"/><path d="M240 720h-554a6 6 0 0 1-6-6V205.97h560zM240 205.97h560V720H240zM1360 205.97V714a6 6 0 0 1-6 6H800V205.97z" stroke="#000" stroke-width="3" fill="none"/><use xlink:href="#a" transform="matrix(1,0,0,1,-320,162.08349999999973) translate(170.04448784722223 29.22222222222222)"/><use xlink:href="#b" transform="matrix(1,0,0,1,-320,162.08349999999973) translate(318.62196180555554 29.22222222222222)"/><use xlink:href="#c" transform="matrix(1,0,0,1,240,162.08349999999973) translate(169.90342881944446 29.22222222222222)"/><use xlink:href="#d" transform="matrix(1,0,0,1,240,162.08349999999973) translate(231.54622395833334 29.22222222222222)"/><use xlink:href="#e" transform="matrix(1,0,0,1,240,162.08349999999973) translate(318.76302083333337 29.22222222222222)"/><use xlink:href="#f" transform="matrix(1,0,0,1,800,162.08349999999973) translate(74.82259114583334 29.22222222222222)"/><use xlink:href="#g" transform="matrix(1,0,0,1,800,162.08349999999973) translate(203.63769531249997 29.22222222222222)"/><use xlink:href="#h" transform="matrix(1,0,0,1,800,162.08349999999973) translate(255.43457031249997 29.22222222222222)"/><use xlink:href="#e" transform="matrix(1,0,0,1,800,162.08349999999973) translate(413.84385850694446 29.22222222222222)"/><path d="M-300 226a6 6 0 0 1 6-6h508a6 6 0 0 1 6 6v255.03a6 6 0 0 1-6 6h-508a6 6 0 0 1-6-6z" stroke="#000" stroke-opacity="0" stroke-width="3" fill="#fff" fill-opacity="0"/><use xlink:href="#i" transform="matrix(1,0,0,1,-295,224.99999999999997) translate(0 28.502604166666668)"/><use xlink:href="#j" transform="matrix(1,0,0,1,-295,224.99999999999997) translate(109.66145833333334 28.502604166666668)"/><use xlink:href="#k" transform="matrix(1,0,0,1,-295,224.99999999999997) translate(260.75520833333337 28.502604166666668)"/><use xlink:href="#l" transform="matrix(1,0,0,1,-295,224.99999999999997) translate(375.31250000000006 28.502604166666668)"/><use xlink:href="#m" transform="matrix(1,0,0,1,-295,224.99999999999997) translate(0 64.81770833333334)"/><use xlink:href="#n" transform="matrix(1,0,0,1,-295,224.99999999999997) translate(105.53385416666667 64.81770833333334)"/><use xlink:href="#o" transform="matrix(1,0,0,1,-295,224.99999999999997) translate(196.9140625 64.81770833333334)"/><use xlink:href="#p" transform="matrix(1,0,0,1,-295,224.99999999999997) translate(367.1354166666667 64.81770833333334)"/><use xlink:href="#q" transform="matrix(1,0,0,1,-295,224.99999999999997) translate(446.4453125 64.81770833333334)"/><use xlink:href="#r" transform="matrix(1,0,0,1,-295,224.99999999999997) translate(0 101.13281250000001)"/><use xlink:href="#s" transform="matrix(1,0,0,1,-295,224.99999999999997) translate(63.723958333333336 101.13281250000001)"/><use xlink:href="#t" transform="matrix(1,0,0,1,-295,224.99999999999997) translate(165.65104166666666 101.13281250000001)"/><use xlink:href="#u" transform="matrix(1,0,0,1,-295,224.99999999999997) translate(280.7421875 101.13281250000001)"/><path d="M820 198.97a6 6 0 0 1 6-6h508a6 6 0 0 1 6 6V461a6 6 0 0 1-6 6H826a6 6 0 0 1-6-6z" stroke="#000" stroke-opacity="0" stroke-width="3" fill="#fff" fill-opacity="0"/><g><use xlink:href="#v" transform="matrix(1,0,0,1,825,197.97238888888864) translate(0 53.34635416666667)"/><use xlink:href="#w" transform="matrix(1,0,0,1,825,197.97238888888864) translate(73.7890625 53.34635416666667)"/><use xlink:href="#x" transform="matrix(1,0,0,1,825,197.97238888888864) translate(179.01041666666669 53.34635416666667)"/><use xlink:href="#y" transform="matrix(1,0,0,1,825,197.97238888888864) translate(239.37500000000003 53.34635416666667)"/><use xlink:href="#z" transform="matrix(1,0,0,1,825,197.97238888888864) translate(357.0572916666667 53.34635416666667)"/><use xlink:href="#A" transform="matrix(1,0,0,1,825,197.97238888888864) translate(0 89.66145833333334)"/><use xlink:href="#B" transform="matrix(1,0,0,1,825,197.97238888888864) translate(154.83072916666669 89.66145833333334)"/><use xlink:href="#C" transform="matrix(1,0,0,1,825,197.97238888888864) translate(303.90625000000006 89.66145833333334)"/><use xlink:href="#D" transform="matrix(1,0,0,1,825,197.97238888888864) translate(392.14843750000006 89.66145833333334)"/><use xlink:href="#E" transform="matrix(1,0,0,1,825,197.97238888888864) translate(439.81770833333337 89.66145833333334)"/><use xlink:href="#F" transform="matrix(1,0,0,1,825,197.97238888888864) translate(0 125.97656250000001)"/><use xlink:href="#G" transform="matrix(1,0,0,1,825,197.97238888888864) translate(88.76302083333333 125.97656250000001)"/><use xlink:href="#r" transform="matrix(1,0,0,1,825,197.97238888888864) translate(121.2109375 125.97656250000001)"/><use xlink:href="#H" transform="matrix(1,0,0,1,825,197.97238888888864) translate(184.93489583333334 125.97656250000001)"/><use xlink:href="#I" transform="matrix(1,0,0,1,825,197.97238888888864) translate(0 162.29166666666666)"/><use xlink:href="#J" transform="matrix(1,0,0,1,825,197.97238888888864) translate(163.34635416666669 162.29166666666666)"/><use xlink:href="#K" transform="matrix(1,0,0,1,825,197.97238888888864) translate(217.81250000000003 162.29166666666666)"/><use xlink:href="#L" transform="matrix(1,0,0,1,825,197.97238888888864) translate(0 198.60677083333334)"/><use xlink:href="#M" transform="matrix(1,0,0,1,825,197.97238888888864) translate(0 234.92187500000003)"/></g><path d="M260 211.97a6 6 0 0 1 6-6h508a6 6 0 0 1 6 6V414a6 6 0 0 1-6 6H266a6 6 0 0 1-6-6z" stroke="#000" stroke-opacity="0" stroke-width="3" fill="#fff" fill-opacity="0"/><g><use xlink:href="#N" transform="matrix(1,0,0,1,265,210.97238888888864) translate(0 41.31510416666667)"/><use xlink:href="#O" transform="matrix(1,0,0,1,265,210.97238888888864) translate(45.93750000000001 41.31510416666667)"/><use xlink:href="#P" transform="matrix(1,0,0,1,265,210.97238888888864) translate(85.57291666666669 41.31510416666667)"/><use xlink:href="#J" transform="matrix(1,0,0,1,265,210.97238888888864) translate(216.41927083333337 41.31510416666667)"/><use xlink:href="#Q" transform="matrix(1,0,0,1,265,210.97238888888864) translate(270.8854166666667 41.31510416666667)"/><use xlink:href="#R" transform="matrix(1,0,0,1,265,210.97238888888864) translate(419.0104166666667 41.31510416666667)"/><use xlink:href="#S" transform="matrix(1,0,0,1,265,210.97238888888864) translate(461.96614583333337 41.31510416666667)"/><use xlink:href="#T" transform="matrix(1,0,0,1,265,210.97238888888864) translate(0 77.63020833333334)"/><use xlink:href="#U" transform="matrix(1,0,0,1,265,210.97238888888864) translate(81.11979166666667 77.63020833333334)"/><use xlink:href="#V" transform="matrix(1,0,0,1,265,210.97238888888864) translate(129.9609375 77.63020833333334)"/><use xlink:href="#W" transform="matrix(1,0,0,1,265,210.97238888888864) translate(300.71614583333337 77.63020833333334)"/><use xlink:href="#J" transform="matrix(1,0,0,1,265,210.97238888888864) translate(384.37500000000006 77.63020833333334)"/><use xlink:href="#X" transform="matrix(1,0,0,1,265,210.97238888888864) translate(438.84114583333337 77.63020833333334)"/><use xlink:href="#Y" transform="matrix(1,0,0,1,265,210.97238888888864) translate(0 113.94531250000001)"/><use xlink:href="#Z" transform="matrix(1,0,0,1,265,210.97238888888864) translate(119.98697916666669 113.94531250000001)"/><use xlink:href="#L" transform="matrix(1,0,0,1,265,210.97238888888864) translate(0 150.26041666666669)"/><use xlink:href="#M" transform="matrix(1,0,0,1,265,210.97238888888864) translate(0 186.57552083333334)"/></g><path d="M-300 406a6 6 0 0 1 6-6h448a6 6 0 0 1 6 6v108a6 6 0 0 1-6 6h-448a6 6 0 0 1-6-6z" stroke="#000" stroke-opacity="0" stroke-width="2" fill="#fff" fill-opacity="0"/><g><use xlink:href="#aa" transform="matrix(1,0,0,1,-295,405) translate(0 28.502604166666668)"/><use xlink:href="#ab" transform="matrix(1,0,0,1,-295,405) translate(58.11197916666667 28.502604166666668)"/><use xlink:href="#ac" transform="matrix(1,0,0,1,-295,405) translate(87.3828125 28.502604166666668)"/><use xlink:href="#r" transform="matrix(1,0,0,1,-295,405) translate(215.67708333333334 28.502604166666668)"/><use xlink:href="#ad" transform="matrix(1,0,0,1,-295,405) translate(279.4010416666667 28.502604166666668)"/><use xlink:href="#z" transform="matrix(1,0,0,1,-295,405) translate(341.26302083333337 28.502604166666668)"/><use xlink:href="#ae" transform="matrix(1,0,0,1,-295,405) translate(0 64.81770833333334)"/><use xlink:href="#af" transform="matrix(1,0,0,1,-295,405) translate(70.9375 64.81770833333334)"/><use xlink:href="#ag" transform="matrix(1,0,0,1,-295,405) translate(0 101.13281250000001)"/><use xlink:href="#aa" transform="matrix(1,0,0,1,-295,405) translate(0 137.44791666666669)"/><use xlink:href="#ah" transform="matrix(1,0,0,1,-295,405) translate(58.11197916666667 137.44791666666669)"/><use xlink:href="#ai" transform="matrix(1,0,0,1,-295,405) translate(87.3828125 137.44791666666669)"/><use xlink:href="#r" transform="matrix(1,0,0,1,-295,405) translate(179.15364583333331 137.44791666666669)"/><use xlink:href="#aj" transform="matrix(1,0,0,1,-295,405) translate(242.87760416666666 137.44791666666669)"/><use xlink:href="#z" transform="matrix(1,0,0,1,-295,405) translate(398.95833333333337 137.44791666666669)"/><use xlink:href="#ak" transform="matrix(1,0,0,1,-295,405) translate(0 173.76302083333334)"/><use xlink:href="#al" transform="matrix(1,0,0,1,-295,405) translate(45.911458333333336 173.76302083333334)"/><use xlink:href="#am" transform="matrix(1,0,0,1,-295,405) translate(108.25520833333334 173.76302083333334)"/></g><path d="M280 406a6 6 0 0 1 6-6h468a6 6 0 0 1 6 6v248a6 6 0 0 1-6 6H286a6 6 0 0 1-6-6z" stroke="#000" stroke-opacity="0" stroke-width="2" fill="#fff" fill-opacity="0"/><g><use xlink:href="#aa" transform="matrix(1,0,0,1,285,405) translate(0 28.502604166666668)"/><use xlink:href="#ab" transform="matrix(1,0,0,1,285,405) translate(58.11197916666667 28.502604166666668)"/><use xlink:href="#an" transform="matrix(1,0,0,1,285,405) translate(87.3828125 28.502604166666668)"/><use xlink:href="#r" transform="matrix(1,0,0,1,285,405) translate(148.30729166666669 28.502604166666668)"/><use xlink:href="#ao" transform="matrix(1,0,0,1,285,405) translate(212.03125000000003 28.502604166666668)"/><use xlink:href="#ag" transform="matrix(1,0,0,1,285,405) translate(0 64.81770833333334)"/><use xlink:href="#aa" transform="matrix(1,0,0,1,285,405) translate(0 101.13281250000001)"/><use xlink:href="#ah" transform="matrix(1,0,0,1,285,405) translate(58.11197916666667 101.13281250000001)"/><use xlink:href="#ap" transform="matrix(1,0,0,1,285,405) translate(87.3828125 101.13281250000001)"/><use xlink:href="#aq" transform="matrix(1,0,0,1,285,405) translate(162.59114583333331 101.13281250000001)"/><use xlink:href="#F" transform="matrix(1,0,0,1,285,405) translate(224.86979166666666 101.13281250000001)"/><use xlink:href="#R" transform="matrix(1,0,0,1,285,405) translate(313.6328125 101.13281250000001)"/><use xlink:href="#ar" transform="matrix(1,0,0,1,285,405) translate(356.5885416666667 101.13281250000001)"/><use xlink:href="#as" transform="matrix(1,0,0,1,285,405) translate(0 137.44791666666669)"/><use xlink:href="#at" transform="matrix(1,0,0,1,285,405) translate(178.12500000000003 137.44791666666669)"/><use xlink:href="#au" transform="matrix(1,0,0,1,285,405) translate(0 173.76302083333334)"/><use xlink:href="#av" transform="matrix(1,0,0,1,285,405) translate(0 210.07812500000003)"/><use xlink:href="#aw" transform="matrix(1,0,0,1,285,405) translate(58.11197916666667 210.07812500000003)"/><use xlink:href="#ax" transform="matrix(1,0,0,1,285,405) translate(87.3828125 210.07812500000003)"/><use xlink:href="#aq" transform="matrix(1,0,0,1,285,405) translate(155.84635416666669 210.07812500000003)"/><use xlink:href="#F" transform="matrix(1,0,0,1,285,405) translate(218.12500000000003 210.07812500000003)"/><use xlink:href="#R" transform="matrix(1,0,0,1,285,405) translate(306.88802083333337 210.07812500000003)"/><use xlink:href="#ar" transform="matrix(1,0,0,1,285,405) translate(349.84375000000006 210.07812500000003)"/><use xlink:href="#ay" transform="matrix(1,0,0,1,285,405) translate(0 246.3932291666667)"/><use xlink:href="#az" transform="matrix(1,0,0,1,285,405) translate(146.13281250000003 246.3932291666667)"/><use xlink:href="#aA" transform="matrix(1,0,0,1,285,405) translate(314.64843750000006 246.3932291666667)"/></g><path d="M820 440.2a6 6 0 0 1 6-6h508a6 6 0 0 1 6 6v179.6a6 6 0 0 1-6 6H826a6 6 0 0 1-6-6z" stroke="#000" stroke-opacity="0" stroke-width="2" fill="#fff" fill-opacity="0"/><g><use xlink:href="#aa" transform="matrix(1,0,0,1,825,439.2122395833333) translate(0 34.19010416666667)"/><use xlink:href="#ab" transform="matrix(1,0,0,1,825,439.2122395833333) translate(58.11197916666667 34.19010416666667)"/><use xlink:href="#aB" transform="matrix(1,0,0,1,825,439.2122395833333) translate(87.3828125 34.19010416666667)"/><use xlink:href="#J" transform="matrix(1,0,0,1,825,439.2122395833333) translate(186.9921875 34.19010416666667)"/><use xlink:href="#aC" transform="matrix(1,0,0,1,825,439.2122395833333) translate(241.45833333333334 34.19010416666667)"/><use xlink:href="#ar" transform="matrix(1,0,0,1,825,439.2122395833333) translate(355.9765625 34.19010416666667)"/><use xlink:href="#as" transform="matrix(1,0,0,1,825,439.2122395833333) translate(0 70.50520833333334)"/><use xlink:href="#at" transform="matrix(1,0,0,1,825,439.2122395833333) translate(178.12500000000003 70.50520833333334)"/><use xlink:href="#ag" transform="matrix(1,0,0,1,825,439.2122395833333) translate(0 106.82031250000001)"/><use xlink:href="#aD" transform="matrix(1,0,0,1,825,439.2122395833333) translate(0 143.13541666666669)"/><use xlink:href="#aE" transform="matrix(1,0,0,1,825,439.2122395833333) translate(58.11197916666667 143.13541666666669)"/><use xlink:href="#aF" transform="matrix(1,0,0,1,825,439.2122395833333) translate(87.3828125 143.13541666666669)"/><use xlink:href="#aG" transform="matrix(1,0,0,1,825,439.2122395833333) translate(186.9921875 143.13541666666669)"/><use xlink:href="#aH" transform="matrix(1,0,0,1,825,439.2122395833333) translate(241.45833333333334 143.13541666666669)"/><use xlink:href="#aI" transform="matrix(1,0,0,1,825,439.2122395833333) translate(355.9765625 143.13541666666669)"/><use xlink:href="#aJ" transform="matrix(1,0,0,1,825,439.2122395833333) translate(0 179.45052083333334)"/><use xlink:href="#aK" transform="matrix(1,0,0,1,825,439.2122395833333) translate(146.13281250000003 179.45052083333334)"/><use xlink:href="#aL" transform="matrix(1,0,0,1,825,439.2122395833333) translate(314.64843750000006 179.45052083333334)"/></g><defs><path fill="#333" d="M1292-934c62 161 62 379 0 540-91 237-280 408-598 408S186-158 94-394c-62-161-63-379 0-540 92-237 282-409 600-409 317 0 507 173 598 409zM694-210c263 0 376-186 376-455 0-268-114-455-376-455-263 0-377 187-377 455 0 269 113 455 377 455" id="aM"/><path fill="#333" d="M582-811c-92 1-152 44-204 95V0H124v-993c65 5 150-14 196 11 30 17 27 71 39 107 74-72 158-134 301-134 225 0 332 151 332 377V0H738v-632c0-109-49-180-156-179" id="aN"/><path fill="#333" d="M619 15c-128 0-198-56-256-127-11 50-5 112-70 112H124v-1437h254v561c71-71 156-133 289-133 266 0 369 213 369 487 0 241-87 415-246 498-51 26-108 39-171 39zm155-527c0-166-35-299-195-299-102 0-149 49-201 111v438c43 54 92 85 176 85 177 0 220-149 220-335" id="aO"/><path fill="#333" d="M352-974c116-47 283-48 399 0 177 72 288 230 288 475 0 247-110 405-288 478-116 48-283 48-399 0C173-94 62-251 62-499c0-246 112-403 290-475zm-28 477c0 189 54 318 228 318 172 0 225-131 225-318s-53-318-225-318c-174 0-228 130-228 318" id="aP"/><path fill="#333" d="M534-1012c240 0 371 147 371 387V0c-80-7-186 24-201-53l-22-66C598-47 516 18 362 15 183 12 73-75 73-255c0-177 142-239 303-283 75-20 169-31 281-34 9-142-26-239-155-239-97 0-149 37-209 70-49 27-108 2-128-33l-46-80c103-96 231-158 415-158zM316-268c-2 80 48 110 125 110 107 0 156-41 216-100v-160c-111 5-199 15-269 48-43 21-70 49-72 102" id="aQ"/><path fill="#333" d="M545-767c-109 4-148 72-181 151V0H110v-993c66 5 161-12 204 14 28 28 23 102 33 150 53-94 116-183 244-183 43 0 79 10 107 31l-19 190c-6 59-87 22-134 24" id="aR"/><path fill="#333" d="M483-1012c112 0 179 37 238 92v-517h254V0H818c-73 2-64-82-83-135C661-54 570 15 422 15 157 15 63-214 63-494c0-232 92-397 247-478 52-26 110-40 173-40zM325-494c0 166 29 308 186 308 106 0 161-51 210-111v-438c-43-55-93-85-178-85-170 0-218 146-218 326" id="aS"/><path fill="#333" d="M379-993V0H125v-993h254zm-132-444c97 0 163 62 163 159 0 96-66 158-163 158-94 0-157-63-157-158s62-159 157-159" id="aT"/><path fill="#333" d="M237-422C149-472 82-557 82-689c0-216 159-321 379-321 84 0 155 20 212 50h276c-4 65 18 134-54 149l-78 16c77 287-142 467-449 420-41 23-55 80-11 98 131 54 363 5 481 88 55 38 98 94 94 188-7 175-124 268-266 319-160 56-414 25-516-51C94 225 47 170 47 85c0-102 65-154 143-188-45-27-81-71-78-144 4-90 61-138 125-175zm238 589c116 0 216-18 223-125-14-108-163-84-274-96-28-3-56-4-83-7-38 25-74 57-74 114 0 100 100 114 208 114zM312-683c0 93 51 153 149 153 99 0 150-59 150-153 0-96-50-151-150-151-99 0-149 56-149 151" id="aU"/><g id="a"><use transform="matrix(0.014105902777777776,0,0,0.014105902777777776,0,0)" xlink:href="#aM"/><use transform="matrix(0.014105902777777776,0,0,0.014105902777777776,19.53667534722222,0)" xlink:href="#aN"/><use transform="matrix(0.014105902777777776,0,0,0.014105902777777776,35.0390625,0)" xlink:href="#aO"/><use transform="matrix(0.014105902777777776,0,0,0.014105902777777776,50.54144965277778,0)" xlink:href="#aP"/><use transform="matrix(0.014105902777777776,0,0,0.014105902777777776,66.07204861111111,0)" xlink:href="#aQ"/><use transform="matrix(0.014105902777777776,0,0,0.014105902777777776,80.33311631944444,0)" xlink:href="#aR"/><use transform="matrix(0.014105902777777776,0,0,0.014105902777777776,90.24956597222223,0)" xlink:href="#aS"/><use transform="matrix(0.014105902777777776,0,0,0.014105902777777776,105.751953125,0)" xlink:href="#aT"/><use transform="matrix(0.014105902777777776,0,0,0.014105902777777776,112.84722222222223,0)" xlink:href="#aN"/><use transform="matrix(0.014105902777777776,0,0,0.014105902777777776,128.349609375,0)" xlink:href="#aU"/></g><path fill="#333" d="M615 15c-112 0-178-37-238-91v398H123V-993c65 5 149-11 197 11 31 24 28 81 42 121 74-81 161-151 314-151 265 0 360 229 360 508 0 232-93 399-248 480-52 26-109 39-173 39zm159-519c0-165-29-307-185-307-108 0-158 47-212 111v440c43 53 94 83 178 83 171 0 219-146 219-327" id="aV"/><path fill="#333" d="M583-811c-92 1-152 44-204 95V0H125v-1437h254v544c73-64 150-119 282-116 225 4 332 151 332 377V0H739v-632c0-109-49-180-156-179" id="aW"/><path fill="#333" d="M80-702c6-234 206-338 457-298 93 15 166 59 220 115-26 37-46 85-79 115-8 4-17 7-28 7-73 0-113-61-203-61-94 0-160 79-107 152 93 83 270 88 356 179 39 42 70 95 69 176C761-63 553 47 286 6 191-9 109-52 51-106c29-40 47-92 85-123 77-33 115 38 178 55 22 6 48 12 80 12 81 0 133-35 133-110 0-69-60-91-116-111C252-440 75-483 80-702" id="aX"/><path fill="#333" d="M960-149C871-45 736 15 551 15 231 15 63-191 63-518c0-229 113-378 277-452 59-26 125-39 199-39 278 0 430 170 430 452 0 55-4 97-59 97H316c14 166 83 276 257 279 98 1 159-38 221-71 33-18 71-20 93 9zM741-612c-4-130-65-216-197-216-140 0-203 89-223 216h420" id="aY"/><g id="b"><use transform="matrix(0.014105902777777776,0,0,0.014105902777777776,0,0)" xlink:href="#aV"/><use transform="matrix(0.014105902777777776,0,0,0.014105902777777776,15.502387152777777,0)" xlink:href="#aW"/><use transform="matrix(0.014105902777777776,0,0,0.014105902777777776,31.004774305555554,0)" xlink:href="#aQ"/><use transform="matrix(0.014105902777777776,0,0,0.014105902777777776,45.265842013888886,0)" xlink:href="#aX"/><use transform="matrix(0.014105902777777776,0,0,0.014105902777777776,56.79036458333333,0)" xlink:href="#aY"/></g><path fill="#333" d="M1037-902c0 300-189 436-495 441H378V0H115v-1328h427c303 4 495 131 495 426zm-263 0c0-143-81-224-232-224H378v461h164c156 2 232-87 232-237" id="aZ"/><path fill="#333" d="M379-1437V0H125v-1437h254" id="ba"/><path fill="#333" d="M680-72c-61 52-150 86-256 87-172 2-267-108-267-279v-542c-63-2-138 16-138-53v-101l151-29 53-262c11-66 119-33 188-41v306h245v180H411v525c0 54 23 90 73 93 51 3 85-62 119-7" id="bb"/><g id="c"><use transform="matrix(0.014105902777777776,0,0,0.014105902777777776,0,0)" xlink:href="#aZ"/><use transform="matrix(0.014105902777777776,0,0,0.014105902777777776,15.375434027777777,0)" xlink:href="#aT"/><use transform="matrix(0.014105902777777776,0,0,0.014105902777777776,22.470703125,0)" xlink:href="#ba"/><use transform="matrix(0.014105902777777776,0,0,0.014105902777777776,29.565972222222218,0)" xlink:href="#aP"/><use transform="matrix(0.014105902777777776,0,0,0.014105902777777776,45.09657118055556,0)" xlink:href="#bb"/></g><path fill="#333" d="M439 15c-225-4-332-150-332-377v-631h254v631c0 110 48 181 156 180 91-1 152-46 204-95v-716h254V0c-65-5-152 14-197-12-30-17-26-70-39-106C664-46 580 18 439 15" id="bc"/><g id="d"><use transform="matrix(0.014105902777777776,0,0,0.014105902777777776,0,0)" xlink:href="#aR"/><use transform="matrix(0.014105902777777776,0,0,0.014105902777777776,9.916449652777777,0)" xlink:href="#aP"/><use transform="matrix(0.014105902777777776,0,0,0.014105902777777776,25.447048611111107,0)" xlink:href="#ba"/><use transform="matrix(0.014105902777777776,0,0,0.014105902777777776,32.54231770833333,0)" xlink:href="#ba"/><use transform="matrix(0.014105902777777776,0,0,0.014105902777777776,39.63758680555555,0)" xlink:href="#aP"/><use transform="matrix(0.014105902777777776,0,0,0.014105902777777776,55.168185763888886,0)" xlink:href="#bc"/><use transform="matrix(0.014105902777777776,0,0,0.014105902777777776,70.67057291666666,0)" xlink:href="#bb"/></g><g id="e"><use transform="matrix(0.014105902777777776,0,0,0.014105902777777776,0,0)" xlink:href="#aV"/><use transform="matrix(0.014105902777777776,0,0,0.014105902777777776,15.502387152777777,0)" xlink:href="#aW"/><use transform="matrix(0.014105902777777776,0,0,0.014105902777777776,31.004774305555554,0)" xlink:href="#aQ"/><use transform="matrix(0.014105902777777776,0,0,0.014105902777777776,45.265842013888886,0)" xlink:href="#aX"/><use transform="matrix(0.014105902777777776,0,0,0.014105902777777776,56.79036458333333,0)" xlink:href="#aY"/></g><path fill="#333" d="M928-1328v209H382v351h425v201H382v358h547L928 0H118v-1328h810" id="bd"/><path fill="#333" d="M304-512L28-993h244c37 0 50 8 62 32l157 304c48-96 86-201 133-300 12-25 33-36 56-36h233L636-525 925 0H681c-36 1-60-23-71-46L452-361c-48 105-95 210-143 315-15 20-32 47-67 46H16" id="be"/><g id="f"><use transform="matrix(0.014105902777777776,0,0,0.014105902777777776,0,0)" xlink:href="#bd"/><use transform="matrix(0.014105902777777776,0,0,0.014105902777777776,14.091796874999998,0)" xlink:href="#be"/><use transform="matrix(0.014105902777777776,0,0,0.014105902777777776,27.365451388888886,0)" xlink:href="#aV"/><use transform="matrix(0.014105902777777776,0,0,0.014105902777777776,42.867838541666664,0)" xlink:href="#aQ"/><use transform="matrix(0.014105902777777776,0,0,0.014105902777777776,57.12890625,0)" xlink:href="#aN"/><use transform="matrix(0.014105902777777776,0,0,0.014105902777777776,72.63129340277777,0)" xlink:href="#aX"/><use transform="matrix(0.014105902777777776,0,0,0.014105902777777776,84.15581597222221,0)" xlink:href="#aT"/><use transform="matrix(0.014105902777777776,0,0,0.014105902777777776,91.25108506944443,0)" xlink:href="#aP"/><use transform="matrix(0.014105902777777776,0,0,0.014105902777777776,106.78168402777776,0)" xlink:href="#aN"/></g><g id="g"><use transform="matrix(0.014105902777777776,0,0,0.014105902777777776,0,0)" xlink:href="#aQ"/><use transform="matrix(0.014105902777777776,0,0,0.014105902777777776,14.261067708333332,0)" xlink:href="#aN"/><use transform="matrix(0.014105902777777776,0,0,0.014105902777777776,29.763454861111107,0)" xlink:href="#aS"/></g><path fill="#333" d="M559-811c-82 0-133 41-177 88V0H128v-993c65 5 150-14 196 11 30 16 27 69 39 104 67-68 139-130 270-131 135-1 210 82 248 184 57-113 162-184 324-184 235 0 350 140 350 377V0h-254v-632c0-119-53-179-160-179-110 0-172 67-172 179V0H715v-632c1-120-46-179-156-179" id="bf"/><path fill="#333" d="M761-993c0 75 0 151-31 199L345-194h407V0H55c0-74-9-150 33-192l384-607H79v-194h682" id="bg"/><g id="h"><use transform="matrix(0.014105902777777776,0,0,0.014105902777777776,0,0)" xlink:href="#aP"/><use transform="matrix(0.014105902777777776,0,0,0.014105902777777776,15.530598958333332,0)" xlink:href="#aV"/><use transform="matrix(0.014105902777777776,0,0,0.014105902777777776,30.920138888888886,0)" xlink:href="#bb"/><use transform="matrix(0.014105902777777776,0,0,0.014105902777777776,40.93532986111111,0)" xlink:href="#aT"/><use transform="matrix(0.014105902777777776,0,0,0.014105902777777776,48.03059895833333,0)" xlink:href="#bf"/><use transform="matrix(0.014105902777777776,0,0,0.014105902777777776,71.5310329861111,0)" xlink:href="#aT"/><use transform="matrix(0.014105902777777776,0,0,0.014105902777777776,78.62630208333331,0)" xlink:href="#bg"/><use transform="matrix(0.014105902777777776,0,0,0.014105902777777776,89.7417534722222,0)" xlink:href="#aQ"/><use transform="matrix(0.014105902777777776,0,0,0.014105902777777776,103.73480902777776,0)" xlink:href="#bb"/><use transform="matrix(0.014105902777777776,0,0,0.014105902777777776,113.74999999999997,0)" xlink:href="#aT"/><use transform="matrix(0.014105902777777776,0,0,0.014105902777777776,120.84526909722221,0)" xlink:href="#aP"/><use transform="matrix(0.014105902777777776,0,0,0.014105902777777776,136.37586805555554,0)" xlink:href="#aN"/></g><path fill="#333" d="M1128-1036c0 321-241 464-585 461H371V0H201v-1462h379c365 0 548 142 548 426zm-176 8c0-218-150-286-391-287H371v594h153c270-3 428-62 428-307" id="bh"/><path fill="#333" d="M995-51C878-2 799 19 639 20c-329 2-524-221-524-559 0-326 172-577 481-577 278 0 451 210 446 493v105H287c4 242 121 392 358 393 118 0 235-25 350-74v148zM864-653c2-195-85-324-270-324-190 0-288 139-303 324h573" id="bi"/><path fill="#333" d="M340-893c80-153 237-262 467-211l-23 154c-45-10-85-15-120-15-184-3-322 182-322 377V0H176v-1096h137l19 203h8" id="bj"/><path fill="#333" d="M575-1430c-169 0-190 146-184 334h279v129H391V0H225v-967H29v-75l196-60c-15-299 97-465 353-465 58 0 126 12 204 35l-43 133c-64-21-119-31-164-31" id="bk"/><path fill="#333" d="M621-1116c316 0 501 239 501 567 0 339-180 575-508 569S119-212 115-549c-4-339 178-567 506-567zm-5 141c-239 0-329 168-329 426 0 255 93 430 331 430s332-174 332-430-95-426-334-426" id="bl"/><path fill="#333" d="M1368-1116c259 2 372 131 371 401V0h-166v-713c0-168-66-262-230-262-221 0-303 131-303 363V0H874v-713c-1-169-66-262-231-262-235 0-301 142-301 400V0H176v-1096h135l27 150h8c56-99 174-170 324-170 171 0 283 62 336 186h8c60-108 189-187 354-186" id="bm"/><g id="i"><use transform="matrix(0.013020833333333334,0,0,0.013020833333333334,0,0)" xlink:href="#bh"/><use transform="matrix(0.013020833333333334,0,0,0.013020833333333334,16.0546875,0)" xlink:href="#bi"/><use transform="matrix(0.013020833333333334,0,0,0.013020833333333334,31.015625,0)" xlink:href="#bj"/><use transform="matrix(0.013020833333333334,0,0,0.013020833333333334,41.90104166666667,0)" xlink:href="#bk"/><use transform="matrix(0.013020833333333334,0,0,0.013020833333333334,50.93750000000001,0)" xlink:href="#bl"/><use transform="matrix(0.013020833333333334,0,0,0.013020833333333334,67.04427083333334,0)" xlink:href="#bj"/><use transform="matrix(0.013020833333333334,0,0,0.013020833333333334,77.92968750000001,0)" xlink:href="#bm"/></g><path fill="#333" d="M694-1116c270 0 399 125 398 401V0H926v-709c-1-177-76-266-252-266-250 0-332 133-332 400V0H176v-1096h135l27 150h8c62-101 190-170 348-170" id="bn"/><path fill="#333" d="M686 20c-159 0-273-61-344-161h-12L295 0H176v-1556h166c-2 198 6 423-8 606h8c77-109 192-164 344-164 310 0 455 234 455 565 0 329-147 569-455 569zm283-571c0-257-72-424-307-424-256 0-320 146-320 426s68 430 324 430c228 0 303-184 303-432" id="bo"/><path fill="#333" d="M588-1114c260 0 384 106 385 366V0H850l-33-156h-8C708-34 639 17 442 20 231 23 94-94 94-303c0-221 177-337 531-348l186-6c11-203-40-320-233-320-91 0-195 28-310 84l-51-127c97-53 229-94 371-94zM268-301c-1 123 81 184 207 184 203 0 334-120 332-323v-99c-257 14-539-7-539 238" id="bp"/><path fill="#333" d="M115-545c0-330 146-571 454-571 149 0 263 54 342 162h13c-20-185-8-401-11-602h166V0H944l-22-147h-9C836-36 722 20 569 20c-309 0-454-234-454-565zm172 2c0 249 78 424 303 424 257 0 327-150 323-426-4-282-68-432-325-432-220 0-301 191-301 434" id="bq"/><path fill="#333" d="M342 0H176v-1096h166V0zm-82-1282c-61 0-98-43-98-111 0-69 36-110 98-110 59 0 98 43 98 110s-39 111-98 111" id="br"/><path fill="#333" d="M125-741c0-247 161-377 414-375 57 0 109 7 155 20h379v105l-203 24c37 48 72 129 72 219 0 255-227 390-504 345-71 37-106 84-106 141 0 78 66 88 164 88h194c219-1 369 87 369 293 0 121-49 213-146 277s-239 96-426 96c-250 0-448-83-448-306C39 36 147-58 283-86c-52-23-102-79-99-152 4-104 57-143 133-192-107-42-192-164-192-311zM438-25c-143-1-242 70-239 209s131 181 290 181c139 0 242-21 309-63s101-98 101-169c0-147-88-158-262-158H438zm94-970c-158 0-243 88-243 250 0 153 93 233 246 233 162 0 243-79 243-236 0-165-82-247-246-247" id="bs"/><g id="j"><use transform="matrix(0.013020833333333334,0,0,0.013020833333333334,0,0)" xlink:href="#bl"/><use transform="matrix(0.013020833333333334,0,0,0.013020833333333334,16.106770833333336,0)" xlink:href="#bn"/><use transform="matrix(0.013020833333333334,0,0,0.013020833333333334,32.473958333333336,0)" xlink:href="#bo"/><use transform="matrix(0.013020833333333334,0,0,0.013020833333333334,48.81510416666667,0)" xlink:href="#bl"/><use transform="matrix(0.013020833333333334,0,0,0.013020833333333334,64.921875,0)" xlink:href="#bp"/><use transform="matrix(0.013020833333333334,0,0,0.013020833333333334,79.75260416666667,0)" xlink:href="#bj"/><use transform="matrix(0.013020833333333334,0,0,0.013020833333333334,90.10416666666667,0)" xlink:href="#bq"/><use transform="matrix(0.013020833333333334,0,0,0.013020833333333334,106.4453125,0)" xlink:href="#br"/><use transform="matrix(0.013020833333333334,0,0,0.013020833333333334,113.19010416666667,0)" xlink:href="#bn"/><use transform="matrix(0.013020833333333334,0,0,0.013020833333333334,129.55729166666669,0)" xlink:href="#bs"/></g><path fill="#333" d="M287-543c-1 247 91 418 323 418 91 0 185-20 281-59v147C818 1 725 20 614 20c-329 0-499-221-499-561 0-349 172-575 510-575 96 0 221 26 282 57l-51 141c-61-25-157-50-235-51-223 0-334 142-334 426" id="bt"/><path fill="#333" d="M354-322c-2 123 60 204 176 205 51 1 114-10 150-20v127C647 7 557 20 506 20 294 20 188-92 188-315v-652H31v-80l157-69 70-234h96v254h318v129H354v645" id="bu"/><path fill="#333" d="M516-150c94-315 146-423 332-946h178L610 0H416L0-1096h178c98 281 253 670 330 946h8" id="bv"/><path fill="#333" d="M502-977c-130 0-238 32-238 139 0 75 39 101 95 134 33 19 97 46 192 81 130 48 217 95 263 143s69 108 69 181C883-73 695 20 449 20 304 20 190-3 109-49v-154c91 47 216 86 344 86 149 0 270-36 270-168 0-43-21-76-55-109-56-55-367-158-434-208-74-55-128-109-128-225 0-327 490-342 754-217l-59 135c-110-45-210-68-299-68" id="bw"/><g id="k"><use transform="matrix(0.013020833333333334,0,0,0.013020833333333334,0,0)" xlink:href="#bp"/><use transform="matrix(0.013020833333333334,0,0,0.013020833333333334,14.830729166666668,0)" xlink:href="#bt"/><use transform="matrix(0.013020833333333334,0,0,0.013020833333333334,27.526041666666668,0)" xlink:href="#bu"/><use transform="matrix(0.013020833333333334,0,0,0.013020833333333334,36.94010416666667,0)" xlink:href="#br"/><use transform="matrix(0.013020833333333334,0,0,0.013020833333333334,43.684895833333336,0)" xlink:href="#bv"/><use transform="matrix(0.013020833333333334,0,0,0.013020833333333334,57.044270833333336,0)" xlink:href="#br"/><use transform="matrix(0.013020833333333334,0,0,0.013020833333333334,63.7890625,0)" xlink:href="#bu"/><use transform="matrix(0.013020833333333334,0,0,0.013020833333333334,73.203125,0)" xlink:href="#br"/><use transform="matrix(0.013020833333333334,0,0,0.013020833333333334,79.94791666666667,0)" xlink:href="#bi"/><use transform="matrix(0.013020833333333334,0,0,0.013020833333333334,94.90885416666667,0)" xlink:href="#bw"/></g><path fill="#333" d="M690-1114c271 2 402 123 402 399V0H926v-709c-1-177-76-266-252-266-251 0-332 135-332 402V0H176v-1556h166c-4 200 8 426-8 612h10c61-100 187-171 346-170" id="bx"/><g id="l"><use transform="matrix(0.013020833333333334,0,0,0.013020833333333334,0,0)" xlink:href="#bu"/><use transform="matrix(0.013020833333333334,0,0,0.013020833333333334,9.4140625,0)" xlink:href="#bx"/><use transform="matrix(0.013020833333333334,0,0,0.013020833333333334,25.78125,0)" xlink:href="#bp"/><use transform="matrix(0.013020833333333334,0,0,0.013020833333333334,40.61197916666667,0)" xlink:href="#bu"/></g><g id="m"><use transform="matrix(0.013020833333333334,0,0,0.013020833333333334,0,0)" xlink:href="#bt"/><use transform="matrix(0.013020833333333334,0,0,0.013020833333333334,12.6953125,0)" xlink:href="#bl"/><use transform="matrix(0.013020833333333334,0,0,0.013020833333333334,28.802083333333336,0)" xlink:href="#bn"/><use transform="matrix(0.013020833333333334,0,0,0.013020833333333334,45.169270833333336,0)" xlink:href="#bn"/><use transform="matrix(0.013020833333333334,0,0,0.013020833333333334,61.536458333333336,0)" xlink:href="#bi"/><use transform="matrix(0.013020833333333334,0,0,0.013020833333333334,76.49739583333334,0)" xlink:href="#bt"/><use transform="matrix(0.013020833333333334,0,0,0.013020833333333334,89.19270833333334,0)" xlink:href="#bu"/></g><path fill="#333" d="M584-1331c-162 0-287 69-287 219 0 118 43 164 123 214 44 28 112 56 203 89 153 55 259 113 317 176s86 144 86 244c-1 276-228 409-520 409-173 0-307-22-400-67v-164c109 46 257 81 406 82 199 1 342-68 342-244 0-120-47-164-132-214-47-28-121-58-218-93-136-49-234-106-292-173s-87-154-87-261c-1-239 209-369 463-369 145 0 279 27 401 80l-53 148c-121-51-238-76-352-76" id="by"/><path fill="#333" d="M1141-549c0 329-147 569-455 569-159 0-273-61-344-161h-12c23 199 7 418 12 633H176v-1588h135l23 150h8c77-108 175-170 344-170 311 0 455 237 455 567zm-172-2c0-242-88-424-307-424-256 0-323 154-320 426 3 280 68 430 324 430 213 0 303-196 303-432" id="bz"/><path fill="#333" d="M342 0H176v-1556h166V0" id="bA"/><path fill="#333" d="M563 20c-271 0-399-123-399-399v-717h168v711c1 177 76 266 252 266 250 0 331-135 331-401v-576h166V0H944l-24-147h-9C848-44 724 20 563 20" id="bB"/><path fill="#333" d="M340-561c134-179 332-366 485-535h197L578-629 1053 0H852L465-518 340-410V0H176v-1556h164c-4 336 9 669-8 995h8" id="bC"/><g id="n"><use transform="matrix(0.013020833333333334,0,0,0.013020833333333334,0,0)" xlink:href="#by"/><use transform="matrix(0.013020833333333334,0,0,0.013020833333333334,14.635416666666668,0)" xlink:href="#bz"/><use transform="matrix(0.013020833333333334,0,0,0.013020833333333334,30.9765625,0)" xlink:href="#bA"/><use transform="matrix(0.013020833333333334,0,0,0.013020833333333334,37.72135416666667,0)" xlink:href="#bB"/><use transform="matrix(0.013020833333333334,0,0,0.013020833333333334,54.08854166666667,0)" xlink:href="#bn"/><use transform="matrix(0.013020833333333334,0,0,0.013020833333333334,70.45572916666667,0)" xlink:href="#bC"/></g><path fill="#333" d="M801-1485c433 0 669 306 669 752S1232 20 799 20c-445 0-674-297-674-755 0-456 232-750 676-750zm0 152c-345 0-496 236-496 600 0 367 148 604 494 604 348 0 491-235 491-604 0-366-143-600-489-600" id="bD"/><path fill="#333" d="M526-162c88-293 120-356 326-934h178L559 152c-47 123-102 209-163 262-93 80-237 94-380 61V342c184 39 305-9 367-180L444 6 2-1096h178c103 283 263 645 338 934h8" id="bE"/><g id="o"><use transform="matrix(0.013020833333333334,0,0,0.013020833333333334,0,0)" xlink:href="#bD"/><use transform="matrix(0.013020833333333334,0,0,0.013020833333333334,20.768229166666668,0)" xlink:href="#bo"/><use transform="matrix(0.013020833333333334,0,0,0.013020833333333334,37.109375,0)" xlink:href="#bw"/><use transform="matrix(0.013020833333333334,0,0,0.013020833333333334,49.83072916666667,0)" xlink:href="#bi"/><use transform="matrix(0.013020833333333334,0,0,0.013020833333333334,64.79166666666667,0)" xlink:href="#bj"/><use transform="matrix(0.013020833333333334,0,0,0.013020833333333334,75.67708333333334,0)" xlink:href="#bv"/><use transform="matrix(0.013020833333333334,0,0,0.013020833333333334,89.03645833333334,0)" xlink:href="#bp"/><use transform="matrix(0.013020833333333334,0,0,0.013020833333333334,103.86718750000001,0)" xlink:href="#bo"/><use transform="matrix(0.013020833333333334,0,0,0.013020833333333334,120.20833333333334,0)" xlink:href="#br"/><use transform="matrix(0.013020833333333334,0,0,0.013020833333333334,126.953125,0)" xlink:href="#bA"/><use transform="matrix(0.013020833333333334,0,0,0.013020833333333334,133.69791666666669,0)" xlink:href="#br"/><use transform="matrix(0.013020833333333334,0,0,0.013020833333333334,140.44270833333334,0)" xlink:href="#bu"/><use transform="matrix(0.013020833333333334,0,0,0.013020833333333334,149.85677083333334,0)" xlink:href="#bE"/></g><path fill="#333" d="M125-733c6-459 248-750 704-750 153 0 287 28 402 84l-72 146c-111-52-221-78-332-78-334-1-520 251-520 600 0 361 171 600 518 600 102 0 218-18 349-55v149C1073 1 948 20 799 20c-445 1-680-294-674-753" id="bF"/><g id="p"><use transform="matrix(0.013020833333333334,0,0,0.013020833333333334,0,0)" xlink:href="#bF"/><use transform="matrix(0.013020833333333334,0,0,0.013020833333333334,16.822916666666668,0)" xlink:href="#bA"/><use transform="matrix(0.013020833333333334,0,0,0.013020833333333334,23.567708333333336,0)" xlink:href="#bl"/><use transform="matrix(0.013020833333333334,0,0,0.013020833333333334,39.67447916666667,0)" xlink:href="#bB"/><use transform="matrix(0.013020833333333334,0,0,0.013020833333333334,56.04166666666667,0)" xlink:href="#bq"/></g><g id="q"><use transform="matrix(0.013020833333333334,0,0,0.013020833333333334,0,0)" xlink:href="#bu"/><use transform="matrix(0.013020833333333334,0,0,0.013020833333333334,9.4140625,0)" xlink:href="#bl"/></g><g id="r"><use transform="matrix(0.013020833333333334,0,0,0.013020833333333334,0,0)" xlink:href="#bE"/><use transform="matrix(0.013020833333333334,0,0,0.013020833333333334,13.4375,0)" xlink:href="#bl"/><use transform="matrix(0.013020833333333334,0,0,0.013020833333333334,29.544270833333336,0)" xlink:href="#bB"/><use transform="matrix(0.013020833333333334,0,0,0.013020833333333334,45.911458333333336,0)" xlink:href="#bj"/></g><path fill="#333" d="M440-561L59-1096h189l289 420 288-420h187L631-561 1032 0H844L537-444 227 0H39" id="bG"/><g id="s"><use transform="matrix(0.013020833333333334,0,0,0.013020833333333334,0,0)" xlink:href="#bi"/><use transform="matrix(0.013020833333333334,0,0,0.013020833333333334,14.427083333333334,0)" xlink:href="#bG"/><use transform="matrix(0.013020833333333334,0,0,0.013020833333333334,28.3984375,0)" xlink:href="#br"/><use transform="matrix(0.013020833333333334,0,0,0.013020833333333334,35.143229166666664,0)" xlink:href="#bw"/><use transform="matrix(0.013020833333333334,0,0,0.013020833333333334,47.86458333333333,0)" xlink:href="#bu"/><use transform="matrix(0.013020833333333334,0,0,0.013020833333333334,57.27864583333332,0)" xlink:href="#br"/><use transform="matrix(0.013020833333333334,0,0,0.013020833333333334,64.0234375,0)" xlink:href="#bn"/><use transform="matrix(0.013020833333333334,0,0,0.013020833333333334,80.390625,0)" xlink:href="#bs"/></g><path fill="#333" d="M1169-178c39-215 75-309 230-918h172L1268 0h-197c-99-332-184-548-272-911h-8C712-564 610-319 514 0H322L23-1096h174c71 275 124 485 161 629s59 241 64 291h8c76-328 186-611 279-920h180l196 629c37 115 63 211 76 289h8" id="bH"/><g id="t"><use transform="matrix(0.013020833333333334,0,0,0.013020833333333334,0,0)" xlink:href="#bw"/><use transform="matrix(0.013020833333333334,0,0,0.013020833333333334,12.721354166666668,0)" xlink:href="#bl"/><use transform="matrix(0.013020833333333334,0,0,0.013020833333333334,28.828125,0)" xlink:href="#bk"/><use transform="matrix(0.013020833333333334,0,0,0.013020833333333334,37.864583333333336,0)" xlink:href="#bu"/><use transform="matrix(0.013020833333333334,0,0,0.013020833333333334,47.278645833333336,0)" xlink:href="#bH"/><use transform="matrix(0.013020833333333334,0,0,0.013020833333333334,68.02083333333334,0)" xlink:href="#bp"/><use transform="matrix(0.013020833333333334,0,0,0.013020833333333334,82.85156250000001,0)" xlink:href="#bj"/><use transform="matrix(0.013020833333333334,0,0,0.013020833333333334,93.20312500000001,0)" xlink:href="#bi"/></g><path fill="#333" d="M270 29c-76 0-118-48-118-135 0-84 38-135 118-136 81 0 123 51 123 136 0 82-44 135-123 135" id="bI"/><g id="u"><use transform="matrix(0.013020833333333334,0,0,0.013020833333333334,0,0)" xlink:href="#bk"/><use transform="matrix(0.013020833333333334,0,0,0.013020833333333334,9.036458333333334,0)" xlink:href="#bj"/><use transform="matrix(0.013020833333333334,0,0,0.013020833333333334,19.388020833333336,0)" xlink:href="#bp"/><use transform="matrix(0.013020833333333334,0,0,0.013020833333333334,34.21875,0)" xlink:href="#bm"/><use transform="matrix(0.013020833333333334,0,0,0.013020833333333334,59.0234375,0)" xlink:href="#bi"/><use transform="matrix(0.013020833333333334,0,0,0.013020833333333334,73.45052083333334,0)" xlink:href="#bH"/><use transform="matrix(0.013020833333333334,0,0,0.013020833333333334,94.19270833333334,0)" xlink:href="#bl"/><use transform="matrix(0.013020833333333334,0,0,0.013020833333333334,110.2994791666667,0)" xlink:href="#bj"/><use transform="matrix(0.013020833333333334,0,0,0.013020833333333334,121.18489583333336,0)" xlink:href="#bC"/><use transform="matrix(0.013020833333333334,0,0,0.013020833333333334,135.18229166666669,0)" xlink:href="#bI"/></g><g id="v"><use transform="matrix(0.013020833333333334,0,0,0.013020833333333334,0,0)" xlink:href="#bF"/><use transform="matrix(0.013020833333333334,0,0,0.013020833333333334,16.822916666666668,0)" xlink:href="#bp"/><use transform="matrix(0.013020833333333334,0,0,0.013020833333333334,31.653645833333336,0)" xlink:href="#bj"/><use transform="matrix(0.013020833333333334,0,0,0.013020833333333334,42.5390625,0)" xlink:href="#bj"/><use transform="matrix(0.013020833333333334,0,0,0.013020833333333334,53.42447916666667,0)" xlink:href="#bE"/></g><g id="w"><use transform="matrix(0.013020833333333334,0,0,0.013020833333333334,0,0)" xlink:href="#bk"/><use transform="matrix(0.013020833333333334,0,0,0.013020833333333334,9.036458333333334,0)" xlink:href="#bl"/><use transform="matrix(0.013020833333333334,0,0,0.013020833333333334,25.14322916666667,0)" xlink:href="#bj"/><use transform="matrix(0.013020833333333334,0,0,0.013020833333333334,36.02864583333334,0)" xlink:href="#bH"/><use transform="matrix(0.013020833333333334,0,0,0.013020833333333334,56.77083333333335,0)" xlink:href="#bp"/><use transform="matrix(0.013020833333333334,0,0,0.013020833333333334,71.60156250000001,0)" xlink:href="#bj"/><use transform="matrix(0.013020833333333334,0,0,0.013020833333333334,81.95312500000001,0)" xlink:href="#bq"/></g><g id="x"><use transform="matrix(0.013020833333333334,0,0,0.013020833333333334,0,0)" xlink:href="#bo"/><use transform="matrix(0.013020833333333334,0,0,0.013020833333333334,16.341145833333336,0)" xlink:href="#bi"/><use transform="matrix(0.013020833333333334,0,0,0.013020833333333334,31.302083333333336,0)" xlink:href="#bw"/><use transform="matrix(0.013020833333333334,0,0,0.013020833333333334,44.0234375,0)" xlink:href="#bu"/></g><g id="y"><use transform="matrix(0.013020833333333334,0,0,0.013020833333333334,0,0)" xlink:href="#bz"/><use transform="matrix(0.013020833333333334,0,0,0.013020833333333334,16.341145833333336,0)" xlink:href="#bj"/><use transform="matrix(0.013020833333333334,0,0,0.013020833333333334,26.692708333333336,0)" xlink:href="#bp"/><use transform="matrix(0.013020833333333334,0,0,0.013020833333333334,41.5234375,0)" xlink:href="#bt"/><use transform="matrix(0.013020833333333334,0,0,0.013020833333333334,54.21875,0)" xlink:href="#bu"/><use transform="matrix(0.013020833333333334,0,0,0.013020833333333334,63.6328125,0)" xlink:href="#br"/><use transform="matrix(0.013020833333333334,0,0,0.013020833333333334,70.37760416666667,0)" xlink:href="#bt"/><use transform="matrix(0.013020833333333334,0,0,0.013020833333333334,83.07291666666667,0)" xlink:href="#bi"/><use transform="matrix(0.013020833333333334,0,0,0.013020833333333334,98.03385416666667,0)" xlink:href="#bw"/></g><g id="z"><use transform="matrix(0.013020833333333334,0,0,0.013020833333333334,0,0)" xlink:href="#bp"/><use transform="matrix(0.013020833333333334,0,0,0.013020833333333334,14.830729166666668,0)" xlink:href="#bn"/><use transform="matrix(0.013020833333333334,0,0,0.013020833333333334,31.197916666666668,0)" xlink:href="#bq"/></g><g id="A"><use transform="matrix(0.013020833333333334,0,0,0.013020833333333334,0,0)" xlink:href="#bk"/><use transform="matrix(0.013020833333333334,0,0,0.013020833333333334,9.036458333333334,0)" xlink:href="#bj"/><use transform="matrix(0.013020833333333334,0,0,0.013020833333333334,19.388020833333336,0)" xlink:href="#bp"/><use transform="matrix(0.013020833333333334,0,0,0.013020833333333334,34.21875,0)" xlink:href="#bm"/><use transform="matrix(0.013020833333333334,0,0,0.013020833333333334,59.0234375,0)" xlink:href="#bi"/><use transform="matrix(0.013020833333333334,0,0,0.013020833333333334,73.45052083333334,0)" xlink:href="#bH"/><use transform="matrix(0.013020833333333334,0,0,0.013020833333333334,94.19270833333334,0)" xlink:href="#bl"/><use transform="matrix(0.013020833333333334,0,0,0.013020833333333334,110.2994791666667,0)" xlink:href="#bj"/><use transform="matrix(0.013020833333333334,0,0,0.013020833333333334,121.18489583333336,0)" xlink:href="#bC"/><use transform="matrix(0.013020833333333334,0,0,0.013020833333333334,135.18229166666669,0)" xlink:href="#bw"/></g><g id="B"><use transform="matrix(0.013020833333333334,0,0,0.013020833333333334,0,0)" xlink:href="#bi"/><use transform="matrix(0.013020833333333334,0,0,0.013020833333333334,14.9609375,0)" xlink:href="#bw"/><use transform="matrix(0.013020833333333334,0,0,0.013020833333333334,27.682291666666668,0)" xlink:href="#bu"/><use transform="matrix(0.013020833333333334,0,0,0.013020833333333334,37.09635416666667,0)" xlink:href="#bp"/><use transform="matrix(0.013020833333333334,0,0,0.013020833333333334,51.92708333333334,0)" xlink:href="#bo"/><use transform="matrix(0.013020833333333334,0,0,0.013020833333333334,68.26822916666669,0)" xlink:href="#bA"/><use transform="matrix(0.013020833333333334,0,0,0.013020833333333334,75.01302083333336,0)" xlink:href="#br"/><use transform="matrix(0.013020833333333334,0,0,0.013020833333333334,81.75781250000003,0)" xlink:href="#bw"/><use transform="matrix(0.013020833333333334,0,0,0.013020833333333334,94.4791666666667,0)" xlink:href="#bx"/><use transform="matrix(0.013020833333333334,0,0,0.013020833333333334,110.8463541666667,0)" xlink:href="#bi"/><use transform="matrix(0.013020833333333334,0,0,0.013020833333333334,125.8072916666667,0)" xlink:href="#bq"/></g><g id="C"><use transform="matrix(0.013020833333333334,0,0,0.013020833333333334,0,0)" xlink:href="#bq"/><use transform="matrix(0.013020833333333334,0,0,0.013020833333333334,16.341145833333336,0)" xlink:href="#bB"/><use transform="matrix(0.013020833333333334,0,0,0.013020833333333334,32.708333333333336,0)" xlink:href="#bj"/><use transform="matrix(0.013020833333333334,0,0,0.013020833333333334,43.59375,0)" xlink:href="#br"/><use transform="matrix(0.013020833333333334,0,0,0.013020833333333334,50.338541666666664,0)" xlink:href="#bn"/><use transform="matrix(0.013020833333333334,0,0,0.013020833333333334,66.70572916666666,0)" xlink:href="#bs"/></g><g id="D"><use transform="matrix(0.013020833333333334,0,0,0.013020833333333334,0,0)" xlink:href="#bu"/><use transform="matrix(0.013020833333333334,0,0,0.013020833333333334,9.4140625,0)" xlink:href="#bx"/><use transform="matrix(0.013020833333333334,0,0,0.013020833333333334,25.78125,0)" xlink:href="#bi"/></g><g id="E"><use transform="matrix(0.013020833333333334,0,0,0.013020833333333334,0,0)" xlink:href="#bz"/><use transform="matrix(0.013020833333333334,0,0,0.013020833333333334,16.341145833333336,0)" xlink:href="#br"/><use transform="matrix(0.013020833333333334,0,0,0.013020833333333334,23.085937500000004,0)" xlink:href="#bA"/><use transform="matrix(0.013020833333333334,0,0,0.013020833333333334,29.830729166666675,0)" xlink:href="#bl"/><use transform="matrix(0.013020833333333334,0,0,0.013020833333333334,45.93750000000001,0)" xlink:href="#bu"/></g><g id="F"><use transform="matrix(0.013020833333333334,0,0,0.013020833333333334,0,0)" xlink:href="#bj"/><use transform="matrix(0.013020833333333334,0,0,0.013020833333333334,10.351562500000002,0)" xlink:href="#bl"/><use transform="matrix(0.013020833333333334,0,0,0.013020833333333334,26.458333333333336,0)" xlink:href="#bA"/><use transform="matrix(0.013020833333333334,0,0,0.013020833333333334,33.203125,0)" xlink:href="#bA"/><use transform="matrix(0.013020833333333334,0,0,0.013020833333333334,39.947916666666664,0)" xlink:href="#bl"/><use transform="matrix(0.013020833333333334,0,0,0.013020833333333334,56.0546875,0)" xlink:href="#bB"/><use transform="matrix(0.013020833333333334,0,0,0.013020833333333334,72.421875,0)" xlink:href="#bu"/></g><g id="G"><use transform="matrix(0.013020833333333334,0,0,0.013020833333333334,0,0)" xlink:href="#bu"/><use transform="matrix(0.013020833333333334,0,0,0.013020833333333334,9.4140625,0)" xlink:href="#bl"/></g><path fill="#333" d="M63 264c30-115 88-378 105-502h182l15 23C327-69 250 132 188 264H63" id="bJ"/><g id="H"><use transform="matrix(0.013020833333333334,0,0,0.013020833333333334,0,0)" xlink:href="#br"/><use transform="matrix(0.013020833333333334,0,0,0.013020833333333334,6.744791666666667,0)" xlink:href="#bn"/><use transform="matrix(0.013020833333333334,0,0,0.013020833333333334,23.111979166666668,0)" xlink:href="#bk"/><use transform="matrix(0.013020833333333334,0,0,0.013020833333333334,32.1484375,0)" xlink:href="#bj"/><use transform="matrix(0.013020833333333334,0,0,0.013020833333333334,42.5,0)" xlink:href="#bp"/><use transform="matrix(0.013020833333333334,0,0,0.013020833333333334,57.33072916666667,0)" xlink:href="#bw"/><use transform="matrix(0.013020833333333334,0,0,0.013020833333333334,70.05208333333334,0)" xlink:href="#bu"/><use transform="matrix(0.013020833333333334,0,0,0.013020833333333334,79.46614583333334,0)" xlink:href="#bj"/><use transform="matrix(0.013020833333333334,0,0,0.013020833333333334,90.35156250000001,0)" xlink:href="#bB"/><use transform="matrix(0.013020833333333334,0,0,0.013020833333333334,106.71875,0)" xlink:href="#bt"/><use transform="matrix(0.013020833333333334,0,0,0.013020833333333334,119.4140625,0)" xlink:href="#bu"/><use transform="matrix(0.013020833333333334,0,0,0.013020833333333334,128.828125,0)" xlink:href="#bB"/><use transform="matrix(0.013020833333333334,0,0,0.013020833333333334,145.1953125,0)" xlink:href="#bj"/><use transform="matrix(0.013020833333333334,0,0,0.013020833333333334,155.546875,0)" xlink:href="#bi"/><use transform="matrix(0.013020833333333334,0,0,0.013020833333333334,170.5078125,0)" xlink:href="#bJ"/></g><g id="I"><use transform="matrix(0.013020833333333334,0,0,0.013020833333333334,0,0)" xlink:href="#bp"/><use transform="matrix(0.013020833333333334,0,0,0.013020833333333334,14.830729166666668,0)" xlink:href="#bz"/><use transform="matrix(0.013020833333333334,0,0,0.013020833333333334,31.171875,0)" xlink:href="#bz"/><use transform="matrix(0.013020833333333334,0,0,0.013020833333333334,47.51302083333334,0)" xlink:href="#bA"/><use transform="matrix(0.013020833333333334,0,0,0.013020833333333334,54.2578125,0)" xlink:href="#br"/><use transform="matrix(0.013020833333333334,0,0,0.013020833333333334,61.00260416666667,0)" xlink:href="#bt"/><use transform="matrix(0.013020833333333334,0,0,0.013020833333333334,73.69791666666667,0)" xlink:href="#bp"/><use transform="matrix(0.013020833333333334,0,0,0.013020833333333334,88.52864583333334,0)" xlink:href="#bu"/><use transform="matrix(0.013020833333333334,0,0,0.013020833333333334,97.94270833333334,0)" xlink:href="#br"/><use transform="matrix(0.013020833333333334,0,0,0.013020833333333334,104.68750000000001,0)" xlink:href="#bl"/><use transform="matrix(0.013020833333333334,0,0,0.013020833333333334,120.79427083333334,0)" xlink:href="#bn"/><use transform="matrix(0.013020833333333334,0,0,0.013020833333333334,137.16145833333334,0)" xlink:href="#bw"/><use transform="matrix(0.013020833333333334,0,0,0.013020833333333334,149.8828125,0)" xlink:href="#bJ"/></g><g id="J"><use transform="matrix(0.013020833333333334,0,0,0.013020833333333334,0,0)" xlink:href="#bp"/><use transform="matrix(0.013020833333333334,0,0,0.013020833333333334,14.830729166666668,0)" xlink:href="#bn"/><use transform="matrix(0.013020833333333334,0,0,0.013020833333333334,31.197916666666668,0)" xlink:href="#bq"/></g><g id="K"><use transform="matrix(0.013020833333333334,0,0,0.013020833333333334,0,0)" xlink:href="#bu"/><use transform="matrix(0.013020833333333334,0,0,0.013020833333333334,9.4140625,0)" xlink:href="#bi"/><use transform="matrix(0.013020833333333334,0,0,0.013020833333333334,24.375,0)" xlink:href="#bp"/><use transform="matrix(0.013020833333333334,0,0,0.013020833333333334,39.20572916666667,0)" xlink:href="#bm"/><use transform="matrix(0.013020833333333334,0,0,0.013020833333333334,64.01041666666667,0)" xlink:href="#bw"/><use transform="matrix(0.013020833333333334,0,0,0.013020833333333334,76.73177083333334,0)" xlink:href="#bI"/></g><g id="N"><use transform="matrix(0.013020833333333334,0,0,0.013020833333333334,0,0)" xlink:href="#by"/><use transform="matrix(0.013020833333333334,0,0,0.013020833333333334,14.635416666666668,0)" xlink:href="#bi"/><use transform="matrix(0.013020833333333334,0,0,0.013020833333333334,29.596354166666668,0)" xlink:href="#bu"/></g><g id="O"><use transform="matrix(0.013020833333333334,0,0,0.013020833333333334,0,0)" xlink:href="#bB"/><use transform="matrix(0.013020833333333334,0,0,0.013020833333333334,16.3671875,0)" xlink:href="#bz"/></g><g id="P"><use transform="matrix(0.013020833333333334,0,0,0.013020833333333334,0,0)" xlink:href="#bw"/><use transform="matrix(0.013020833333333334,0,0,0.013020833333333334,12.721354166666668,0)" xlink:href="#bu"/><use transform="matrix(0.013020833333333334,0,0,0.013020833333333334,22.135416666666668,0)" xlink:href="#bp"/><use transform="matrix(0.013020833333333334,0,0,0.013020833333333334,36.966145833333336,0)" xlink:href="#bn"/><use transform="matrix(0.013020833333333334,0,0,0.013020833333333334,53.333333333333336,0)" xlink:href="#bq"/><use transform="matrix(0.013020833333333334,0,0,0.013020833333333334,69.67447916666667,0)" xlink:href="#bp"/><use transform="matrix(0.013020833333333334,0,0,0.013020833333333334,84.50520833333334,0)" xlink:href="#bj"/><use transform="matrix(0.013020833333333334,0,0,0.013020833333333334,94.85677083333334,0)" xlink:href="#bq"/><use transform="matrix(0.013020833333333334,0,0,0.013020833333333334,111.1979166666667,0)" xlink:href="#bw"/></g><g id="Q"><use transform="matrix(0.013020833333333334,0,0,0.013020833333333334,0,0)" xlink:href="#bz"/><use transform="matrix(0.013020833333333334,0,0,0.013020833333333334,16.341145833333336,0)" xlink:href="#bj"/><use transform="matrix(0.013020833333333334,0,0,0.013020833333333334,26.692708333333336,0)" xlink:href="#bl"/><use transform="matrix(0.013020833333333334,0,0,0.013020833333333334,42.79947916666667,0)" xlink:href="#bt"/><use transform="matrix(0.013020833333333334,0,0,0.013020833333333334,55.49479166666667,0)" xlink:href="#bi"/><use transform="matrix(0.013020833333333334,0,0,0.013020833333333334,70.45572916666667,0)" xlink:href="#bq"/><use transform="matrix(0.013020833333333334,0,0,0.013020833333333334,86.796875,0)" xlink:href="#bB"/><use transform="matrix(0.013020833333333334,0,0,0.013020833333333334,103.1640625,0)" xlink:href="#bj"/><use transform="matrix(0.013020833333333334,0,0,0.013020833333333334,113.515625,0)" xlink:href="#bi"/><use transform="matrix(0.013020833333333334,0,0,0.013020833333333334,128.4765625,0)" xlink:href="#bw"/></g><g id="R"><use transform="matrix(0.013020833333333334,0,0,0.013020833333333334,0,0)" xlink:href="#bk"/><use transform="matrix(0.013020833333333334,0,0,0.013020833333333334,9.036458333333334,0)" xlink:href="#bl"/><use transform="matrix(0.013020833333333334,0,0,0.013020833333333334,25.14322916666667,0)" xlink:href="#bj"/></g><g id="S"><use transform="matrix(0.013020833333333334,0,0,0.013020833333333334,0,0)" xlink:href="#bi"/><use transform="matrix(0.013020833333333334,0,0,0.013020833333333334,14.9609375,0)" xlink:href="#bn"/><use transform="matrix(0.013020833333333334,0,0,0.013020833333333334,31.328125,0)" xlink:href="#bq"/></g><g id="T"><use transform="matrix(0.013020833333333334,0,0,0.013020833333333334,0,0)" xlink:href="#bB"/><use transform="matrix(0.013020833333333334,0,0,0.013020833333333334,16.3671875,0)" xlink:href="#bw"/><use transform="matrix(0.013020833333333334,0,0,0.013020833333333334,29.088541666666668,0)" xlink:href="#bi"/><use transform="matrix(0.013020833333333334,0,0,0.013020833333333334,44.04947916666667,0)" xlink:href="#bj"/><use transform="matrix(0.013020833333333334,0,0,0.013020833333333334,54.93489583333335,0)" xlink:href="#bw"/><use transform="matrix(0.013020833333333334,0,0,0.013020833333333334,67.65625000000001,0)" xlink:href="#bJ"/></g><g id="U"><use transform="matrix(0.013020833333333334,0,0,0.013020833333333334,0,0)" xlink:href="#bA"/><use transform="matrix(0.013020833333333334,0,0,0.013020833333333334,6.744791666666667,0)" xlink:href="#br"/><use transform="matrix(0.013020833333333334,0,0,0.013020833333333334,13.489583333333334,0)" xlink:href="#bC"/><use transform="matrix(0.013020833333333334,0,0,0.013020833333333334,26.953125,0)" xlink:href="#bi"/></g><g id="V"><use transform="matrix(0.013020833333333334,0,0,0.013020833333333334,0,0)" xlink:href="#bq"/><use transform="matrix(0.013020833333333334,0,0,0.013020833333333334,16.341145833333336,0)" xlink:href="#bi"/><use transform="matrix(0.013020833333333334,0,0,0.013020833333333334,30.768229166666675,0)" xlink:href="#bv"/><use transform="matrix(0.013020833333333334,0,0,0.013020833333333334,44.12760416666667,0)" xlink:href="#bi"/><use transform="matrix(0.013020833333333334,0,0,0.013020833333333334,59.08854166666667,0)" xlink:href="#bA"/><use transform="matrix(0.013020833333333334,0,0,0.013020833333333334,65.83333333333334,0)" xlink:href="#bl"/><use transform="matrix(0.013020833333333334,0,0,0.013020833333333334,81.94010416666669,0)" xlink:href="#bz"/><use transform="matrix(0.013020833333333334,0,0,0.013020833333333334,98.28125000000003,0)" xlink:href="#bm"/><use transform="matrix(0.013020833333333334,0,0,0.013020833333333334,123.08593750000003,0)" xlink:href="#bi"/><use transform="matrix(0.013020833333333334,0,0,0.013020833333333334,138.04687500000003,0)" xlink:href="#bn"/><use transform="matrix(0.013020833333333334,0,0,0.013020833333333334,154.41406250000003,0)" xlink:href="#bu"/></g><g id="W"><use transform="matrix(0.013020833333333334,0,0,0.013020833333333334,0,0)" xlink:href="#bu"/><use transform="matrix(0.013020833333333334,0,0,0.013020833333333334,9.4140625,0)" xlink:href="#bi"/><use transform="matrix(0.013020833333333334,0,0,0.013020833333333334,24.375,0)" xlink:href="#bp"/><use transform="matrix(0.013020833333333334,0,0,0.013020833333333334,39.20572916666667,0)" xlink:href="#bm"/><use transform="matrix(0.013020833333333334,0,0,0.013020833333333334,64.01041666666667,0)" xlink:href="#bw"/></g><g id="X"><use transform="matrix(0.013020833333333334,0,0,0.013020833333333334,0,0)" xlink:href="#bw"/><use transform="matrix(0.013020833333333334,0,0,0.013020833333333334,12.721354166666668,0)" xlink:href="#br"/><use transform="matrix(0.013020833333333334,0,0,0.013020833333333334,19.466145833333336,0)" xlink:href="#bu"/><use transform="matrix(0.013020833333333334,0,0,0.013020833333333334,28.880208333333336,0)" xlink:href="#bi"/></g><g id="Y"><use transform="matrix(0.013020833333333334,0,0,0.013020833333333334,0,0)" xlink:href="#bj"/><use transform="matrix(0.013020833333333334,0,0,0.013020833333333334,10.351562500000002,0)" xlink:href="#bi"/><use transform="matrix(0.013020833333333334,0,0,0.013020833333333334,25.3125,0)" xlink:href="#bA"/><use transform="matrix(0.013020833333333334,0,0,0.013020833333333334,32.057291666666664,0)" xlink:href="#br"/><use transform="matrix(0.013020833333333334,0,0,0.013020833333333334,38.80208333333333,0)" xlink:href="#bp"/><use transform="matrix(0.013020833333333334,0,0,0.013020833333333334,53.6328125,0)" xlink:href="#bo"/><use transform="matrix(0.013020833333333334,0,0,0.013020833333333334,69.97395833333334,0)" xlink:href="#br"/><use transform="matrix(0.013020833333333334,0,0,0.013020833333333334,76.71875000000001,0)" xlink:href="#bA"/><use transform="matrix(0.013020833333333334,0,0,0.013020833333333334,83.46354166666669,0)" xlink:href="#br"/><use transform="matrix(0.013020833333333334,0,0,0.013020833333333334,90.20833333333336,0)" xlink:href="#bu"/><use transform="matrix(0.013020833333333334,0,0,0.013020833333333334,99.62239583333336,0)" xlink:href="#bE"/></g><g id="Z"><use transform="matrix(0.013020833333333334,0,0,0.013020833333333334,0,0)" xlink:href="#bi"/><use transform="matrix(0.013020833333333334,0,0,0.013020833333333334,14.9609375,0)" xlink:href="#bn"/><use transform="matrix(0.013020833333333334,0,0,0.013020833333333334,31.328125,0)" xlink:href="#bs"/><use transform="matrix(0.013020833333333334,0,0,0.013020833333333334,45.9375,0)" xlink:href="#br"/><use transform="matrix(0.013020833333333334,0,0,0.013020833333333334,52.682291666666664,0)" xlink:href="#bn"/><use transform="matrix(0.013020833333333334,0,0,0.013020833333333334,69.04947916666666,0)" xlink:href="#bi"/><use transform="matrix(0.013020833333333334,0,0,0.013020833333333334,84.01041666666666,0)" xlink:href="#bi"/><use transform="matrix(0.013020833333333334,0,0,0.013020833333333334,98.97135416666666,0)" xlink:href="#bj"/><use transform="matrix(0.013020833333333334,0,0,0.013020833333333334,109.85677083333334,0)" xlink:href="#bw"/><use transform="matrix(0.013020833333333334,0,0,0.013020833333333334,122.578125,0)" xlink:href="#bI"/></g><g id="aa"><use transform="matrix(0.013020833333333334,0,0,0.013020833333333334,0,0)" xlink:href="#bh"/><use transform="matrix(0.013020833333333334,0,0,0.013020833333333334,16.0546875,0)" xlink:href="#bp"/><use transform="matrix(0.013020833333333334,0,0,0.013020833333333334,30.885416666666668,0)" xlink:href="#bj"/><use transform="matrix(0.013020833333333334,0,0,0.013020833333333334,41.770833333333336,0)" xlink:href="#bu"/></g><path fill="#333" d="M715 0H553c4-427-9-874 8-1288-79 77-94 81-285 239l-88-114 387-299h140V0" id="bK"/><path fill="#333" d="M270 29c-76 0-118-48-118-135 0-84 38-135 118-136 81 0 123 51 123 136 0 82-44 135-123 135zm0-883c-76 0-118-48-118-135 0-90 39-135 118-135 82 0 123 45 123 135 0 82-44 135-123 135" id="bL"/><g id="ab"><use transform="matrix(0.013020833333333334,0,0,0.013020833333333334,0,0)" xlink:href="#bK"/><use transform="matrix(0.013020833333333334,0,0,0.013020833333333334,15.247395833333334,0)" xlink:href="#bL"/></g><g id="ac"><use transform="matrix(0.013020833333333334,0,0,0.013020833333333334,0,0)" xlink:href="#bF"/><use transform="matrix(0.013020833333333334,0,0,0.013020833333333334,16.822916666666668,0)" xlink:href="#bl"/><use transform="matrix(0.013020833333333334,0,0,0.013020833333333334,32.9296875,0)" xlink:href="#bn"/><use transform="matrix(0.013020833333333334,0,0,0.013020833333333334,49.296875,0)" xlink:href="#bk"/><use transform="matrix(0.013020833333333334,0,0,0.013020833333333334,58.333333333333336,0)" xlink:href="#br"/><use transform="matrix(0.013020833333333334,0,0,0.013020833333333334,65.078125,0)" xlink:href="#bs"/><use transform="matrix(0.013020833333333334,0,0,0.013020833333333334,79.6875,0)" xlink:href="#bB"/><use transform="matrix(0.013020833333333334,0,0,0.013020833333333334,96.0546875,0)" xlink:href="#bj"/><use transform="matrix(0.013020833333333334,0,0,0.013020833333333334,106.40625,0)" xlink:href="#bi"/></g><g id="ad"><use transform="matrix(0.013020833333333334,0,0,0.013020833333333334,0,0)" xlink:href="#bB"/><use transform="matrix(0.013020833333333334,0,0,0.013020833333333334,16.3671875,0)" xlink:href="#bw"/><use transform="matrix(0.013020833333333334,0,0,0.013020833333333334,29.088541666666668,0)" xlink:href="#bi"/><use transform="matrix(0.013020833333333334,0,0,0.013020833333333334,44.04947916666667,0)" xlink:href="#bj"/></g><g id="ae"><use transform="matrix(0.013020833333333334,0,0,0.013020833333333334,0,0)" xlink:href="#bu"/><use transform="matrix(0.013020833333333334,0,0,0.013020833333333334,9.4140625,0)" xlink:href="#bi"/><use transform="matrix(0.013020833333333334,0,0,0.013020833333333334,24.375,0)" xlink:href="#bp"/><use transform="matrix(0.013020833333333334,0,0,0.013020833333333334,39.20572916666667,0)" xlink:href="#bm"/></g><g id="af"><use transform="matrix(0.013020833333333334,0,0,0.013020833333333334,0,0)" xlink:href="#bp"/><use transform="matrix(0.013020833333333334,0,0,0.013020833333333334,14.830729166666668,0)" xlink:href="#bq"/><use transform="matrix(0.013020833333333334,0,0,0.013020833333333334,31.171875,0)" xlink:href="#bm"/><use transform="matrix(0.013020833333333334,0,0,0.013020833333333334,55.9765625,0)" xlink:href="#br"/><use transform="matrix(0.013020833333333334,0,0,0.013020833333333334,62.72135416666667,0)" xlink:href="#bn"/><use transform="matrix(0.013020833333333334,0,0,0.013020833333333334,79.08854166666666,0)" xlink:href="#br"/><use transform="matrix(0.013020833333333334,0,0,0.013020833333333334,85.83333333333333,0)" xlink:href="#bw"/><use transform="matrix(0.013020833333333334,0,0,0.013020833333333334,98.5546875,0)" xlink:href="#bu"/><use transform="matrix(0.013020833333333334,0,0,0.013020833333333334,107.96875,0)" xlink:href="#bj"/><use transform="matrix(0.013020833333333334,0,0,0.013020833333333334,118.3203125,0)" xlink:href="#bp"/><use transform="matrix(0.013020833333333334,0,0,0.013020833333333334,133.15104166666666,0)" xlink:href="#bu"/><use transform="matrix(0.013020833333333334,0,0,0.013020833333333334,142.56510416666666,0)" xlink:href="#br"/><use transform="matrix(0.013020833333333334,0,0,0.013020833333333334,149.30989583333331,0)" xlink:href="#bl"/><use transform="matrix(0.013020833333333334,0,0,0.013020833333333334,165.41666666666666,0)" xlink:href="#bn"/></g><path fill="#333" d="M559-1483c258 0 441 142 440 389 0 93-26 184-78 275-109 192-433 475-612 657v8h752V0H100v-143c177-182 479-462 617-641 67-87 110-168 112-303 2-158-106-258-268-254-165 4-240 52-354 139l-88-113c135-112 281-168 440-168" id="bM"/><g id="ah"><use transform="matrix(0.013020833333333334,0,0,0.013020833333333334,0,0)" xlink:href="#bM"/><use transform="matrix(0.013020833333333334,0,0,0.013020833333333334,15.247395833333334,0)" xlink:href="#bL"/></g><path fill="#333" d="M649-1462c450-4 719 268 719 717 0 484-276 748-762 745H201v-1462h448zM578-147c400 1 610-197 610-592 1-379-192-576-570-576H371v1168h207" id="bN"/><g id="ai"><use transform="matrix(0.013020833333333334,0,0,0.013020833333333334,0,0)" xlink:href="#bN"/><use transform="matrix(0.013020833333333334,0,0,0.013020833333333334,19.440104166666668,0)" xlink:href="#bi"/><use transform="matrix(0.013020833333333334,0,0,0.013020833333333334,34.40104166666667,0)" xlink:href="#bw"/><use transform="matrix(0.013020833333333334,0,0,0.013020833333333334,47.12239583333334,0)" xlink:href="#br"/><use transform="matrix(0.013020833333333334,0,0,0.013020833333333334,53.8671875,0)" xlink:href="#bs"/><use transform="matrix(0.013020833333333334,0,0,0.013020833333333334,68.4765625,0)" xlink:href="#bn"/></g><g id="aj"><use transform="matrix(0.013020833333333334,0,0,0.013020833333333334,0,0)" xlink:href="#bp"/><use transform="matrix(0.013020833333333334,0,0,0.013020833333333334,14.830729166666668,0)" xlink:href="#bj"/><use transform="matrix(0.013020833333333334,0,0,0.013020833333333334,25.18229166666667,0)" xlink:href="#bt"/><use transform="matrix(0.013020833333333334,0,0,0.013020833333333334,37.87760416666667,0)" xlink:href="#bx"/><use transform="matrix(0.013020833333333334,0,0,0.013020833333333334,54.24479166666667,0)" xlink:href="#br"/><use transform="matrix(0.013020833333333334,0,0,0.013020833333333334,60.989583333333336,0)" xlink:href="#bu"/><use transform="matrix(0.013020833333333334,0,0,0.013020833333333334,70.40364583333334,0)" xlink:href="#bi"/><use transform="matrix(0.013020833333333334,0,0,0.013020833333333334,85.36458333333334,0)" xlink:href="#bt"/><use transform="matrix(0.013020833333333334,0,0,0.013020833333333334,98.05989583333334,0)" xlink:href="#bu"/><use transform="matrix(0.013020833333333334,0,0,0.013020833333333334,107.47395833333334,0)" xlink:href="#bB"/><use transform="matrix(0.013020833333333334,0,0,0.013020833333333334,123.84114583333334,0)" xlink:href="#bj"/><use transform="matrix(0.013020833333333334,0,0,0.013020833333333334,134.19270833333334,0)" xlink:href="#bi"/></g><g id="ak"><use transform="matrix(0.013020833333333334,0,0,0.013020833333333334,0,0)" xlink:href="#bs"/><use transform="matrix(0.013020833333333334,0,0,0.013020833333333334,14.609375,0)" xlink:href="#bi"/><use transform="matrix(0.013020833333333334,0,0,0.013020833333333334,29.5703125,0)" xlink:href="#bu"/></g><g id="al"><use transform="matrix(0.013020833333333334,0,0,0.013020833333333334,0,0)" xlink:href="#bq"/><use transform="matrix(0.013020833333333334,0,0,0.013020833333333334,16.341145833333336,0)" xlink:href="#bp"/><use transform="matrix(0.013020833333333334,0,0,0.013020833333333334,31.171875,0)" xlink:href="#bu"/><use transform="matrix(0.013020833333333334,0,0,0.013020833333333334,40.5859375,0)" xlink:href="#bp"/></g><g id="am"><use transform="matrix(0.013020833333333334,0,0,0.013020833333333334,0,0)" xlink:href="#br"/><use transform="matrix(0.013020833333333334,0,0,0.013020833333333334,6.744791666666667,0)" xlink:href="#bn"/></g><g id="an"><use transform="matrix(0.013020833333333334,0,0,0.013020833333333334,0,0)" xlink:href="#bh"/><use transform="matrix(0.013020833333333334,0,0,0.013020833333333334,16.0546875,0)" xlink:href="#bA"/><use transform="matrix(0.013020833333333334,0,0,0.013020833333333334,22.799479166666668,0)" xlink:href="#bp"/><use transform="matrix(0.013020833333333334,0,0,0.013020833333333334,37.630208333333336,0)" xlink:href="#bn"/></g><g id="ao"><use transform="matrix(0.013020833333333334,0,0,0.013020833333333334,0,0)" xlink:href="#bj"/><use transform="matrix(0.013020833333333334,0,0,0.013020833333333334,10.351562500000002,0)" xlink:href="#bl"/><use transform="matrix(0.013020833333333334,0,0,0.013020833333333334,26.458333333333336,0)" xlink:href="#bA"/><use transform="matrix(0.013020833333333334,0,0,0.013020833333333334,33.203125,0)" xlink:href="#bA"/><use transform="matrix(0.013020833333333334,0,0,0.013020833333333334,39.947916666666664,0)" xlink:href="#bl"/><use transform="matrix(0.013020833333333334,0,0,0.013020833333333334,56.0546875,0)" xlink:href="#bB"/><use transform="matrix(0.013020833333333334,0,0,0.013020833333333334,72.421875,0)" xlink:href="#bu"/></g><path fill="#333" d="M201 0v-1462h170V0H201" id="bO"/><g id="ap"><use transform="matrix(0.013020833333333334,0,0,0.013020833333333334,0,0)" xlink:href="#bO"/><use transform="matrix(0.013020833333333334,0,0,0.013020833333333334,7.434895833333334,0)" xlink:href="#bn"/><use transform="matrix(0.013020833333333334,0,0,0.013020833333333334,23.802083333333336,0)" xlink:href="#br"/><use transform="matrix(0.013020833333333334,0,0,0.013020833333333334,30.546875,0)" xlink:href="#bu"/><use transform="matrix(0.013020833333333334,0,0,0.013020833333333334,39.9609375,0)" xlink:href="#br"/><use transform="matrix(0.013020833333333334,0,0,0.013020833333333334,46.705729166666664,0)" xlink:href="#bp"/><use transform="matrix(0.013020833333333334,0,0,0.013020833333333334,61.53645833333332,0)" xlink:href="#bA"/></g><g id="aq"><use transform="matrix(0.013020833333333334,0,0,0.013020833333333334,0,0)" xlink:href="#bz"/><use transform="matrix(0.013020833333333334,0,0,0.013020833333333334,16.341145833333336,0)" xlink:href="#br"/><use transform="matrix(0.013020833333333334,0,0,0.013020833333333334,23.085937500000004,0)" xlink:href="#bA"/><use transform="matrix(0.013020833333333334,0,0,0.013020833333333334,29.830729166666675,0)" xlink:href="#bl"/><use transform="matrix(0.013020833333333334,0,0,0.013020833333333334,45.93750000000001,0)" xlink:href="#bu"/></g><g id="ar"><use transform="matrix(0.013020833333333334,0,0,0.013020833333333334,0,0)" xlink:href="#by"/><use transform="matrix(0.013020833333333334,0,0,0.013020833333333334,14.635416666666668,0)" xlink:href="#bz"/><use transform="matrix(0.013020833333333334,0,0,0.013020833333333334,30.9765625,0)" xlink:href="#bA"/><use transform="matrix(0.013020833333333334,0,0,0.013020833333333334,37.72135416666667,0)" xlink:href="#bB"/><use transform="matrix(0.013020833333333334,0,0,0.013020833333333334,54.08854166666667,0)" xlink:href="#bn"/><use transform="matrix(0.013020833333333334,0,0,0.013020833333333334,70.45572916666667,0)" xlink:href="#bC"/></g><g id="as"><use transform="matrix(0.013020833333333334,0,0,0.013020833333333334,0,0)" xlink:href="#bO"/><use transform="matrix(0.013020833333333334,0,0,0.013020833333333334,7.434895833333334,0)" xlink:href="#bn"/><use transform="matrix(0.013020833333333334,0,0,0.013020833333333334,23.802083333333336,0)" xlink:href="#bk"/><use transform="matrix(0.013020833333333334,0,0,0.013020833333333334,32.83854166666667,0)" xlink:href="#bj"/><use transform="matrix(0.013020833333333334,0,0,0.013020833333333334,43.19010416666667,0)" xlink:href="#bp"/><use transform="matrix(0.013020833333333334,0,0,0.013020833333333334,58.02083333333335,0)" xlink:href="#bw"/><use transform="matrix(0.013020833333333334,0,0,0.013020833333333334,70.74218750000001,0)" xlink:href="#bu"/><use transform="matrix(0.013020833333333334,0,0,0.013020833333333334,80.15625000000001,0)" xlink:href="#bj"/><use transform="matrix(0.013020833333333334,0,0,0.013020833333333334,91.04166666666669,0)" xlink:href="#bB"/><use transform="matrix(0.013020833333333334,0,0,0.013020833333333334,107.4088541666667,0)" xlink:href="#bt"/><use transform="matrix(0.013020833333333334,0,0,0.013020833333333334,120.1041666666667,0)" xlink:href="#bu"/><use transform="matrix(0.013020833333333334,0,0,0.013020833333333334,129.51822916666669,0)" xlink:href="#bB"/><use transform="matrix(0.013020833333333334,0,0,0.013020833333333334,145.88541666666669,0)" xlink:href="#bj"/><use transform="matrix(0.013020833333333334,0,0,0.013020833333333334,156.23697916666669,0)" xlink:href="#bi"/></g><path fill="#333" d="M848 0L352-1296h-8c27 395 8 875 14 1296H201v-1462h256L920-256h8l467-1206h254V0h-170c6-439-13-873 14-1294h-8L985 0H848" id="bP"/><g id="at"><use transform="matrix(0.013020833333333334,0,0,0.013020833333333334,0,0)" xlink:href="#bP"/><use transform="matrix(0.013020833333333334,0,0,0.013020833333333334,24.075520833333336,0)" xlink:href="#bl"/><use transform="matrix(0.013020833333333334,0,0,0.013020833333333334,40.18229166666667,0)" xlink:href="#bn"/><use transform="matrix(0.013020833333333334,0,0,0.013020833333333334,56.54947916666667,0)" xlink:href="#br"/><use transform="matrix(0.013020833333333334,0,0,0.013020833333333334,63.294270833333336,0)" xlink:href="#bu"/><use transform="matrix(0.013020833333333334,0,0,0.013020833333333334,72.70833333333334,0)" xlink:href="#bl"/><use transform="matrix(0.013020833333333334,0,0,0.013020833333333334,88.81510416666669,0)" xlink:href="#bj"/><use transform="matrix(0.013020833333333334,0,0,0.013020833333333334,99.70052083333336,0)" xlink:href="#br"/><use transform="matrix(0.013020833333333334,0,0,0.013020833333333334,106.44531250000003,0)" xlink:href="#bn"/><use transform="matrix(0.013020833333333334,0,0,0.013020833333333334,122.81250000000003,0)" xlink:href="#bs"/></g><g id="av"><use transform="matrix(0.013020833333333334,0,0,0.013020833333333334,0,0)" xlink:href="#bh"/><use transform="matrix(0.013020833333333334,0,0,0.013020833333333334,16.0546875,0)" xlink:href="#bp"/><use transform="matrix(0.013020833333333334,0,0,0.013020833333333334,30.885416666666668,0)" xlink:href="#bj"/><use transform="matrix(0.013020833333333334,0,0,0.013020833333333334,41.770833333333336,0)" xlink:href="#bu"/></g><path fill="#333" d="M557-1483c261-2 449 121 449 365 0 202-125 312-301 348v8c212 25 346 130 346 348 0 303-232 437-557 434C328 19 210-2 94-59v-158c108 55 257 96 406 96 253 0 379-99 379-297 0-177-139-266-418-266H317v-143h146c207 3 370-92 371-285 1-150-117-233-273-229-171 4-249 44-375 122l-84-112c109-87 268-150 455-152" id="bQ"/><g id="aw"><use transform="matrix(0.013020833333333334,0,0,0.013020833333333334,0,0)" xlink:href="#bQ"/><use transform="matrix(0.013020833333333334,0,0,0.013020833333333334,15.247395833333334,0)" xlink:href="#bL"/></g><g id="ax"><use transform="matrix(0.013020833333333334,0,0,0.013020833333333334,0,0)" xlink:href="#bO"/><use transform="matrix(0.013020833333333334,0,0,0.013020833333333334,7.434895833333334,0)" xlink:href="#bn"/><use transform="matrix(0.013020833333333334,0,0,0.013020833333333334,23.802083333333336,0)" xlink:href="#bu"/><use transform="matrix(0.013020833333333334,0,0,0.013020833333333334,33.216145833333336,0)" xlink:href="#br"/><use transform="matrix(0.013020833333333334,0,0,0.013020833333333334,39.9609375,0)" xlink:href="#bp"/><use transform="matrix(0.013020833333333334,0,0,0.013020833333333334,54.79166666666667,0)" xlink:href="#bA"/></g><path fill="#333" d="M1120 0L938-465H352L172 0H0l578-1468h143L1296 0h-176zM885-618c-81-228-168-420-238-664-57 230-159 449-235 664h473" id="bR"/><g id="ay"><use transform="matrix(0.013020833333333334,0,0,0.013020833333333334,0,0)" xlink:href="#bR"/><use transform="matrix(0.013020833333333334,0,0,0.013020833333333334,16.875,0)" xlink:href="#bz"/><use transform="matrix(0.013020833333333334,0,0,0.013020833333333334,33.216145833333336,0)" xlink:href="#bz"/><use transform="matrix(0.013020833333333334,0,0,0.013020833333333334,49.55729166666667,0)" xlink:href="#bA"/><use transform="matrix(0.013020833333333334,0,0,0.013020833333333334,56.302083333333336,0)" xlink:href="#br"/><use transform="matrix(0.013020833333333334,0,0,0.013020833333333334,63.046875,0)" xlink:href="#bt"/><use transform="matrix(0.013020833333333334,0,0,0.013020833333333334,75.7421875,0)" xlink:href="#bp"/><use transform="matrix(0.013020833333333334,0,0,0.013020833333333334,90.57291666666667,0)" xlink:href="#bu"/><use transform="matrix(0.013020833333333334,0,0,0.013020833333333334,99.98697916666667,0)" xlink:href="#br"/><use transform="matrix(0.013020833333333334,0,0,0.013020833333333334,106.73177083333334,0)" xlink:href="#bl"/><use transform="matrix(0.013020833333333334,0,0,0.013020833333333334,122.8385416666667,0)" xlink:href="#bn"/></g><g id="az"><use transform="matrix(0.013020833333333334,0,0,0.013020833333333334,0,0)" xlink:href="#bh"/><use transform="matrix(0.013020833333333334,0,0,0.013020833333333334,16.0546875,0)" xlink:href="#bi"/><use transform="matrix(0.013020833333333334,0,0,0.013020833333333334,31.015625,0)" xlink:href="#bj"/><use transform="matrix(0.013020833333333334,0,0,0.013020833333333334,41.90104166666667,0)" xlink:href="#bk"/><use transform="matrix(0.013020833333333334,0,0,0.013020833333333334,50.93750000000001,0)" xlink:href="#bl"/><use transform="matrix(0.013020833333333334,0,0,0.013020833333333334,67.04427083333334,0)" xlink:href="#bj"/><use transform="matrix(0.013020833333333334,0,0,0.013020833333333334,77.92968750000001,0)" xlink:href="#bm"/><use transform="matrix(0.013020833333333334,0,0,0.013020833333333334,102.73437500000001,0)" xlink:href="#bp"/><use transform="matrix(0.013020833333333334,0,0,0.013020833333333334,117.5651041666667,0)" xlink:href="#bn"/><use transform="matrix(0.013020833333333334,0,0,0.013020833333333334,133.93229166666669,0)" xlink:href="#bt"/><use transform="matrix(0.013020833333333334,0,0,0.013020833333333334,146.62760416666669,0)" xlink:href="#bi"/></g><g id="aA"><use transform="matrix(0.013020833333333334,0,0,0.013020833333333334,0,0)" xlink:href="#bP"/><use transform="matrix(0.013020833333333334,0,0,0.013020833333333334,24.075520833333336,0)" xlink:href="#bl"/><use transform="matrix(0.013020833333333334,0,0,0.013020833333333334,40.18229166666667,0)" xlink:href="#bn"/><use transform="matrix(0.013020833333333334,0,0,0.013020833333333334,56.54947916666667,0)" xlink:href="#br"/><use transform="matrix(0.013020833333333334,0,0,0.013020833333333334,63.294270833333336,0)" xlink:href="#bu"/><use transform="matrix(0.013020833333333334,0,0,0.013020833333333334,72.70833333333334,0)" xlink:href="#bl"/><use transform="matrix(0.013020833333333334,0,0,0.013020833333333334,88.81510416666669,0)" xlink:href="#bj"/><use transform="matrix(0.013020833333333334,0,0,0.013020833333333334,99.70052083333336,0)" xlink:href="#br"/><use transform="matrix(0.013020833333333334,0,0,0.013020833333333334,106.44531250000003,0)" xlink:href="#bn"/><use transform="matrix(0.013020833333333334,0,0,0.013020833333333334,122.81250000000003,0)" xlink:href="#bs"/></g><path fill="#333" d="M1016 0H201v-1462h815v151H371v471h606v150H371v538h645V0" id="bS"/><g id="aB"><use transform="matrix(0.013020833333333334,0,0,0.013020833333333334,0,0)" xlink:href="#bS"/><use transform="matrix(0.013020833333333334,0,0,0.013020833333333334,14.830729166666668,0)" xlink:href="#bG"/><use transform="matrix(0.013020833333333334,0,0,0.013020833333333334,28.802083333333336,0)" xlink:href="#bz"/><use transform="matrix(0.013020833333333334,0,0,0.013020833333333334,45.14322916666667,0)" xlink:href="#bp"/><use transform="matrix(0.013020833333333334,0,0,0.013020833333333334,59.97395833333335,0)" xlink:href="#bn"/><use transform="matrix(0.013020833333333334,0,0,0.013020833333333334,76.34114583333334,0)" xlink:href="#bq"/></g><path fill="#333" d="M877 0H82v-113l598-854H119v-129h743v129L272-129h605V0" id="bT"/><g id="aC"><use transform="matrix(0.013020833333333334,0,0,0.013020833333333334,0,0)" xlink:href="#bl"/><use transform="matrix(0.013020833333333334,0,0,0.013020833333333334,16.106770833333336,0)" xlink:href="#bz"/><use transform="matrix(0.013020833333333334,0,0,0.013020833333333334,32.44791666666667,0)" xlink:href="#bu"/><use transform="matrix(0.013020833333333334,0,0,0.013020833333333334,41.86197916666667,0)" xlink:href="#br"/><use transform="matrix(0.013020833333333334,0,0,0.013020833333333334,48.606770833333336,0)" xlink:href="#bm"/><use transform="matrix(0.013020833333333334,0,0,0.013020833333333334,73.41145833333334,0)" xlink:href="#br"/><use transform="matrix(0.013020833333333334,0,0,0.013020833333333334,80.15625000000001,0)" xlink:href="#bT"/><use transform="matrix(0.013020833333333334,0,0,0.013020833333333334,92.63020833333334,0)" xlink:href="#bi"/></g><g id="aD"><use transform="matrix(0.013020833333333334,0,0,0.013020833333333334,0,0)" xlink:href="#bh"/><use transform="matrix(0.013020833333333334,0,0,0.013020833333333334,16.0546875,0)" xlink:href="#bp"/><use transform="matrix(0.013020833333333334,0,0,0.013020833333333334,30.885416666666668,0)" xlink:href="#bj"/><use transform="matrix(0.013020833333333334,0,0,0.013020833333333334,41.770833333333336,0)" xlink:href="#bu"/></g><g id="aE"><use transform="matrix(0.013020833333333334,0,0,0.013020833333333334,0,0)" xlink:href="#bM"/><use transform="matrix(0.013020833333333334,0,0,0.013020833333333334,15.247395833333334,0)" xlink:href="#bL"/></g><g id="aF"><use transform="matrix(0.013020833333333334,0,0,0.013020833333333334,0,0)" xlink:href="#bS"/><use transform="matrix(0.013020833333333334,0,0,0.013020833333333334,14.830729166666668,0)" xlink:href="#bG"/><use transform="matrix(0.013020833333333334,0,0,0.013020833333333334,28.802083333333336,0)" xlink:href="#bz"/><use transform="matrix(0.013020833333333334,0,0,0.013020833333333334,45.14322916666667,0)" xlink:href="#bp"/><use transform="matrix(0.013020833333333334,0,0,0.013020833333333334,59.97395833333335,0)" xlink:href="#bn"/><use transform="matrix(0.013020833333333334,0,0,0.013020833333333334,76.34114583333334,0)" xlink:href="#bq"/></g><g id="aG"><use transform="matrix(0.013020833333333334,0,0,0.013020833333333334,0,0)" xlink:href="#bp"/><use transform="matrix(0.013020833333333334,0,0,0.013020833333333334,14.830729166666668,0)" xlink:href="#bn"/><use transform="matrix(0.013020833333333334,0,0,0.013020833333333334,31.197916666666668,0)" xlink:href="#bq"/></g><g id="aH"><use transform="matrix(0.013020833333333334,0,0,0.013020833333333334,0,0)" xlink:href="#bl"/><use transform="matrix(0.013020833333333334,0,0,0.013020833333333334,16.106770833333336,0)" xlink:href="#bz"/><use transform="matrix(0.013020833333333334,0,0,0.013020833333333334,32.44791666666667,0)" xlink:href="#bu"/><use transform="matrix(0.013020833333333334,0,0,0.013020833333333334,41.86197916666667,0)" xlink:href="#br"/><use transform="matrix(0.013020833333333334,0,0,0.013020833333333334,48.606770833333336,0)" xlink:href="#bm"/><use transform="matrix(0.013020833333333334,0,0,0.013020833333333334,73.41145833333334,0)" xlink:href="#br"/><use transform="matrix(0.013020833333333334,0,0,0.013020833333333334,80.15625000000001,0)" xlink:href="#bT"/><use transform="matrix(0.013020833333333334,0,0,0.013020833333333334,92.63020833333334,0)" xlink:href="#bi"/></g><g id="aI"><use transform="matrix(0.013020833333333334,0,0,0.013020833333333334,0,0)" xlink:href="#by"/><use transform="matrix(0.013020833333333334,0,0,0.013020833333333334,14.635416666666668,0)" xlink:href="#bz"/><use transform="matrix(0.013020833333333334,0,0,0.013020833333333334,30.9765625,0)" xlink:href="#bA"/><use transform="matrix(0.013020833333333334,0,0,0.013020833333333334,37.72135416666667,0)" xlink:href="#bB"/><use transform="matrix(0.013020833333333334,0,0,0.013020833333333334,54.08854166666667,0)" xlink:href="#bn"/><use transform="matrix(0.013020833333333334,0,0,0.013020833333333334,70.45572916666667,0)" xlink:href="#bC"/></g><g id="aJ"><use transform="matrix(0.013020833333333334,0,0,0.013020833333333334,0,0)" xlink:href="#bR"/><use transform="matrix(0.013020833333333334,0,0,0.013020833333333334,16.875,0)" xlink:href="#bz"/><use transform="matrix(0.013020833333333334,0,0,0.013020833333333334,33.216145833333336,0)" xlink:href="#bz"/><use transform="matrix(0.013020833333333334,0,0,0.013020833333333334,49.55729166666667,0)" xlink:href="#bA"/><use transform="matrix(0.013020833333333334,0,0,0.013020833333333334,56.302083333333336,0)" xlink:href="#br"/><use transform="matrix(0.013020833333333334,0,0,0.013020833333333334,63.046875,0)" xlink:href="#bt"/><use transform="matrix(0.013020833333333334,0,0,0.013020833333333334,75.7421875,0)" xlink:href="#bp"/><use transform="matrix(0.013020833333333334,0,0,0.013020833333333334,90.57291666666667,0)" xlink:href="#bu"/><use transform="matrix(0.013020833333333334,0,0,0.013020833333333334,99.98697916666667,0)" xlink:href="#br"/><use transform="matrix(0.013020833333333334,0,0,0.013020833333333334,106.73177083333334,0)" xlink:href="#bl"/><use transform="matrix(0.013020833333333334,0,0,0.013020833333333334,122.8385416666667,0)" xlink:href="#bn"/></g><g id="aK"><use transform="matrix(0.013020833333333334,0,0,0.013020833333333334,0,0)" xlink:href="#bh"/><use transform="matrix(0.013020833333333334,0,0,0.013020833333333334,16.0546875,0)" xlink:href="#bi"/><use transform="matrix(0.013020833333333334,0,0,0.013020833333333334,31.015625,0)" xlink:href="#bj"/><use transform="matrix(0.013020833333333334,0,0,0.013020833333333334,41.90104166666667,0)" xlink:href="#bk"/><use transform="matrix(0.013020833333333334,0,0,0.013020833333333334,50.93750000000001,0)" xlink:href="#bl"/><use transform="matrix(0.013020833333333334,0,0,0.013020833333333334,67.04427083333334,0)" xlink:href="#bj"/><use transform="matrix(0.013020833333333334,0,0,0.013020833333333334,77.92968750000001,0)" xlink:href="#bm"/><use transform="matrix(0.013020833333333334,0,0,0.013020833333333334,102.73437500000001,0)" xlink:href="#bp"/><use transform="matrix(0.013020833333333334,0,0,0.013020833333333334,117.5651041666667,0)" xlink:href="#bn"/><use transform="matrix(0.013020833333333334,0,0,0.013020833333333334,133.93229166666669,0)" xlink:href="#bt"/><use transform="matrix(0.013020833333333334,0,0,0.013020833333333334,146.62760416666669,0)" xlink:href="#bi"/></g><g id="aL"><use transform="matrix(0.013020833333333334,0,0,0.013020833333333334,0,0)" xlink:href="#bP"/><use transform="matrix(0.013020833333333334,0,0,0.013020833333333334,24.075520833333336,0)" xlink:href="#bl"/><use transform="matrix(0.013020833333333334,0,0,0.013020833333333334,40.18229166666667,0)" xlink:href="#bn"/><use transform="matrix(0.013020833333333334,0,0,0.013020833333333334,56.54947916666667,0)" xlink:href="#br"/><use transform="matrix(0.013020833333333334,0,0,0.013020833333333334,63.294270833333336,0)" xlink:href="#bu"/><use transform="matrix(0.013020833333333334,0,0,0.013020833333333334,72.70833333333334,0)" xlink:href="#bl"/><use transform="matrix(0.013020833333333334,0,0,0.013020833333333334,88.81510416666669,0)" xlink:href="#bj"/><use transform="matrix(0.013020833333333334,0,0,0.013020833333333334,99.70052083333336,0)" xlink:href="#br"/><use transform="matrix(0.013020833333333334,0,0,0.013020833333333334,106.44531250000003,0)" xlink:href="#bn"/><use transform="matrix(0.013020833333333334,0,0,0.013020833333333334,122.81250000000003,0)" xlink:href="#bs"/></g></defs></g></svg>