<svg width="502" height="269" viewBox="0 0 502 269" fill="none" xmlns="http://www.w3.org/2000/svg">
<path d="M40.827 9.32935L29.2047 20.9793L24.9985 16.7801L14.2617 27.4615" stroke="#2C2C2C" stroke-width="1.9"/>
<path d="M46.7635 44.798L62.9517 61M15.0443 38.6825V48.4023M23.9824 31.1764V51.6399M41.7272 26.9218V48.6444M32.796 34.3587V51.8821M54.2626 26.6244C54.2626 40.7786 42.8064 52.2902 28.6659 52.2902C14.4424 52.2902 3 40.7786 3 26.6244C3 12.4562 14.4424 1 28.6659 1C42.8064 1 54.2626 12.4562 54.2626 26.6174V26.6244Z" stroke="#2C2C2C" stroke-width="1.9"/>
<path d="M33.5713 9.28076H41.0082V16.7176" stroke="#2C2C2C" stroke-width="1.9"/>
<path d="M1.833 101V89.96H6.153C7.95567 89.96 9.289 90.456 10.153 91.448C11.0277 92.4293 11.465 93.7733 11.465 95.48C11.465 97.1867 11.0277 98.536 10.153 99.528C9.289 100.509 7.95567 101 6.153 101H1.833ZM6.025 92.008H4.185V98.952H6.025C7.05967 98.952 7.82233 98.6693 8.313 98.104C8.81433 97.528 9.065 96.6587 9.065 95.496C9.065 94.312 8.81433 93.4373 8.313 92.872C7.82233 92.296 7.05967 92.008 6.025 92.008ZM20.3269 98.488C20.2629 98.9467 20.0762 99.384 19.7669 99.8C19.4575 100.205 19.0309 100.536 18.4869 100.792C17.9429 101.037 17.2815 101.16 16.5029 101.16C15.5962 101.16 14.8389 100.984 14.2309 100.632C13.6335 100.269 13.1855 99.768 12.8869 99.128C12.5882 98.488 12.4389 97.752 12.4389 96.92C12.4389 96.0667 12.5935 95.3147 12.9029 94.664C13.2122 94.0027 13.6709 93.4853 14.2789 93.112C14.8869 92.7387 15.6335 92.552 16.5189 92.552C17.3722 92.552 18.0869 92.7333 18.6629 93.096C19.2389 93.448 19.6709 93.9333 19.9589 94.552C20.2469 95.16 20.3909 95.8533 20.3909 96.632C20.3909 96.7707 20.3855 96.92 20.3749 97.08C20.3642 97.24 20.3482 97.3787 20.3269 97.496H14.7269C14.8015 98.0933 14.9829 98.5627 15.2709 98.904C15.5695 99.2453 16.0015 99.416 16.5669 99.416C16.9722 99.416 17.3135 99.336 17.5909 99.176C17.8682 99.016 18.0602 98.7867 18.1669 98.488H20.3269ZM16.5829 94.216C15.5909 94.216 14.9882 94.792 14.7749 95.944H17.7189C17.8789 95.944 17.9855 95.9173 18.0389 95.864C18.1029 95.8107 18.1349 95.72 18.1349 95.592C18.1349 95.2507 18.0015 94.936 17.7349 94.648C17.4682 94.36 17.0842 94.216 16.5829 94.216ZM22.202 98.616V94.52H20.858V92.776H21.706C21.93 92.776 22.0847 92.744 22.17 92.68C22.2553 92.6053 22.3087 92.4507 22.33 92.216L22.57 90.312H24.426V92.712H26.298V94.52H24.442V98.232C24.442 98.616 24.5167 98.888 24.666 99.048C24.826 99.208 25.1247 99.288 25.562 99.288H26.458V101.032C26.2553 101.064 26.0047 101.091 25.706 101.112C25.418 101.144 25.1247 101.16 24.826 101.16C23.9087 101.16 23.242 100.952 22.826 100.536C22.41 100.12 22.202 99.48 22.202 98.616ZM34.9681 98.488C34.9041 98.9467 34.7175 99.384 34.4081 99.8C34.0988 100.205 33.6721 100.536 33.1281 100.792C32.5841 101.037 31.9228 101.16 31.1441 101.16C30.2375 101.16 29.4801 100.984 28.8721 100.632C28.2748 100.269 27.8268 99.768 27.5281 99.128C27.2295 98.488 27.0801 97.752 27.0801 96.92C27.0801 96.0667 27.2348 95.3147 27.5441 94.664C27.8535 94.0027 28.3121 93.4853 28.9201 93.112C29.5281 92.7387 30.2748 92.552 31.1601 92.552C32.0135 92.552 32.7281 92.7333 33.3041 93.096C33.8801 93.448 34.3121 93.9333 34.6001 94.552C34.8881 95.16 35.0321 95.8533 35.0321 96.632C35.0321 96.7707 35.0268 96.92 35.0161 97.08C35.0055 97.24 34.9895 97.3787 34.9681 97.496H29.3681C29.4428 98.0933 29.6241 98.5627 29.9121 98.904C30.2108 99.2453 30.6428 99.416 31.2081 99.416C31.6135 99.416 31.9548 99.336 32.2321 99.176C32.5095 99.016 32.7015 98.7867 32.8081 98.488H34.9681ZM31.2241 94.216C30.2321 94.216 29.6295 94.792 29.4161 95.944H32.3601C32.5201 95.944 32.6268 95.9173 32.6801 95.864C32.7441 95.8107 32.7761 95.72 32.7761 95.592C32.7761 95.2507 32.6428 94.936 32.3761 94.648C32.1095 94.36 31.7255 94.216 31.2241 94.216ZM41.6288 97.864H43.7888C43.7354 98.4293 43.5594 98.968 43.2608 99.48C42.9621 99.9813 42.5408 100.387 41.9968 100.696C41.4528 101.005 40.7808 101.16 39.9808 101.16C39.0848 101.16 38.3328 100.984 37.7248 100.632C37.1168 100.269 36.6581 99.768 36.3488 99.128C36.0501 98.488 35.9008 97.7467 35.9008 96.904C35.9008 96.0507 36.0554 95.2987 36.3648 94.648C36.6741 93.9867 37.1328 93.4747 37.7408 93.112C38.3594 92.7387 39.1168 92.552 40.0128 92.552C40.8128 92.552 41.4794 92.7067 42.0128 93.016C42.5461 93.3253 42.9514 93.7307 43.2288 94.232C43.5168 94.7227 43.6874 95.2613 43.7408 95.848H41.5808C41.3888 94.952 40.8608 94.504 39.9968 94.504C39.4101 94.504 38.9621 94.7173 38.6528 95.144C38.3434 95.56 38.1888 96.1467 38.1888 96.904C38.1888 97.6187 38.3381 98.184 38.6368 98.6C38.9461 99.0053 39.3941 99.208 39.9808 99.208C40.4181 99.208 40.7808 99.096 41.0688 98.872C41.3568 98.648 41.5434 98.312 41.6288 97.864ZM45.5389 98.616V94.52H44.1949V92.776H45.0429C45.2669 92.776 45.4215 92.744 45.5069 92.68C45.5922 92.6053 45.6455 92.4507 45.6669 92.216L45.9069 90.312H47.7629V92.712H49.6349V94.52H47.7789V98.232C47.7789 98.616 47.8535 98.888 48.0029 99.048C48.1629 99.208 48.4615 99.288 48.8989 99.288H49.7949V101.032C49.5922 101.064 49.3415 101.091 49.0429 101.112C48.7549 101.144 48.4615 101.16 48.1629 101.16C47.2455 101.16 46.5789 100.952 46.1629 100.536C45.7469 100.12 45.5389 99.48 45.5389 98.616ZM54.561 101.16C53.6437 101.16 52.8757 100.979 52.257 100.616C51.6383 100.253 51.1743 99.752 50.865 99.112C50.5663 98.4613 50.417 97.7147 50.417 96.872C50.417 96.0187 50.5717 95.272 50.881 94.632C51.1903 93.9813 51.6543 93.4747 52.273 93.112C52.8917 92.7387 53.6543 92.552 54.561 92.552C55.489 92.552 56.257 92.7333 56.865 93.096C57.4837 93.4587 57.9423 93.96 58.241 94.6C58.5503 95.24 58.705 95.9867 58.705 96.84C58.705 97.6827 58.5503 98.4293 58.241 99.08C57.9317 99.7307 57.4677 100.243 56.849 100.616C56.241 100.979 55.4783 101.16 54.561 101.16ZM54.561 99.208C55.169 99.208 55.6277 99 55.937 98.584C56.257 98.168 56.417 97.5867 56.417 96.84C56.417 96.104 56.257 95.5333 55.937 95.128C55.6277 94.712 55.169 94.504 54.561 94.504C53.953 94.504 53.489 94.712 53.169 95.128C52.8597 95.5333 52.705 96.1147 52.705 96.872C52.705 97.608 52.8597 98.184 53.169 98.6C53.489 99.0053 53.953 99.208 54.561 99.208ZM59.9337 101V92.712H61.8697L62.0457 93.88C62.2591 93.5173 62.5524 93.2187 62.9257 92.984C63.2991 92.7493 63.7471 92.632 64.2697 92.632C64.3871 92.632 64.5097 92.6427 64.6377 92.664C64.7764 92.6747 64.8831 92.6907 64.9577 92.712V94.712H64.3337C63.6191 94.712 63.0804 94.8613 62.7177 95.16C62.3551 95.448 62.1737 95.9387 62.1737 96.632V101H59.9337Z" fill="#2C2C2C"/>
<path d="M275.309 26.0226V45.6446M229.75 26.0226V45.6446M261.013 9.99856L256.998 12.9344M244.06 9.99856L248.068 12.9344M267.711 24.7663H237.41C236.263 24.7663 235.348 25.7222 235.348 26.8009V43.8558C235.348 44.2109 235.349 44.5727 235.396 44.996C235.99 54.4179 244.19 61.614 253.667 60.9585C262.836 60.3577 269.711 52.3765 269.711 43.255V26.8009C269.711 25.729 268.803 24.7731 267.711 24.7731V24.7663ZM269.574 16.7236C268.434 8.20297 261.245 1 252.533 1C243.835 1 236.625 8.20297 235.492 16.7236V16.9625C235.492 18.1027 236.407 19.0108 237.54 19.0108H267.526C268.755 19.0108 269.759 17.9184 269.574 16.7236Z" stroke="#2C2C2C" stroke-width="1.9"/>
<path d="M218.009 101V89.96H222.537C223.422 89.96 224.142 90.088 224.697 90.344C225.251 90.6 225.657 90.952 225.913 91.4C226.179 91.8373 226.313 92.344 226.313 92.92C226.313 93.4 226.19 93.8533 225.945 94.28C225.699 94.7067 225.305 95.0267 224.761 95.24C225.401 95.432 225.87 95.7733 226.169 96.264C226.478 96.7547 226.633 97.2827 226.633 97.848C226.633 98.7867 226.307 99.5493 225.657 100.136C225.017 100.712 224.03 101 222.697 101H218.009ZM222.377 91.88H220.281V94.408H222.377C222.953 94.408 223.358 94.2907 223.593 94.056C223.838 93.8107 223.961 93.496 223.961 93.112C223.961 92.7387 223.827 92.44 223.561 92.216C223.305 91.992 222.91 91.88 222.377 91.88ZM222.457 96.216H220.281V99.08H222.457C223.097 99.08 223.55 98.952 223.817 98.696C224.094 98.4293 224.233 98.0773 224.233 97.64C224.233 97.2027 224.083 96.856 223.785 96.6C223.497 96.344 223.054 96.216 222.457 96.216ZM227.668 98.152V92.712H229.908V97.752C229.908 98.7013 230.335 99.176 231.188 99.176C231.593 99.176 231.956 99.0533 232.276 98.808C232.607 98.552 232.772 98.1893 232.772 97.72V92.712H235.012V101H233.076L232.916 99.96C232.692 100.312 232.377 100.6 231.972 100.824C231.567 101.048 231.071 101.16 230.484 101.16C229.631 101.16 228.948 100.915 228.436 100.424C227.924 99.9227 227.668 99.1653 227.668 98.152ZM244.008 101.448C244.008 102.323 243.661 103 242.968 103.48C242.285 103.96 241.229 104.2 239.8 104.2C238.413 104.2 237.416 103.987 236.808 103.56C236.21 103.144 235.912 102.627 235.912 102.008C235.912 101.517 236.056 101.155 236.344 100.92C236.642 100.675 236.952 100.509 237.272 100.424C237.037 100.296 236.834 100.12 236.664 99.896C236.504 99.6613 236.424 99.3573 236.424 98.984C236.424 98.6213 236.525 98.3067 236.728 98.04C236.941 97.7627 237.234 97.5547 237.608 97.416C237.192 97.1813 236.888 96.8773 236.696 96.504C236.514 96.1307 236.424 95.7253 236.424 95.288C236.424 94.488 236.712 93.832 237.288 93.32C237.874 92.808 238.738 92.552 239.88 92.552C240.306 92.552 240.685 92.5893 241.016 92.664C241.357 92.7387 241.656 92.84 241.912 92.968H244.216V94.456L243.16 94.408C243.256 94.5467 243.33 94.7013 243.384 94.872C243.437 95.0427 243.464 95.2347 243.464 95.448C243.464 95.8747 243.341 96.28 243.096 96.664C242.861 97.0373 242.482 97.3413 241.96 97.576C241.437 97.8107 240.754 97.928 239.912 97.928C239.528 97.928 239.17 97.9013 238.84 97.848C238.658 97.9227 238.53 98.0187 238.456 98.136C238.381 98.2427 238.344 98.3493 238.344 98.456C238.344 98.8187 238.578 99 239.048 99H241.112C242.061 99 242.781 99.2187 243.272 99.656C243.762 100.093 244.008 100.691 244.008 101.448ZM238.6 95.272C238.6 95.5813 238.712 95.8267 238.936 96.008C239.16 96.1893 239.501 96.28 239.96 96.28C240.429 96.28 240.776 96.1893 241 96.008C241.224 95.8267 241.336 95.5813 241.336 95.272C241.336 94.9627 241.224 94.712 241 94.52C240.776 94.328 240.429 94.232 239.96 94.232C239.501 94.232 239.16 94.328 238.936 94.52C238.712 94.712 238.6 94.9627 238.6 95.272ZM240.696 100.712H239.016C238.824 100.712 238.626 100.781 238.424 100.92C238.221 101.048 238.12 101.251 238.12 101.528C238.12 101.795 238.258 102.029 238.536 102.232C238.824 102.435 239.282 102.536 239.912 102.536C240.573 102.536 241.048 102.435 241.336 102.232C241.634 102.029 241.784 101.779 241.784 101.48C241.784 101.224 241.682 101.032 241.48 100.904C241.277 100.776 241.016 100.712 240.696 100.712ZM244.706 102.584L249.858 89.4H251.922L246.77 102.584H244.706ZM253.151 101V89.96H255.503V101H253.151ZM256.69 98.552H258.85C258.946 98.8933 259.138 99.128 259.426 99.256C259.714 99.384 260.018 99.448 260.338 99.448C260.732 99.448 261.063 99.3787 261.33 99.24C261.596 99.0907 261.73 98.8667 261.73 98.568C261.73 98.312 261.628 98.1253 261.426 98.008C261.223 97.8907 260.908 97.8107 260.482 97.768L259.794 97.688C259.218 97.6133 258.711 97.4907 258.274 97.32C257.836 97.1387 257.495 96.8773 257.25 96.536C257.004 96.184 256.882 95.7253 256.882 95.16C256.882 94.3813 257.191 93.752 257.81 93.272C258.428 92.792 259.266 92.552 260.322 92.552C261.378 92.552 262.204 92.792 262.802 93.272C263.399 93.752 263.735 94.3867 263.81 95.176H261.682C261.607 94.8133 261.436 94.5733 261.17 94.456C260.903 94.328 260.626 94.264 260.338 94.264C259.943 94.264 259.634 94.3387 259.41 94.488C259.186 94.6267 259.074 94.8187 259.074 95.064C259.074 95.2667 259.148 95.432 259.298 95.56C259.447 95.6773 259.746 95.7627 260.194 95.816L260.882 95.896C261.447 95.96 261.964 96.0773 262.434 96.248C262.903 96.4187 263.276 96.68 263.554 97.032C263.842 97.384 263.986 97.864 263.986 98.472C263.986 99.2613 263.676 99.9067 263.058 100.408C262.439 100.909 261.543 101.16 260.37 101.16C259.25 101.16 258.375 100.925 257.746 100.456C257.127 99.9867 256.775 99.352 256.69 98.552ZM264.62 98.552H266.78C266.876 98.8933 267.068 99.128 267.356 99.256C267.644 99.384 267.948 99.448 268.268 99.448C268.662 99.448 268.993 99.3787 269.26 99.24C269.526 99.0907 269.66 98.8667 269.66 98.568C269.66 98.312 269.558 98.1253 269.356 98.008C269.153 97.8907 268.838 97.8107 268.412 97.768L267.724 97.688C267.148 97.6133 266.641 97.4907 266.204 97.32C265.766 97.1387 265.425 96.8773 265.18 96.536C264.934 96.184 264.812 95.7253 264.812 95.16C264.812 94.3813 265.121 93.752 265.74 93.272C266.358 92.792 267.196 92.552 268.252 92.552C269.308 92.552 270.134 92.792 270.732 93.272C271.329 93.752 271.665 94.3867 271.74 95.176H269.612C269.537 94.8133 269.366 94.5733 269.1 94.456C268.833 94.328 268.556 94.264 268.268 94.264C267.873 94.264 267.564 94.3387 267.34 94.488C267.116 94.6267 267.004 94.8187 267.004 95.064C267.004 95.2667 267.078 95.432 267.228 95.56C267.377 95.6773 267.676 95.7627 268.124 95.816L268.812 95.896C269.377 95.96 269.894 96.0773 270.364 96.248C270.833 96.4187 271.206 96.68 271.484 97.032C271.772 97.384 271.916 97.864 271.916 98.472C271.916 99.2613 271.606 99.9067 270.988 100.408C270.369 100.909 269.473 101.16 268.3 101.16C267.18 101.16 266.305 100.925 265.676 100.456C265.057 99.9867 264.705 99.352 264.62 98.552ZM272.951 98.152V92.712H275.191V97.752C275.191 98.7013 275.618 99.176 276.471 99.176C276.877 99.176 277.239 99.0533 277.559 98.808C277.89 98.552 278.055 98.1893 278.055 97.72V92.712H280.295V101H278.359L278.199 99.96C277.975 100.312 277.661 100.6 277.255 100.824C276.85 101.048 276.354 101.16 275.767 101.16C274.914 101.16 274.231 100.915 273.719 100.424C273.207 99.9227 272.951 99.1653 272.951 98.152ZM289.419 98.488C289.355 98.9467 289.168 99.384 288.859 99.8C288.549 100.205 288.123 100.536 287.579 100.792C287.035 101.037 286.373 101.16 285.595 101.16C284.688 101.16 283.931 100.984 283.323 100.632C282.725 100.269 282.277 99.768 281.979 99.128C281.68 98.488 281.531 97.752 281.531 96.92C281.531 96.0667 281.685 95.3147 281.995 94.664C282.304 94.0027 282.763 93.4853 283.371 93.112C283.979 92.7387 284.725 92.552 285.611 92.552C286.464 92.552 287.179 92.7333 287.755 93.096C288.331 93.448 288.763 93.9333 289.051 94.552C289.339 95.16 289.483 95.8533 289.483 96.632C289.483 96.7707 289.477 96.92 289.467 97.08C289.456 97.24 289.44 97.3787 289.419 97.496H283.819C283.893 98.0933 284.075 98.5627 284.363 98.904C284.661 99.2453 285.093 99.416 285.659 99.416C286.064 99.416 286.405 99.336 286.683 99.176C286.96 99.016 287.152 98.7867 287.259 98.488H289.419ZM285.675 94.216C284.683 94.216 284.08 94.792 283.867 95.944H286.811C286.971 95.944 287.077 95.9173 287.131 95.864C287.195 95.8107 287.227 95.72 287.227 95.592C287.227 95.2507 287.093 94.936 286.827 94.648C286.56 94.36 286.176 94.216 285.675 94.216Z" fill="#2C2C2C"/>
<path d="M443.596 2.74912C444.02 2.74912 444.437 2.87539 444.734 3.16585C445.341 3.82887 445.341 4.84551 444.734 5.50221C444.437 5.80531 444.02 5.98844 443.596 5.98844C443.115 5.98844 442.755 5.799 442.394 5.50853C441.793 4.8392 441.793 3.82255 442.394 3.15953C442.755 2.86275 443.115 2.7428 443.596 2.7428V2.74912ZM466.726 44.3172C467.333 45.157 467.693 46.18 467.693 47.2597C467.693 50.1454 465.416 52.425 462.589 52.425C462.045 52.425 461.628 52.3618 461.147 52.2355C461.508 51.642 461.868 51.0358 462.286 50.3854C463.551 48.4658 465.05 46.4262 466.732 44.3235L466.726 44.3172ZM453.874 3.58895C459.945 3.58895 466.915 8.14798 472.557 11.8609C476.763 14.6834 480.128 16.9124 482.892 17.1461C483.916 17.2724 484.998 17.3229 486.136 17.3229C487.515 17.3229 488.774 17.2597 489.855 17.1966C490.817 17.1461 491.778 17.0829 492.619 17.0829C493.998 17.0829 495.2 17.2092 496.401 17.746C490.937 19.2425 480.969 26.6809 473.455 34.1825C467.87 39.8213 462.279 46.7798 459.161 52.1787C459.161 52.2418 458.737 52.9554 458.737 52.9554C457.953 54.5151 457.346 55.8979 456.992 57.0345C456.151 55.2286 456.271 53.2459 456.454 50.5496C456.581 48.5732 456.694 46.2305 456.391 43.5405C456.264 42.3408 455.79 41.0147 455.012 39.5119C455.961 36.2157 460.534 29.9139 465.701 24.755C466.061 24.3951 466.061 23.8584 465.701 23.5553C465.574 23.3785 465.34 23.2585 465.1 23.2585C464.91 23.2585 464.676 23.3848 464.499 23.5616C460.35 27.7039 455.727 33.5195 453.924 37.5986C453.083 36.2852 452.122 34.7887 451.097 33.229C448.282 28.9668 445.038 24.1109 443.596 19.3688C441.977 14.153 442.818 10.1939 446.126 6.8914C448.339 4.68134 450.869 3.59523 453.867 3.59523L453.874 3.58895ZM498.084 19.1856C498.4 19.1856 498.514 19.2488 498.514 19.3119C498.754 19.6024 498.754 22.0019 494.782 28.0638C491.664 32.7996 487.041 38.4447 482.354 43.0669C473.588 51.8819 462.893 59.2635 458.99 59.2635C458.687 59.2635 458.567 59.2635 458.567 59.2004C458.377 58.9667 458.314 57.4071 460.306 53.751C461.027 53.991 461.748 54.1677 462.583 54.1677C466.314 54.1677 469.439 51.0484 469.439 47.2724C469.439 45.6559 468.832 44.1593 467.87 42.9596C469.97 40.3707 472.31 37.8007 474.657 35.4012C483.486 26.643 494.181 19.2046 498.084 19.2046V19.1856ZM443.602 1C442.704 1 441.863 1.31574 441.199 1.96613C439.934 3.29217 439.934 5.38857 441.199 6.70197C441.8 7.24502 442.527 7.54809 443.242 7.66807C434.766 19.855 453.994 36.7146 454.715 43.7237C455.505 51.3452 452.798 55.658 457.308 60.3938L457.548 60.5832C457.909 60.88 458.39 61 458.99 61C463.797 61 475.207 52.6649 483.619 44.3298C492.992 34.9086 502.366 21.7114 499.899 18.289C497.559 15.8895 495.282 15.3528 492.626 15.3528C490.709 15.3528 488.609 15.5927 486.143 15.5927C485.175 15.5927 484.157 15.5927 483.075 15.4664C477.307 14.8729 464.872 1.85248 453.874 1.85248C451.407 1.85248 449.067 2.50916 446.916 3.99937C446.79 3.28583 446.486 2.566 445.949 1.96613C445.285 1.30943 444.443 1.00632 443.608 1.00632L443.602 1Z" fill="#2C2C2C" stroke="#2C2C2C" stroke-width="0.2"/>
<path d="M453.825 101L457.713 89.96H460.449L464.337 101H461.793L461.073 98.616H457.041L456.321 101H453.825ZM458.833 92.76L457.649 96.648H460.465L459.281 92.76C459.228 92.6 459.153 92.52 459.057 92.52C458.961 92.52 458.886 92.6 458.833 92.76ZM465.194 101V89.56H467.434V101H465.194ZM476.55 98.488C476.486 98.9467 476.3 99.384 475.99 99.8C475.681 100.205 475.254 100.536 474.71 100.792C474.166 101.037 473.505 101.16 472.726 101.16C471.82 101.16 471.062 100.984 470.454 100.632C469.857 100.269 469.409 99.768 469.11 99.128C468.812 98.488 468.662 97.752 468.662 96.92C468.662 96.0667 468.817 95.3147 469.126 94.664C469.436 94.0027 469.894 93.4853 470.502 93.112C471.11 92.7387 471.857 92.552 472.742 92.552C473.596 92.552 474.31 92.7333 474.886 93.096C475.462 93.448 475.894 93.9333 476.182 94.552C476.47 95.16 476.614 95.8533 476.614 96.632C476.614 96.7707 476.609 96.92 476.598 97.08C476.588 97.24 476.572 97.3787 476.55 97.496H470.95C471.025 98.0933 471.206 98.5627 471.494 98.904C471.793 99.2453 472.225 99.416 472.79 99.416C473.196 99.416 473.537 99.336 473.814 99.176C474.092 99.016 474.284 98.7867 474.39 98.488H476.55ZM472.806 94.216C471.814 94.216 471.212 94.792 470.998 95.944H473.942C474.102 95.944 474.209 95.9173 474.262 95.864C474.326 95.8107 474.358 95.72 474.358 95.592C474.358 95.2507 474.225 94.936 473.958 94.648C473.692 94.36 473.308 94.216 472.806 94.216ZM477.851 101V92.712H479.787L479.963 93.88C480.176 93.5173 480.47 93.2187 480.843 92.984C481.216 92.7493 481.664 92.632 482.187 92.632C482.304 92.632 482.427 92.6427 482.555 92.664C482.694 92.6747 482.8 92.6907 482.875 92.712V94.712H482.251C481.536 94.712 480.998 94.8613 480.635 95.16C480.272 95.448 480.091 95.9387 480.091 96.632V101H477.851ZM484.559 98.616V94.52H483.215V92.776H484.063C484.287 92.776 484.441 92.744 484.527 92.68C484.612 92.6053 484.665 92.4507 484.687 92.216L484.927 90.312H486.783V92.712H488.655V94.52H486.799V98.232C486.799 98.616 486.873 98.888 487.023 99.048C487.183 99.208 487.481 99.288 487.919 99.288H488.815V101.032C488.612 101.064 488.361 101.091 488.063 101.112C487.775 101.144 487.481 101.16 487.183 101.16C486.265 101.16 485.599 100.952 485.183 100.536C484.767 100.12 484.559 99.48 484.559 98.616Z" fill="#2C2C2C"/>
<path d="M30.7829 191.826C30.6736 191.894 30.5781 192.003 30.5781 192.126C30.4689 192.365 30.5781 192.604 30.8306 192.727C35.0764 194.229 37.9569 192.126 39.0013 191.102C41.6771 194.707 45.7043 196.986 50.2095 196.986C54.7146 196.986 58.7965 194.707 61.4722 191.102C62.5166 192.058 65.3972 194.174 69.5951 192.672C69.6907 192.604 69.7999 192.536 69.8477 192.427C69.9501 192.188 69.8477 191.881 69.6429 191.765C67.1173 190.44 65.8204 186.659 65.1856 184.017V183.949C64.9125 182.584 64.7077 181.437 64.6599 179.99C64.1821 171.662 57.9023 165 50.2026 165C42.503 165 36.2231 171.655 35.7521 179.99C35.6429 181.423 35.4791 182.631 35.2265 184.017C34.5986 186.713 33.288 190.488 30.7761 191.812L30.7829 191.826ZM37.9091 199.075C40.5235 201.901 45.0764 203.826 50.2095 203.826C55.3426 203.826 59.9023 201.901 62.5166 199.082C72.9944 202.809 75.6633 211.212 76.3459 215.887C76.7691 218.945 74.8306 221.771 71.8408 222.488C67.6088 223.444 59.2265 225 49.1787 225C42.7282 225 35.6088 224.338 28.4279 222.474C25.5474 221.765 23.6634 218.939 24.0866 215.942C24.7692 211.266 27.4313 202.87 37.9091 199.082V199.075Z" stroke="#2C2C2C" stroke-width="1.9"/>
<path d="M40.7764 178.085C40.7764 178.085 49.9914 179.526 53.4043 170.529C54.3463 176.236 59.1654 176.167 59.1654 176.167" stroke="#2C2C2C" stroke-width="1.9"/>
<path d="M117.019 203.211C120.478 203.211 129.109 198.473 129.109 198.473V198.48C140.122 202.205 142.889 210.898 143.588 215.762C144.007 218.823 142.044 221.702 139.004 222.414C134.685 223.379 126.181 225 115.957 225C109.402 225 102.169 224.336 94.8669 222.414C91.9459 221.695 90.0311 218.809 90.4644 215.804C91.1492 210.954 93.9165 202.191 105 198.473C105 198.473 113.56 203.211 117.019 203.211ZM117.019 203.211V224.993M103.819 181.492C103.819 189.528 109.731 196.069 117.026 196.069C124.315 196.069 130.22 189.535 130.22 181.499M133.525 181.492H100.513C100.513 172.372 107.921 165 117.019 165C126.125 165 133.525 172.372 133.525 181.492Z" stroke="#2C2C2C" stroke-width="1.9"/>
<path d="M133.637 200.989L122.932 210.353L118.194 204.951M100.416 200.989L111.108 210.353L115.86 204.951" stroke="#2C2C2C" stroke-width="1.9"/>
<path d="M163.943 180.363C165.695 171.604 172.841 165 181.308 165C189.824 165 196.922 171.604 198.674 180.363M191.771 195.956H195.698C197.068 193.856 197.965 191.882 198.583 189.421M191.722 195.42C191.722 196.741 190.63 197.881 189.261 197.881C187.94 197.881 186.849 196.741 186.849 195.42C186.849 194.03 187.926 192.959 189.254 192.959C190.624 192.959 191.715 194.03 191.715 195.413L191.722 195.42ZM161.621 180.718H168.781V188.517H161.621V180.718ZM193.898 180.718H201.044V188.517H193.905V180.718H193.898Z" stroke="#2C2C2C" stroke-width="1.9"/>
<path d="M193.669 180.718C191.861 175.087 187.037 170.999 181.309 170.999C175.629 170.999 170.756 175.08 168.962 180.718M191.722 194.218C192.807 192.598 193.516 191.041 193.947 189.178M168.629 188.935C170.047 195.24 175.205 199.918 181.309 199.918C183.811 199.918 185.945 199.258 188.031 197.881M170.193 201.538C172.605 204.11 176.672 205.862 181.316 205.862C185.945 205.862 190.075 204.124 192.438 201.538C201.893 204.958 204.305 212.522 204.924 216.776C205.292 219.536 203.533 222.115 200.843 222.72C193.752 224.277 187.635 225 180.356 225C174.538 225 168.1 224.395 161.621 222.72C158.98 222.059 157.311 219.536 157.701 216.839C158.312 212.577 160.725 204.951 170.193 201.545V201.538Z" stroke="#2C2C2C" stroke-width="1.9"/>
<path d="M72.2311 265V253.96H76.7431C77.6711 253.96 78.4231 254.104 78.9991 254.392C79.5751 254.669 79.9965 255.059 80.2631 255.56C80.5405 256.051 80.6791 256.616 80.6791 257.256C80.6791 257.96 80.5245 258.536 80.2151 258.984C79.9165 259.432 79.5165 259.763 79.0151 259.976C79.4098 260.104 79.7245 260.323 79.9591 260.632C80.2045 260.941 80.3911 261.373 80.5191 261.928L81.2231 265H78.7591L78.2151 262.408C78.0978 261.832 77.8951 261.453 77.6071 261.272C77.3191 261.091 76.9031 261 76.3591 261H74.5511V265H72.2311ZM76.3911 255.848H74.5511V259.112H76.3751C76.9725 259.112 77.4471 258.984 77.7991 258.728C78.1511 258.472 78.3271 258.056 78.3271 257.48C78.3271 256.915 78.1511 256.504 77.7991 256.248C77.4578 255.981 76.9885 255.848 76.3911 255.848ZM89.8344 262.488C89.7704 262.947 89.5837 263.384 89.2744 263.8C88.965 264.205 88.5384 264.536 87.9944 264.792C87.4504 265.037 86.789 265.16 86.0104 265.16C85.1037 265.16 84.3464 264.984 83.7384 264.632C83.141 264.269 82.693 263.768 82.3944 263.128C82.0957 262.488 81.9464 261.752 81.9464 260.92C81.9464 260.067 82.101 259.315 82.4104 258.664C82.7197 258.003 83.1784 257.485 83.7864 257.112C84.3944 256.739 85.141 256.552 86.0264 256.552C86.8797 256.552 87.5944 256.733 88.1704 257.096C88.7464 257.448 89.1784 257.933 89.4664 258.552C89.7544 259.16 89.8984 259.853 89.8984 260.632C89.8984 260.771 89.893 260.92 89.8824 261.08C89.8717 261.24 89.8557 261.379 89.8344 261.496H84.2344C84.309 262.093 84.4904 262.563 84.7784 262.904C85.077 263.245 85.509 263.416 86.0744 263.416C86.4797 263.416 86.821 263.336 87.0984 263.176C87.3757 263.016 87.5677 262.787 87.6744 262.488H89.8344ZM86.0904 258.216C85.0984 258.216 84.4957 258.792 84.2824 259.944H87.2264C87.3864 259.944 87.493 259.917 87.5464 259.864C87.6104 259.811 87.6424 259.72 87.6424 259.592C87.6424 259.251 87.509 258.936 87.2424 258.648C86.9757 258.36 86.5917 258.216 86.0904 258.216ZM90.591 262.552H92.751C92.847 262.893 93.039 263.128 93.327 263.256C93.615 263.384 93.919 263.448 94.239 263.448C94.6337 263.448 94.9643 263.379 95.231 263.24C95.4977 263.091 95.631 262.867 95.631 262.568C95.631 262.312 95.5297 262.125 95.327 262.008C95.1243 261.891 94.8097 261.811 94.383 261.768L93.695 261.688C93.119 261.613 92.6123 261.491 92.175 261.32C91.7377 261.139 91.3963 260.877 91.151 260.536C90.9057 260.184 90.783 259.725 90.783 259.16C90.783 258.381 91.0923 257.752 91.711 257.272C92.3297 256.792 93.167 256.552 94.223 256.552C95.279 256.552 96.1057 256.792 96.703 257.272C97.3003 257.752 97.6363 258.387 97.711 259.176H95.583C95.5083 258.813 95.3377 258.573 95.071 258.456C94.8043 258.328 94.527 258.264 94.239 258.264C93.8443 258.264 93.535 258.339 93.311 258.488C93.087 258.627 92.975 258.819 92.975 259.064C92.975 259.267 93.0497 259.432 93.199 259.56C93.3483 259.677 93.647 259.763 94.095 259.816L94.783 259.896C95.3483 259.96 95.8657 260.077 96.335 260.248C96.8043 260.419 97.1777 260.68 97.455 261.032C97.743 261.384 97.887 261.864 97.887 262.472C97.887 263.261 97.5777 263.907 96.959 264.408C96.3403 264.909 95.4443 265.16 94.271 265.16C93.151 265.16 92.2763 264.925 91.647 264.456C91.0283 263.987 90.6763 263.352 90.591 262.552ZM99.0025 268.04V256.712H100.938L101.114 257.768C101.36 257.384 101.701 257.085 102.138 256.872C102.576 256.659 103.072 256.552 103.626 256.552C104.373 256.552 105.002 256.739 105.514 257.112C106.037 257.485 106.432 257.992 106.698 258.632C106.976 259.272 107.115 260.003 107.115 260.824C107.115 261.645 106.976 262.387 106.698 263.048C106.421 263.699 106.016 264.216 105.483 264.6C104.96 264.973 104.309 265.16 103.53 265.16C102.538 265.16 101.776 264.824 101.242 264.152V268.04H99.0025ZM101.242 260.072V261.704C101.242 262.227 101.418 262.611 101.77 262.856C102.133 263.091 102.533 263.208 102.97 263.208C103.578 263.208 104.037 262.995 104.346 262.568C104.666 262.141 104.826 261.571 104.826 260.856C104.826 260.152 104.672 259.587 104.362 259.16C104.053 258.723 103.594 258.504 102.986 258.504C102.698 258.504 102.421 258.563 102.154 258.68C101.888 258.787 101.669 258.957 101.498 259.192C101.328 259.416 101.242 259.709 101.242 260.072ZM112.115 265.16C111.197 265.16 110.429 264.979 109.811 264.616C109.192 264.253 108.728 263.752 108.419 263.112C108.12 262.461 107.971 261.715 107.971 260.872C107.971 260.019 108.125 259.272 108.435 258.632C108.744 257.981 109.208 257.475 109.827 257.112C110.445 256.739 111.208 256.552 112.115 256.552C113.043 256.552 113.811 256.733 114.419 257.096C115.037 257.459 115.496 257.96 115.795 258.6C116.104 259.24 116.259 259.987 116.259 260.84C116.259 261.683 116.104 262.429 115.795 263.08C115.485 263.731 115.021 264.243 114.403 264.616C113.795 264.979 113.032 265.16 112.115 265.16ZM112.115 263.208C112.723 263.208 113.181 263 113.491 262.584C113.811 262.168 113.971 261.587 113.971 260.84C113.971 260.104 113.811 259.533 113.491 259.128C113.181 258.712 112.723 258.504 112.115 258.504C111.507 258.504 111.043 258.712 110.723 259.128C110.413 259.533 110.259 260.115 110.259 260.872C110.259 261.608 110.413 262.184 110.723 262.6C111.043 263.005 111.507 263.208 112.115 263.208ZM117.488 265V256.712H119.424L119.584 257.752C119.808 257.4 120.122 257.112 120.528 256.888C120.944 256.664 121.45 256.552 122.048 256.552C122.912 256.552 123.6 256.803 124.112 257.304C124.634 257.795 124.896 258.547 124.896 259.56V265H122.656V259.96C122.656 259.021 122.218 258.552 121.344 258.552C120.928 258.552 120.554 258.675 120.224 258.92C119.893 259.165 119.728 259.523 119.728 259.992V265H117.488ZM132.226 265L132.05 263.944C131.804 264.328 131.463 264.627 131.026 264.84C130.588 265.053 130.092 265.16 129.538 265.16C128.791 265.16 128.156 264.973 127.634 264.6C127.122 264.227 126.727 263.72 126.45 263.08C126.183 262.429 126.05 261.699 126.05 260.888C126.05 260.067 126.188 259.331 126.466 258.68C126.743 258.019 127.143 257.501 127.666 257.128C128.199 256.744 128.855 256.552 129.634 256.552C130.626 256.552 131.388 256.888 131.922 257.56V253.56H134.162V265H132.226ZM131.922 261.64V260.008C131.922 259.485 131.74 259.107 131.378 258.872C131.026 258.627 130.631 258.504 130.194 258.504C129.586 258.504 129.122 258.717 128.802 259.144C128.492 259.571 128.338 260.141 128.338 260.856C128.338 261.56 128.492 262.131 128.802 262.568C129.111 262.995 129.57 263.208 130.178 263.208C130.466 263.208 130.743 263.155 131.01 263.048C131.276 262.931 131.495 262.755 131.666 262.52C131.836 262.285 131.922 261.992 131.922 261.64ZM143.274 262.488C143.21 262.947 143.023 263.384 142.714 263.8C142.404 264.205 141.978 264.536 141.434 264.792C140.89 265.037 140.228 265.16 139.45 265.16C138.543 265.16 137.786 264.984 137.178 264.632C136.58 264.269 136.132 263.768 135.834 263.128C135.535 262.488 135.386 261.752 135.386 260.92C135.386 260.067 135.54 259.315 135.85 258.664C136.159 258.003 136.618 257.485 137.226 257.112C137.834 256.739 138.58 256.552 139.466 256.552C140.319 256.552 141.034 256.733 141.61 257.096C142.186 257.448 142.618 257.933 142.906 258.552C143.194 259.16 143.338 259.853 143.338 260.632C143.338 260.771 143.332 260.92 143.322 261.08C143.311 261.24 143.295 261.379 143.274 261.496H137.674C137.748 262.093 137.93 262.563 138.218 262.904C138.516 263.245 138.948 263.416 139.514 263.416C139.919 263.416 140.26 263.336 140.538 263.176C140.815 263.016 141.007 262.787 141.114 262.488H143.274ZM139.53 258.216C138.538 258.216 137.935 258.792 137.722 259.944H140.666C140.826 259.944 140.932 259.917 140.986 259.864C141.05 259.811 141.082 259.72 141.082 259.592C141.082 259.251 140.948 258.936 140.682 258.648C140.415 258.36 140.031 258.216 139.53 258.216ZM144.574 265V256.712H146.51L146.686 257.88C146.9 257.517 147.193 257.219 147.566 256.984C147.94 256.749 148.388 256.632 148.91 256.632C149.028 256.632 149.15 256.643 149.278 256.664C149.417 256.675 149.524 256.691 149.598 256.712V258.712H148.974C148.26 258.712 147.721 258.861 147.358 259.16C146.996 259.448 146.814 259.939 146.814 260.632V265H144.574ZM150.085 262.552H152.245C152.341 262.893 152.533 263.128 152.821 263.256C153.109 263.384 153.413 263.448 153.733 263.448C154.128 263.448 154.459 263.379 154.725 263.24C154.992 263.091 155.125 262.867 155.125 262.568C155.125 262.312 155.024 262.125 154.821 262.008C154.619 261.891 154.304 261.811 153.877 261.768L153.189 261.688C152.613 261.613 152.107 261.491 151.669 261.32C151.232 261.139 150.891 260.877 150.645 260.536C150.4 260.184 150.277 259.725 150.277 259.16C150.277 258.381 150.587 257.752 151.205 257.272C151.824 256.792 152.661 256.552 153.717 256.552C154.773 256.552 155.6 256.792 156.197 257.272C156.795 257.752 157.131 258.387 157.205 259.176H155.077C155.003 258.813 154.832 258.573 154.565 258.456C154.299 258.328 154.021 258.264 153.733 258.264C153.339 258.264 153.029 258.339 152.805 258.488C152.581 258.627 152.469 258.819 152.469 259.064C152.469 259.267 152.544 259.432 152.693 259.56C152.843 259.677 153.141 259.763 153.589 259.816L154.277 259.896C154.843 259.96 155.36 260.077 155.829 260.248C156.299 260.419 156.672 260.68 156.949 261.032C157.237 261.384 157.381 261.864 157.381 262.472C157.381 263.261 157.072 263.907 156.453 264.408C155.835 264.909 154.939 265.16 153.765 265.16C152.645 265.16 151.771 264.925 151.141 264.456C150.523 263.987 150.171 263.352 150.085 262.552Z" fill="#2C2C2C"/>
<path d="M403.864 165V179.345M418.209 165V179.345M432.428 165V179.345M389.473 187.325H446.836M394.809 172.69H441.5C445.055 172.69 446.836 174.495 446.836 178.026V219.664C446.836 223.195 445.055 225 441.5 225H394.809C391.254 225 389.473 223.195 389.473 219.664V178.026C389.473 174.495 391.254 172.69 394.809 172.69Z" stroke="#2C2C2C" stroke-width="1.9"/>
<path d="M407.772 206.465L414.364 212.884L428.536 196.562" stroke="#2C2C2C" stroke-width="1.9"/>
<path d="M362.244 265.224C361.113 265.224 360.164 264.984 359.396 264.504C358.638 264.024 358.068 263.357 357.684 262.504C357.31 261.64 357.124 260.643 357.124 259.512C357.124 258.36 357.31 257.352 357.684 256.488C358.068 255.613 358.638 254.936 359.396 254.456C360.164 253.976 361.113 253.736 362.244 253.736C363.385 253.736 364.334 253.976 365.092 254.456C365.849 254.936 366.414 255.603 366.788 256.456C367.172 257.309 367.364 258.307 367.364 259.448C367.364 260.6 367.172 261.608 366.788 262.472C366.414 263.336 365.849 264.013 365.092 264.504C364.334 264.984 363.385 265.224 362.244 265.224ZM362.244 263.144C363.14 263.144 363.817 262.829 364.276 262.2C364.734 261.571 364.964 260.664 364.964 259.48C364.964 258.296 364.734 257.389 364.276 256.76C363.817 256.131 363.14 255.816 362.244 255.816C361.348 255.816 360.67 256.131 360.212 256.76C359.753 257.389 359.524 258.296 359.524 259.48C359.524 260.664 359.753 261.571 360.212 262.2C360.67 262.829 361.348 263.144 362.244 263.144ZM368.7 265V256.712H370.636L370.796 257.752C371.02 257.4 371.335 257.112 371.74 256.888C372.156 256.664 372.663 256.552 373.26 256.552C374.124 256.552 374.812 256.803 375.324 257.304C375.847 257.795 376.108 258.547 376.108 259.56V265H373.868V259.96C373.868 259.021 373.431 258.552 372.556 258.552C372.14 258.552 371.767 258.675 371.436 258.92C371.105 259.165 370.94 259.523 370.94 259.992V265H368.7ZM377.182 261.576V259.624H381.934V261.576H377.182ZM390.115 261.096H392.499C392.371 262.365 391.902 263.373 391.091 264.12C390.291 264.856 389.193 265.224 387.795 265.224C386.153 265.224 384.915 264.723 384.083 263.72C383.251 262.717 382.835 261.315 382.835 259.512C382.835 258.328 383.022 257.304 383.395 256.44C383.779 255.576 384.345 254.909 385.091 254.44C385.849 253.971 386.782 253.736 387.891 253.736C388.798 253.736 389.571 253.912 390.211 254.264C390.862 254.605 391.374 255.085 391.747 255.704C392.121 256.323 392.35 257.043 392.435 257.864H390.051C389.945 257.235 389.694 256.739 389.299 256.376C388.905 256.003 388.403 255.816 387.795 255.816C386.985 255.816 386.355 256.131 385.907 256.76C385.459 257.379 385.235 258.285 385.235 259.48C385.235 260.675 385.465 261.587 385.923 262.216C386.382 262.835 387.006 263.144 387.795 263.144C388.393 263.144 388.894 262.968 389.299 262.616C389.715 262.253 389.987 261.747 390.115 261.096ZM398.752 265L398.608 264.104C398.394 264.403 398.08 264.653 397.664 264.856C397.258 265.059 396.741 265.16 396.112 265.16C395.226 265.16 394.528 264.941 394.016 264.504C393.514 264.067 393.264 263.469 393.264 262.712C393.264 262.115 393.392 261.645 393.648 261.304C393.904 260.952 394.24 260.691 394.656 260.52C395.082 260.349 395.552 260.232 396.064 260.168L397.728 259.944C398.016 259.901 398.202 259.843 398.288 259.768C398.384 259.693 398.432 259.576 398.432 259.416C398.432 259.139 398.33 258.888 398.128 258.664C397.925 258.429 397.573 258.312 397.072 258.312C396.677 258.312 396.341 258.403 396.064 258.584C395.797 258.765 395.642 259.037 395.6 259.4H393.52C393.53 258.888 393.674 258.419 393.952 257.992C394.24 257.555 394.656 257.208 395.2 256.952C395.744 256.685 396.405 256.552 397.184 256.552C398.304 256.552 399.157 256.851 399.744 257.448C400.341 258.035 400.64 258.856 400.64 259.912V265H398.752ZM398.448 262.2V261.352L396.624 261.592C396.25 261.645 395.962 261.747 395.76 261.896C395.557 262.045 395.456 262.259 395.456 262.536C395.456 262.835 395.568 263.064 395.792 263.224C396.026 263.384 396.341 263.464 396.736 263.464C397.173 263.464 397.568 263.363 397.92 263.16C398.272 262.957 398.448 262.637 398.448 262.2ZM402.155 265V253.56H404.395V265H402.155ZM405.991 265V253.56H408.231V265H405.991ZM412.385 262.552H414.545C414.641 262.893 414.833 263.128 415.121 263.256C415.409 263.384 415.713 263.448 416.033 263.448C416.428 263.448 416.758 263.379 417.025 263.24C417.292 263.091 417.425 262.867 417.425 262.568C417.425 262.312 417.324 262.125 417.121 262.008C416.918 261.891 416.604 261.811 416.177 261.768L415.489 261.688C414.913 261.613 414.406 261.491 413.969 261.32C413.532 261.139 413.19 260.877 412.945 260.536C412.7 260.184 412.577 259.725 412.577 259.16C412.577 258.381 412.886 257.752 413.505 257.272C414.124 256.792 414.961 256.552 416.017 256.552C417.073 256.552 417.9 256.792 418.497 257.272C419.094 257.752 419.43 258.387 419.505 259.176H417.377C417.302 258.813 417.132 258.573 416.865 258.456C416.598 258.328 416.321 258.264 416.033 258.264C415.638 258.264 415.329 258.339 415.105 258.488C414.881 258.627 414.769 258.819 414.769 259.064C414.769 259.267 414.844 259.432 414.993 259.56C415.142 259.677 415.441 259.763 415.889 259.816L416.577 259.896C417.142 259.96 417.66 260.077 418.129 260.248C418.598 260.419 418.972 260.68 419.249 261.032C419.537 261.384 419.681 261.864 419.681 262.472C419.681 263.261 419.372 263.907 418.753 264.408C418.134 264.909 417.238 265.16 416.065 265.16C414.945 265.16 414.07 264.925 413.441 264.456C412.822 263.987 412.47 263.352 412.385 262.552ZM426.156 261.864H428.316C428.263 262.429 428.087 262.968 427.788 263.48C427.49 263.981 427.068 264.387 426.524 264.696C425.98 265.005 425.308 265.16 424.508 265.16C423.612 265.16 422.86 264.984 422.252 264.632C421.644 264.269 421.186 263.768 420.876 263.128C420.578 262.488 420.428 261.747 420.428 260.904C420.428 260.051 420.583 259.299 420.892 258.648C421.202 257.987 421.66 257.475 422.268 257.112C422.887 256.739 423.644 256.552 424.54 256.552C425.34 256.552 426.007 256.707 426.54 257.016C427.074 257.325 427.479 257.731 427.756 258.232C428.044 258.723 428.215 259.261 428.268 259.848H426.108C425.916 258.952 425.388 258.504 424.524 258.504C423.938 258.504 423.49 258.717 423.18 259.144C422.871 259.56 422.716 260.147 422.716 260.904C422.716 261.619 422.866 262.184 423.164 262.6C423.474 263.005 423.922 263.208 424.508 263.208C424.946 263.208 425.308 263.096 425.596 262.872C425.884 262.648 426.071 262.312 426.156 261.864ZM429.555 265V253.56H431.795V257.56C432.029 257.261 432.339 257.021 432.723 256.84C433.117 256.648 433.581 256.552 434.115 256.552C434.968 256.552 435.656 256.803 436.179 257.304C436.701 257.795 436.963 258.547 436.963 259.56V265H434.723V259.96C434.723 259.021 434.285 258.552 433.411 258.552C432.995 258.552 432.621 258.675 432.291 258.92C431.96 259.165 431.795 259.523 431.795 259.992V265H429.555ZM446.005 262.488C445.941 262.947 445.754 263.384 445.445 263.8C445.135 264.205 444.709 264.536 444.165 264.792C443.621 265.037 442.959 265.16 442.181 265.16C441.274 265.16 440.517 264.984 439.909 264.632C439.311 264.269 438.863 263.768 438.565 263.128C438.266 262.488 438.117 261.752 438.117 260.92C438.117 260.067 438.271 259.315 438.581 258.664C438.89 258.003 439.349 257.485 439.957 257.112C440.565 256.739 441.311 256.552 442.197 256.552C443.05 256.552 443.765 256.733 444.341 257.096C444.917 257.448 445.349 257.933 445.637 258.552C445.925 259.16 446.069 259.853 446.069 260.632C446.069 260.771 446.063 260.92 446.053 261.08C446.042 261.24 446.026 261.379 446.005 261.496H440.405C440.479 262.093 440.661 262.563 440.949 262.904C441.247 263.245 441.679 263.416 442.245 263.416C442.65 263.416 442.991 263.336 443.269 263.176C443.546 263.016 443.738 262.787 443.845 262.488H446.005ZM442.261 258.216C441.269 258.216 440.666 258.792 440.453 259.944H443.397C443.557 259.944 443.663 259.917 443.717 259.864C443.781 259.811 443.813 259.72 443.813 259.592C443.813 259.251 443.679 258.936 443.413 258.648C443.146 258.36 442.762 258.216 442.261 258.216ZM453.113 265L452.937 263.944C452.692 264.328 452.35 264.627 451.913 264.84C451.476 265.053 450.98 265.16 450.425 265.16C449.678 265.16 449.044 264.973 448.521 264.6C448.009 264.227 447.614 263.72 447.337 263.08C447.07 262.429 446.937 261.699 446.937 260.888C446.937 260.067 447.076 259.331 447.353 258.68C447.63 258.019 448.03 257.501 448.553 257.128C449.086 256.744 449.742 256.552 450.521 256.552C451.513 256.552 452.276 256.888 452.809 257.56V253.56H455.049V265H453.113ZM452.809 261.64V260.008C452.809 259.485 452.628 259.107 452.265 258.872C451.913 258.627 451.518 258.504 451.081 258.504C450.473 258.504 450.009 258.717 449.689 259.144C449.38 259.571 449.225 260.141 449.225 260.856C449.225 261.56 449.38 262.131 449.689 262.568C449.998 262.995 450.457 263.208 451.065 263.208C451.353 263.208 451.63 263.155 451.897 263.048C452.164 262.931 452.382 262.755 452.553 262.52C452.724 262.285 452.809 261.992 452.809 261.64ZM456.561 262.152V256.712H458.801V261.752C458.801 262.701 459.228 263.176 460.081 263.176C460.487 263.176 460.849 263.053 461.169 262.808C461.5 262.552 461.665 262.189 461.665 261.72V256.712H463.905V265H461.969L461.809 263.96C461.585 264.312 461.271 264.6 460.865 264.824C460.46 265.048 459.964 265.16 459.377 265.16C458.524 265.16 457.841 264.915 457.329 264.424C456.817 263.923 456.561 263.165 456.561 262.152ZM465.509 265V253.56H467.749V265H465.509ZM476.865 262.488C476.801 262.947 476.614 263.384 476.305 263.8C475.996 264.205 475.569 264.536 475.025 264.792C474.481 265.037 473.82 265.16 473.041 265.16C472.134 265.16 471.377 264.984 470.769 264.632C470.172 264.269 469.724 263.768 469.425 263.128C469.126 262.488 468.977 261.752 468.977 260.92C468.977 260.067 469.132 259.315 469.441 258.664C469.75 258.003 470.209 257.485 470.817 257.112C471.425 256.739 472.172 256.552 473.057 256.552C473.91 256.552 474.625 256.733 475.201 257.096C475.777 257.448 476.209 257.933 476.497 258.552C476.785 259.16 476.929 259.853 476.929 260.632C476.929 260.771 476.924 260.92 476.913 261.08C476.902 261.24 476.886 261.379 476.865 261.496H471.265C471.34 262.093 471.521 262.563 471.809 262.904C472.108 263.245 472.54 263.416 473.105 263.416C473.51 263.416 473.852 263.336 474.129 263.176C474.406 263.016 474.598 262.787 474.705 262.488H476.865ZM473.121 258.216C472.129 258.216 471.526 258.792 471.313 259.944H474.257C474.417 259.944 474.524 259.917 474.577 259.864C474.641 259.811 474.673 259.72 474.673 259.592C474.673 259.251 474.54 258.936 474.273 258.648C474.006 258.36 473.622 258.216 473.121 258.216Z" fill="#2C2C2C"/>
</svg>
