<?xml version="1.0" encoding="UTF-8"?>
<svg id="Layer_1" data-name="Layer 1" xmlns="http://www.w3.org/2000/svg" width="307.18" height="121.93" viewBox="0 0 307.18 121.93">
  <defs>
    <style>
      .cls-1 {
        fill: #000;
      }

      .cls-1, .cls-2 {
        stroke-width: 0px;
      }

      .cls-2 {
        fill: #1a1818;
      }
    </style>
  </defs>
  <path class="cls-2" d="M32.78,55.19c0,2.04-.43,3.93-1.3,5.66-.86,1.73-2.07,3.2-3.61,4.4-1.54,1.21-3.38,2.15-5.51,2.83-2.13.68-4.46,1.02-6.99,1.02-3.03,0-5.74-.41-8.15-1.24-2.41-.83-4.81-2.2-7.22-4.11l3.98-6.47c1.91,1.6,3.64,2.78,5.18,3.52s3.12,1.11,4.72,1.11c1.97,0,3.56-.51,4.77-1.53,1.2-1.02,1.81-2.39,1.81-4.12,0-.74-.11-1.44-.32-2.09-.22-.65-.62-1.31-1.2-1.99-.58-.68-1.38-1.42-2.4-2.22s-2.33-1.79-3.93-2.97c-1.23-.87-2.43-1.76-3.61-2.69-1.17-.93-2.24-1.92-3.19-2.97-.95-1.05-1.73-2.22-2.31-3.52-.59-1.3-.88-2.78-.88-4.45,0-1.91.4-3.66,1.2-5.24.8-1.57,1.89-2.92,3.28-4.03,1.38-1.11,3.05-1.98,4.99-2.59,1.94-.62,4.05-.93,6.32-.93,2.4,0,4.73.32,6.99.97,2.25.64,4.33,1.58,6.25,2.81l-3.61,5.81c-2.47-1.73-5.06-2.59-7.78-2.59-1.66,0-3.04.43-4.12,1.3-1.08.87-1.62,1.94-1.62,3.24s.48,2.35,1.43,3.34,2.6,2.38,4.94,4.17c2.35,1.73,4.31,3.25,5.86,4.54,1.55,1.3,2.77,2.52,3.67,3.66.9,1.14,1.52,2.31,1.86,3.48.34,1.17.51,2.47.51,3.89M73.73,44.29c0,1.79-.19,3.73-.56,5.8-.37,2.07-1.01,3.99-1.91,5.75s-2.08,3.21-3.54,4.36c-1.46,1.14-3.31,1.71-5.55,1.71-3.73,0-6.67-1.48-8.81-4.45-2.14-2.97-3.22-7.04-3.22-12.24s1.09-9.53,3.26-12.65c2.17-3.12,5.13-4.68,8.86-4.68s6.34,1.47,8.39,4.4c2.05,2.94,3.08,6.94,3.08,12M86.67,43.82c0-3.46-.5-6.6-1.48-9.44-.99-2.84-2.4-5.28-4.22-7.32-1.83-2.04-3.99-3.63-6.49-4.77s-5.27-1.71-8.3-1.71c-3.34,0-6.28.63-8.81,1.9s-4.88,3.26-7.05,5.97l-.06-6.76h-11.9v69.44h11.9v-29.35c1.18,1.36,2.31,2.5,3.39,3.43s2.18,1.69,3.3,2.27c1.12.58,2.29,1,3.53,1.25s2.57.37,4,.37c3.16,0,6.1-.63,8.83-1.89,2.73-1.27,5.08-3.04,7.06-5.33,1.98-2.28,3.53-4.95,4.65-8.01,1.12-3.06,1.67-6.41,1.67-10.05M91.96,67.96h12.21V0h-12.21v67.95h0ZM156.33,67.98V21.62h-12.21v24.95c0,2.23-.09,3.94-.28,5.15s-.5,2.3-.93,3.29c-1.73,3.83-4.9,5.75-9.49,5.75-3.6,0-6.11-1.3-7.54-3.9-.56-.99-.95-2.1-1.16-3.34-.22-1.24-.33-3.03-.33-5.38v-26.52h-12.21v26.34c0,1.79.02,3.31.05,4.55.03,1.24.11,2.33.23,3.29s.26,1.81.42,2.55c.15.74.38,1.45.7,2.13,1.11,2.84,2.92,4.99,5.42,6.45,2.51,1.45,5.58,2.17,9.23,2.17,3.28,0,6.15-.57,8.63-1.71,2.47-1.14,4.88-3.02,7.23-5.61l.03,6.2h12.21ZM209.01,67.96v-26.28c0-1.79-.02-3.32-.05-4.58-.03-1.26-.11-2.36-.23-3.29-.12-.92-.28-1.74-.46-2.45-.18-.71-.4-1.4-.65-2.08-1.11-2.78-2.92-4.92-5.43-6.43-2.51-1.51-5.58-2.27-9.23-2.27-3.28,0-6.15.57-8.63,1.72-2.48,1.14-4.88,3.02-7.24,5.61l-.02-6.2h-12.32v46.26h12.32v-24.98c0-2.16.08-3.84.23-5.04.16-1.2.45-2.33.89-3.38.8-1.85,2.03-3.25,3.67-4.21s3.61-1.43,5.91-1.43c3.6,0,6.11,1.3,7.54,3.88.55.99.94,2.1,1.16,3.33.22,1.23.33,3.02.33,5.36v26.46s12.21,0,12.21,0ZM259.58,64.91l-18.61-23.14,15.74-16.85-9.26-3.98-16.38,18.98h-1.3V.02h-12.32v67.95h12.32v-24.63l18.42,25.55,11.39-3.98ZM307.18,48.3v-7.58l-37.03-18.58v8.32l28.7,13.96-28.7,14.15v8.14l37.03-18.4h0Z"/>
  <g>
    <g>
      <path class="cls-1" d="M53.29,105.86h-2.87c.15-1.47.84-2.6,2.08-3.41,1.11-.73,2.51-1.1,4.2-1.1,2.01,0,3.55.53,4.62,1.58.9.9,1.35,2.07,1.35,3.5v10.01h-2.23l-.34-2c-1.15,1.62-2.78,2.42-4.91,2.42-1.67,0-2.98-.45-3.92-1.35-.77-.75-1.16-1.7-1.16-2.85,0-1.45.5-2.57,1.49-3.35.88-.7,2.24-1.2,4.06-1.52l4.29-.73v-.73c0-.96-.33-1.68-.99-2.17-.58-.43-1.38-.65-2.4-.65-1.99,0-3.09.79-3.3,2.37l.03-.02ZM55.86,114.57c1.15,0,2.14-.37,2.99-1.13.75-.69,1.13-1.49,1.13-2.4v-1.89l-3.64.65c-1.34.23-2.25.57-2.74,1.04-.39.38-.59.88-.59,1.52,0,.72.24,1.26.73,1.63.49.38,1.19.56,2.11.56v.02Z"/>
      <g>
        <rect class="cls-1" x="99.33" y="96.11" width="5.09" height="20.35"/>
        <path class="cls-1" d="M130.07,106.29c0,6.56,5.02,10.54,10.74,10.54,2.26,0,4-.54,4.64-.72v-5.46c-.22.12-1.89,1.08-4.28,1.08-3.39,0-5.58-2.41-5.58-5.43s2.28-5.43,5.58-5.43c2.43,0,4.07.99,4.28,1.09v-5.47c-.48-.14-2.25-.72-4.64-.72-6.2,0-10.74,4.45-10.74,10.53h0Z"/>
        <path class="cls-1" d="M76.96,106.29c0,6.56,5.02,10.54,10.73,10.54,2.28,0,4.01-.54,4.65-.72v-5.46c-.23.12-1.89,1.08-4.27,1.08-3.4,0-5.58-2.41-5.58-5.43s2.28-5.43,5.58-5.43c2.43,0,4.06.99,4.27,1.09v-5.47c-.48-.14-2.25-.72-4.65-.72-6.19,0-10.73,4.45-10.73,10.53h0Z"/>
        <path class="cls-1" d="M161.46,95.76c-6.2,0-10.65,4.71-10.65,10.53s4.45,10.54,10.65,10.54,10.65-4.72,10.65-10.54-4.45-10.53-10.65-10.53ZM161.46,111.65c-3.02,0-5.27-2.4-5.27-5.36s2.24-5.35,5.27-5.35,5.27,2.4,5.27,5.35-2.25,5.36-5.27,5.36Z"/>
        <path class="cls-1" d="M120.33,104.18l-1.4-.45c-.83-.27-2.33-.7-2.33-1.93,0-.98,1.1-1.67,3.15-1.67,1.75,0,3.9.6,3.98.62v-4.35c-.15-.04-2.48-.65-4.96-.65-4.69,0-7.52,2.56-7.52,6.36,0,3.37,2.37,5.05,5.2,5.95.32.11.78.25,1.09.36,1.26.4,2.26.99,2.26,2.02,0,1.16-1.16,1.91-3.7,1.91-2.22,0-4.36-.64-4.8-.76v4.69c.25.05,2.79.55,5.49.55,3.89,0,8.35-1.72,8.35-6.83,0-2.48-1.51-4.76-4.81-5.82h0Z"/>
      </g>
    </g>
    <g>
      <path class="cls-1" d="M197.15,111.72h2.96c-.22,1.58-.97,2.85-2.23,3.81-1.15.88-2.55,1.33-4.2,1.33-2.16,0-3.88-.74-5.16-2.23-1.18-1.37-1.78-3.18-1.78-5.41,0-2.59.71-4.6,2.14-6.03,1.22-1.22,2.81-1.83,4.76-1.83,1.8,0,3.29.48,4.46,1.44,1.03.85,1.66,1.96,1.89,3.33h-2.99c-.19-.79-.57-1.4-1.14-1.83-.57-.43-1.29-.65-2.16-.65-1.33,0-2.36.53-3.07,1.58-.68.98-1.01,2.34-1.01,4.09s.45,3.2,1.35,4.14c.72.75,1.63,1.13,2.76,1.13.98,0,1.78-.28,2.4-.85.54-.49.88-1.16,1.01-2v-.02Z"/>
      <path class="cls-1" d="M202.65,109.1c0-2.69.8-4.72,2.4-6.09,1.28-1.11,2.89-1.66,4.85-1.66,2.27,0,4.06.72,5.36,2.17,1.24,1.35,1.86,3.21,1.86,5.58,0,2.65-.78,4.67-2.34,6.06-1.28,1.13-2.91,1.69-4.9,1.69-2.27,0-4.07-.75-5.39-2.25-1.22-1.37-1.83-3.21-1.83-5.5h0ZM205.47,109.1c0,1.88.48,3.32,1.44,4.31.79.83,1.8,1.24,3.02,1.24,1.43,0,2.53-.54,3.3-1.61.72-.98,1.07-2.29,1.07-3.95,0-1.92-.47-3.36-1.41-4.34-.77-.81-1.77-1.21-2.99-1.21-1.41,0-2.51.54-3.3,1.61-.75.98-1.13,2.29-1.13,3.95Z"/>
      <path class="cls-1" d="M223.2,116.43h-2.71v-14.66h2.23l.28,1.72c.99-1.43,2.43-2.14,4.31-2.14,2.05,0,3.49.77,4.31,2.31.98-1.54,2.56-2.31,4.76-2.31,1.64,0,2.89.5,3.78,1.49.79.92,1.18,2.18,1.18,3.78v9.81h-2.7v-9.61c0-2.11-.95-3.16-2.85-3.16-1.13,0-2.03.44-2.71,1.32-.54.72-.82,1.55-.82,2.51v8.94h-2.71v-9.61c0-2.11-.95-3.16-2.85-3.16-1.05,0-1.93.41-2.62,1.24-.6.69-.9,1.53-.9,2.51v9.02h.02Z"/>
      <path class="cls-1" d="M245.44,101.77h2.23l.42,1.92c1.2-1.56,2.86-2.34,4.96-2.34s3.74.75,4.9,2.25c1.03,1.35,1.55,3.15,1.55,5.39,0,2.65-.71,4.68-2.11,6.09-1.18,1.18-2.7,1.78-4.54,1.78-2.09,0-3.66-.77-4.71-2.31v6.96h-2.71v-19.73h0ZM256.69,108.93c0-1.84-.46-3.22-1.38-4.14-.73-.75-1.69-1.13-2.87-1.13-1.37,0-2.46.5-3.27,1.49-.77.96-1.16,2.22-1.16,3.78,0,1.88.46,3.32,1.38,4.31.77.87,1.79,1.3,3.05,1.3,1.41,0,2.48-.52,3.21-1.55.7-.96,1.04-2.31,1.04-4.06Z"/>
      <path class="cls-1" d="M265.2,105.86h-2.87c.15-1.47.84-2.6,2.08-3.41,1.11-.73,2.51-1.1,4.2-1.1,2.01,0,3.55.53,4.62,1.58.9.9,1.35,2.07,1.35,3.5v10.01h-2.23l-.34-2c-1.15,1.62-2.78,2.42-4.91,2.42-1.67,0-2.98-.45-3.92-1.35-.77-.75-1.16-1.7-1.16-2.85,0-1.45.5-2.57,1.49-3.35.88-.7,2.24-1.2,4.06-1.52l4.29-.73v-.73c0-.96-.33-1.68-.99-2.17-.58-.43-1.38-.65-2.4-.65-1.99,0-3.09.79-3.3,2.37l.03-.02ZM267.77,114.57c1.15,0,2.14-.37,2.99-1.13.75-.69,1.13-1.49,1.13-2.4v-1.89l-3.64.65c-1.34.23-2.25.57-2.74,1.04-.39.38-.59.88-.59,1.52,0,.72.24,1.26.73,1.63.49.38,1.19.56,2.11.56v.02Z"/>
      <path class="cls-1" d="M281.38,116.43h-2.71v-14.66h2.23l.31,1.86c1.09-1.52,2.58-2.28,4.46-2.28,1.73,0,3.05.54,3.97,1.61.81.96,1.21,2.26,1.21,3.92v9.56h-2.7v-9.53c0-2.16-1.04-3.24-3.13-3.24-1.09,0-1.98.37-2.68,1.13-.64.68-.96,1.54-.96,2.59v9.05h0Z"/>
      <path class="cls-1" d="M307.18,101.77l-5.1,14.86c-.68,1.97-1.33,3.32-1.95,4.03-.73.84-1.68,1.27-2.85,1.27-.49,0-1.07-.09-1.75-.25v-2.2c.53.13.99.2,1.41.2.58,0,1.03-.2,1.35-.61s.72-1.28,1.21-2.64h-.87l-5.39-14.66h2.93l4.14,12.46,4.14-12.46h2.73Z"/>
    </g>
  </g>
</svg>