<?xml version="1.0" encoding="UTF-8"?><svg id="White" xmlns="http://www.w3.org/2000/svg" viewBox="0 0 1228.8757 487.7602"><defs><style>.cls-1{fill:#fff;stroke-width:0px;}</style></defs><path class="cls-1" d="M131.1301,220.7937c0,8.1663-1.736,15.705-5.1863,22.6314-3.4564,6.9304-8.2785,12.8008-14.4528,17.6172-6.1747,4.8242-13.5168,8.5964-22.0354,11.3167-8.5206,2.7162-17.8453,4.0659-27.97,4.0659-12.1106,0-22.9693-1.6541-32.6058-4.972-9.6286-3.3241-19.2491-8.8065-28.8798-16.4432l15.925-25.8936c7.6522,6.4106,14.5609,11.1049,20.7373,14.0669,6.1645,2.9681,12.4686,4.4362,18.8972,4.4362,7.8984,0,14.2509-2.024,19.0689-6.1063,4.8164-4.0803,7.2286-9.5787,7.2286-16.4952,0-2.9661-.4383-5.7602-1.2981-8.3465-.8602-2.5921-2.4643-5.2563-4.8123-7.9762-2.3382-2.7121-5.5406-5.6786-9.6147-8.8885-4.0721-3.2122-9.3124-7.1745-15.719-11.8627-4.9323-3.4625-9.7405-7.0447-14.425-10.7489-4.6923-3.71-8.9446-7.6682-12.7688-11.8726-3.8202-4.2003-6.9022-8.8885-9.2526-14.0788-2.3418-5.2043-3.506-11.1307-3.506-17.797,0-7.6588,1.5979-14.6449,4.8004-20.9536,3.1959-6.3004,7.5662-11.6706,13.1187-16.1168,5.5402-4.4526,12.1827-7.9106,19.9492-10.3786,7.7587-2.4782,16.1929-3.7166,25.3017-3.7166,9.6205,0,18.9272,1.2903,27.9495,3.8665,9.0027,2.5802,17.339,6.3164,24.9978,11.2225l-14.445,23.2557c-9.8748-6.9104-20.2453-10.3688-31.116-10.3688-6.6564,0-12.1605,1.7364-16.4772,5.1945-4.3219,3.4622-6.4782,7.7804-6.4782,12.9806,0,4.9466,1.9039,9.4046,5.7245,13.3571,3.798,3.9562,10.3824,9.5226,19.7431,16.6849,9.4206,6.9304,17.2288,12.9847,23.4232,18.1792,6.2005,5.1945,11.091,10.0846,14.6851,14.6511,3.6002,4.58,6.0784,9.2223,7.4404,13.9166,1.3563,4.7004,2.0522,9.8888,2.0522,15.5731M294.9322,177.1531c0,7.1783-.7562,14.903-2.2423,23.1872-1.4939,8.2826-4.0422,15.9549-7.6465,22.9996-3.6084,7.0423-8.3305,12.8508-14.173,17.4271-5.8523,4.5743-13.2387,6.8522-22.1874,6.8522-14.9226,0-26.6736-5.9204-35.254-17.8031-8.5726-11.8627-12.8626-28.1818-12.8626-48.9531,0-21.255,4.3539-38.132,13.0584-50.6232,8.7008-12.4907,20.5095-18.7309,35.4285-18.7309,14.1726,0,25.3595,5.8802,33.5618,17.6192,8.2126,11.7485,12.317,27.7574,12.317,48.0249M346.7052,175.277c0-13.8249-1.9838-26.4176-5.9363-37.7806-3.9623-11.3687-9.5967-21.117-16.8831-29.2796-7.3044-8.1528-15.9627-14.5151-25.9776-19.0812-10.0206-4.5665-21.0793-6.8547-33.2059-6.8547-13.355,0-25.1117,2.5303-35.256,7.5908-10.1387,5.0662-19.5355,13.0326-28.1999,23.8955l-.2581-27.0378h-47.605v277.805h47.605v-117.4154c4.7062,5.4365,9.2284,10.0186,13.5647,13.729,4.3342,3.7202,8.7344,6.7506,13.1928,9.0985,4.4645,2.3402,9.1666,4.0102,14.1251,5.0085,4.9561.986,10.2886,1.4697,15.9889,1.4697,12.6365,0,24.4096-2.5298,35.3101-7.5802,10.9128-5.0666,20.3191-12.1671,28.2555-21.3136,7.9328-9.1305,14.121-19.8173,18.5835-32.0458,4.4661-12.2228,6.6961-25.6294,6.6961-40.2084M367.8926,271.8548h48.8552V0h-48.8552v271.8548ZM625.4146,271.9309V86.4555h-48.8532v99.8142c0,8.9085-.3678,15.7669-1.1179,20.5853-.7463,4.8283-1.9904,9.2182-3.7264,13.1768-6.9386,15.3388-19.5973,23.0013-37.9644,23.0013-14.3889,0-24.4473-5.1883-30.1497-15.5933-2.2382-3.9422-3.7903-8.4042-4.6603-13.3447-.8664-4.9524-1.3002-12.1147-1.3002-21.5291v-106.1106h-48.8552v105.3786c0,7.1783.0623,13.2428.1921,18.1849.12,4.9462.4322,9.3366.9221,13.1748.4981,3.8402,1.056,7.2364,1.6782,10.2025.612,2.9686,1.5398,5.8187,2.7822,8.5345,4.4461,11.3769,11.6805,19.9774,21.7011,25.7957,10.0248,5.8024,22.3295,8.6984,36.9203,8.6984,13.1129,0,24.6156-2.2779,34.5142-6.8543,9.8945-4.5805,19.5412-12.0626,28.9417-22.4516l.1221,24.8118h48.8532ZM836.1393,271.849v-105.1508c0-7.1582-.0717-13.2645-.1958-18.3291-.1241-5.0601-.4239-9.4406-.9282-13.1449-.4961-3.7001-1.1039-6.9624-1.856-9.8064-.732-2.8403-1.6082-5.6123-2.5962-8.3383-4.4523-11.1049-11.6887-19.6735-21.7053-25.7236-10.0289-6.0485-22.3336-9.0749-36.9343-9.0749-13.1088,0-24.6218,2.2882-34.5142,6.8707-9.9047,4.5701-19.5412,12.0667-28.9499,22.4454l-.0922-24.8057h-49.275v185.0576h49.275v-99.9203c0-8.6324.308-15.3569.9241-20.1691.6202-4.8086,1.7962-9.3067,3.5482-13.507,3.2123-7.3946,8.1208-13.0109,14.6933-16.8331,6.5761-3.8243,14.4606-5.7364,23.6452-5.7364,14.3971,0,24.4456,5.1846,30.1537,15.5412,2.2165,3.948,3.7804,8.4006,4.6365,13.3267.8758,4.9302,1.3079,12.0889,1.3079,21.4614v105.8366h48.863ZM1038.432,259.6721l-74.4604-92.5876,62.9717-67.4063-37.0424-15.923-65.5437,75.9187h-5.1846V.052h-49.271v271.849h49.271v-98.5202l73.6965,102.2203,45.563-15.9291ZM1228.8757,193.2198v-30.3298l-148.1492-74.3466v33.2882l114.811,55.8573-114.811,56.5955v32.5501l148.1492-73.6146ZM213.1964,423.4915h-11.5012c.5935-5.8674,3.3764-10.4212,8.3389-13.6516,4.437-2.9288,10.0417-4.3981,16.8043-4.3981,8.047,0,14.216,2.1115,18.4973,6.315,3.6099,3.6099,5.4101,8.2708,5.4101,13.9825v40.0402h-8.9032l-1.3525-8.008c-4.5927,6.4707-11.1315,9.7011-19.626,9.7011-6.6945,0-11.9196-1.8098-15.6755-5.4101-3.0845-3.0067-4.6219-6.8112-4.6219-11.3942,0-5.7895,1.985-10.2655,5.9744-13.4181,3.5321-2.7829,8.9422-4.8165,16.2399-6.0912l17.1448-2.9386v-2.9288c0-3.8337-1.3233-6.7236-3.9505-8.6794-2.3353-1.732-5.5268-2.598-9.5844-2.598-7.9691,0-12.3672,3.1624-13.1943,9.4773ZM223.4521,458.3358c4.5927,0,8.5724-1.4985,11.9586-4.5149,3.0067-2.7731,4.5149-5.9744,4.5149-9.5844v-7.5507l-14.5468,2.5883c-5.3419.9049-8.9908,2.2964-10.9466,4.1743-1.5763,1.5082-2.3645,3.5321-2.3645,6.0912,0,2.8607.973,5.0403,2.9288,6.5388,1.9558,1.5082,4.7776,2.2574,8.4556,2.2574ZM397.3803,465.9133h20.3492v-81.418h-20.3492v81.418ZM520.3306,425.1929c0,26.2443,20.0824,42.1737,42.9853,42.1737,9.0391,0,15.9897-2.1613,18.5511-2.8994v-21.8524c-.8842.4687-7.5609,4.3069-17.1026,4.3069-13.5665,0-22.316-9.6376-22.316-21.7288,0-12.4376,9.1304-21.7295,22.316-21.7295,9.7095,0,16.2793,3.961,17.1026,4.3761v-21.8674c-1.9207-.5695-8.9938-2.9001-18.5511-2.9001-24.8002,0-42.9853,17.7993-42.9853,42.1209ZM307.8766,425.1929c0,26.2443,20.0754,42.1737,42.9284,42.1737,9.1078,0,16.0279-2.1613,18.5893-2.8994v-21.8524c-.9077.4687-7.5453,4.3069-17.0878,4.3069-13.5852,0-22.3269-9.6376-22.3269-21.7288,0-12.4376,9.1226-21.7295,22.3269-21.7295,9.7134,0,16.245,3.961,17.0878,4.3761v-21.8674c-1.9207-.5695-9.0016-2.9001-18.5893-2.9001-24.7581,0-42.9284,17.7993-42.9284,42.1209ZM645.918,383.072c-24.8158,0-42.6044,18.8602-42.6044,42.1209,0,23.2906,17.7886,42.1737,42.6044,42.1737,24.8002,0,42.6044-18.8831,42.6044-42.1737,0-23.2607-17.8042-42.1209-42.6044-42.1209ZM645.918,446.6373c-12.0875,0-21.0657-9.584-21.0657-21.4444,0-11.8076,8.9782-21.4066,21.0657-21.4066,12.0727,0,21.0657,9.599,21.0657,21.4066,0,11.8604-8.993,21.4444-21.0657,21.4444ZM481.3771,416.7549l-5.6168-1.8077c-3.3349-1.0696-9.3216-2.808-9.3216-7.7378,0-3.9312,4.4165-6.6997,12.5909-6.6997,7.0154,0,15.6167,2.3999,15.9102,2.4992v-17.3912c-.6135-.1615-9.9234-2.5921-19.835-2.5921-18.7798,0-30.0823,10.2378-30.0823,25.4606,0,13.4758,9.4887,20.2062,20.7879,23.8057,1.2691.423,3.121,1.0153,4.3744,1.4383,5.0261,1.5926,9.0578,3.9618,9.0578,8.0694,0,4.6456-4.6452,7.622-14.7893,7.622-8.894,0-17.4305-2.5685-19.2215-3.023v18.7531c1.0177.2,11.154,2.2149,21.9694,2.2149,15.5746,0,33.4053-6.8683,33.4053-27.3368,0-9.907-6.0211-19.0524-19.2294-23.2749ZM788.6958,446.9318h11.8418c-.8952,6.315-3.8727,11.3942-8.9032,15.2279-4.5927,3.5321-10.1876,5.303-16.8043,5.303-8.6502,0-15.5296-2.9677-20.638-8.913-4.7387-5.4879-7.1031-12.7078-7.1031-21.6499,0-10.3725,2.851-18.4195,8.5627-24.1312,4.8943-4.8943,11.2482-7.3367,19.0617-7.3367,7.2199,0,13.1554,1.9169,17.8259,5.7506,4.1257,3.3861,6.6458,7.8232,7.5507,13.3111h-11.9488c-.759-3.1624-2.2769-5.6047-4.5732-7.3269-2.2964-1.732-5.1668-2.598-8.6308-2.598-5.3322,0-9.4287,2.1017-12.2894,6.315-2.705,3.9116-4.0575,9.3606-4.0575,16.3567,0,7.288,1.8001,12.8148,5.4101,16.5707,2.8607,3.0164,6.5388,4.5149,11.0536,4.5149,3.9116,0,7.1031-1.1287,9.5844-3.3861,2.1796-1.9558,3.5321-4.6219,4.0575-8.008ZM810.696,436.4426c0-10.7423,3.1915-18.8671,9.5844-24.355,5.1084-4.437,11.5791-6.6555,19.3925-6.6555,9.0978,0,16.2399,2.8996,21.4359,8.6892,4.9625,5.4101,7.434,12.8537,7.434,22.3213,0,10.606-3.1137,18.6919-9.3606,24.2479-5.1084,4.5149-11.6472,6.7723-19.6163,6.7723-9.0978,0-16.2788-3.0067-21.5429-9.02-4.8846-5.4879-7.3269-12.8246-7.3269-22.0002ZM821.9735,436.4426c0,7.5215,1.9169,13.2721,5.7506,17.2616,3.1526,3.3083,7.181,4.9625,12.0656,4.9625,5.7117,0,10.1098-2.1407,13.1943-6.4317,2.8607-3.9116,4.2813-9.166,4.2813-15.7923,0-7.6675-1.878-13.457-5.6339-17.3589-3.0845-3.2402-7.0642-4.8554-11.9586-4.8554-5.6339,0-10.032,2.1407-13.1943,6.4317-3.0067,3.9116-4.5051,9.1757-4.5051,15.7826ZM892.9075,465.7697h-10.8298v-58.6446h8.913l1.1287,6.8793c3.9797-5.7117,9.7303-8.5724,17.2518-8.5724,8.1929,0,13.9435,3.0845,17.2616,9.2535,3.9019-6.169,10.2558-9.2535,19.052-9.2535,6.5485,0,11.5791,1.9947,15.1112,5.9744,3.1624,3.6878,4.7387,8.7281,4.7387,15.1209v39.2424h-10.8201v-38.4542c0-8.4265-3.8046-12.6299-11.3942-12.6299-4.5149,0-8.1248,1.7612-10.8298,5.2933-2.1796,2.8607-3.2694,6.2079-3.2694,10.0417v35.7492h-10.8298v-38.4542c0-8.4265-3.7948-12.6299-11.3845-12.6299-4.2132,0-7.7064,1.6542-10.4893,4.9625-2.4034,2.7731-3.6099,6.1204-3.6099,10.032v36.0897ZM981.8815,407.1251h8.913l1.6931,7.6675c4.8068-6.2371,11.4234-9.3606,19.8498-9.3606,8.4167,0,14.9555,3.0067,19.6163,9.02,4.1354,5.4198,6.2079,12.6008,6.2079,21.5429,0,10.606-2.8218,18.7211-8.4556,24.3647-4.7387,4.7289-10.7909,7.1031-18.1568,7.1031-8.3486,0-14.6247-3.0845-18.8379-9.2535v27.8579h-10.8298v-78.942ZM1026.8842,435.7712c0-7.3658-1.8488-12.8927-5.5268-16.5805-2.9288-3.0067-6.7626-4.5051-11.5012-4.5051-5.4879,0-9.8568,1.985-13.0873,5.9744-3.0845,3.8337-4.6219,8.874-4.6219,15.1112,0,7.5215,1.839,13.2721,5.5268,17.2518,3.0845,3.464,7.1421,5.1863,12.1824,5.1863,5.6339,0,9.9249-2.0628,12.8537-6.1982,2.7829-3.8337,4.1743-9.2438,4.1743-16.2399ZM1060.95,423.4818h-11.5012c.5935-5.8674,3.3764-10.4212,8.3389-13.6516,4.437-2.9288,10.0417-4.3981,16.8043-4.3981,8.047,0,14.216,2.1115,18.4973,6.315,3.6099,3.6099,5.4101,8.2708,5.4101,13.9825v40.0402h-8.9032l-1.3525-8.008c-4.5927,6.4707-11.1315,9.7011-19.626,9.7011-6.6945,0-11.9196-1.8098-15.6755-5.4101-3.0845-3.0067-4.6219-6.8112-4.6219-11.3942,0-5.7895,1.985-10.2655,5.9744-13.4181,3.5321-2.7829,8.9422-4.8165,16.2399-6.0912l17.1448-2.9386v-2.9288c0-3.8337-1.3233-6.7236-3.9505-8.6794-2.3353-1.732-5.5268-2.598-9.5844-2.598-7.9691,0-12.3672,3.1624-13.1943,9.4773ZM1071.2057,458.326c4.5927,0,8.5724-1.4985,11.9586-4.5149,3.0067-2.7731,4.5149-5.9744,4.5149-9.5844v-7.5507l-14.5468,2.5883c-5.3419.9049-8.9908,2.2964-10.9466,4.1743-1.5763,1.5082-2.3645,3.5321-2.3645,6.0912,0,2.8607.973,5.0403,2.9288,6.5388,1.9558,1.5082,4.7776,2.2574,8.4556,2.2574ZM1125.676,465.7697h-10.8298v-58.6446h8.913l1.2357,7.4437c4.3689-6.0912,10.3044-9.1368,17.8259-9.1368,6.9183,0,12.2115,2.1407,15.8993,6.4317,3.2305,3.8337,4.8457,9.0589,4.8457,15.6755v38.2304h-10.8201v-38.1234c0-8.6405-4.1743-12.9608-12.5229-12.9608-4.3592,0-7.9302,1.4985-10.7131,4.5051-2.5591,2.705-3.8337,6.169-3.8337,10.3725v36.2065ZM1228.8757,407.1251l-20.4142,59.4328c-2.705,7.8913-5.303,13.2721-7.7843,16.1329-2.9288,3.3764-6.7334,5.0695-11.3942,5.0695-1.9558,0-4.2813-.3406-6.9864-1.012v-8.7962c2.1017.5254,3.9797.7882,5.6339.7882,2.3353,0,4.1354-.8076,5.4198-2.4228,1.2747-1.625,2.8899-5.1376,4.8457-10.5477h-3.4932l-21.5429-58.6446h11.725l16.5805,49.8484,16.5805-49.8484h10.8298Z"/></svg>